/* XPM */
static char *result[] = {
/* columns rows colors chars-per-pixel */
"48 48 131 2 ",
"   c #010101",
".  c #0E0B05",
"X  c #04090D",
"o  c #090A0B",
"O  c #0F110F",
"+  c #0C1014",
"@  c #0F1918",
"#  c #121214",
"$  c #14181A",
"%  c #1B1B1C",
"&  c #211904",
"*  c #221D0C",
"=  c #201D1E",
"-  c #2B240D",
";  c #3F3105",
":  c #262413",
">  c #1A2726",
",  c #1C2827",
"<  c #1B2B2A",
"1  c #142423",
"2  c #0E3F3C",
"3  c #1F3331",
"4  c #1D363A",
"5  c #212324",
"6  c #222827",
"7  c #252628",
"8  c #252B2B",
"9  c #2B2D2F",
"0  c #2E2F31",
"q  c #253533",
"w  c #2C3535",
"e  c #2C373D",
"r  c #323B3B",
"t  c #463505",
"y  c #493805",
"u  c #52461E",
"i  c #664F00",
"p  c #5A4C20",
"a  c #5D5022",
"s  c #7C6524",
"d  c #7C6A27",
"f  c #313C41",
"g  c #195953",
"h  c #27484C",
"j  c #3B4646",
"k  c #394846",
"l  c #3B4A49",
"z  c #2B4F52",
"x  c #1E716A",
"c  c #3F6461",
"v  c #3D7C77",
"b  c #44464C",
"n  c #424B4C",
"m  c #464A50",
"M  c #495453",
"N  c #4E5A59",
"B  c #515D5D",
"V  c #52605E",
"C  c #477673",
"Z  c #487B77",
"A  c #497C78",
"S  c #636970",
"D  c #686D74",
"F  c #6B7D7C",
"G  c #647373",
"H  c #76797F",
"J  c #806616",
"K  c #816D2C",
"L  c #C1980A",
"P  c #D3A60A",
"I  c #D4AE0B",
"U  c #E9BC2A",
"Y  c #FFCE2F",
"T  c #FFD731",
"R  c #E9C44C",
"E  c #E9C550",
"W  c #E9CB53",
"Q  c #FFD853",
"!  c #FFD959",
"~  c #FFE157",
"^  c #FFE35D",
"/  c #FFE95F",
"(  c #7A7F83",
")  c #309A92",
"_  c #4F8481",
"`  c #508583",
"'  c #528A86",
"]  c #718282",
"[  c #7D8186",
"{  c #7E8288",
"}  c #738889",
"|  c #56A6A1",
" . c #66A6A3",
".. c #6CB1AC",
"X. c #6DB6B1",
"o. c #70B7B1",
"O. c #72BBB7",
"+. c #73BFBC",
"@. c #74C0BC",
"#. c #7BC7C5",
"$. c #7DC9C7",
"%. c #83878C",
"&. c #84888D",
"*. c #809797",
"=. c #889F9D",
"-. c #8DA6A4",
";. c #90A4A3",
":. c #97AEAD",
">. c #94B2AE",
",. c #9DB6B4",
"<. c #9FB9B7",
"1. c #A1BBB7",
"2. c #A4BDBC",
"3. c #A6C1BE",
"4. c #ABC4C2",
"5. c #ADC8C5",
"6. c #AFCDC9",
"7. c #B2CDCB",
"8. c #B7D1D0",
"9. c #B8D1D1",
"0. c #8DE6E1",
"q. c #8EE9E3",
"w. c #91EDE7",
"e. c #91EEE8",
"r. c #95F3EE",
"t. c #9BFEF7",
"y. c #9EFFFC",
"u. c #BDE6E2",
"i. c #A0FFFF",
"p. c #C2DEDD",
"a. c None",
/* pixels */
"a.a.a.a.a.a.a.a.a.a.a.a.a.a.a.a.a.a.a.a.a.a.a.a.a.a.a.a.a.a.a.a.a.a.a.a.a.a.a.a.a.a.a.a.a.a.a.a.",
"a.a.a.a.a.a.a.a.a.a.a.a.a.a.a.a.a.a.a.a.a.a.a.a.a.a.a.a.a.a.a.a.a.a.a.a.a.a.a.a.a.a.a.a.a.a.a.a.",
"a.a.a.a.a.a.a.a.a.a.a.a.a.a.a.a.a.a.a.a.a.a.a.a.a.a.a.a.a.a.a.a.a.a.a.a.a.a.a.a.a.a.a.a.a.a.a.a.",
"a.a.a.a.a.a.a.a.a.a.a.a.a.a.a.a.a.a.a.a.a.a.a.a.a.a.a.a.a.a.a.a.a.a.a.a.a.a.a.a.a.a.a.a.a.a.a.a.",
"a.a.a.a.a.a.a.a.a.a.a.a.a.a.a.                                  a.a.a.a.a.a.a.a.a.a.a.a.a.a.a.a.",
"a.a.a.a.a.a.a.a.a.a.a.a.a.a.a.o 9 0 0 0 0 0 0 0 0 0 0 0 w 9 7 % X a.a.a.a.a.a.a.a.a.a.a.a.a.a.a.",
"a.a.a.a.a.a.a.a.a.a.a.a.a.a.a.% H [ [ [ [ [ [ [ [ [ [ [ { ( S b o a.a.a.a.a.a.a.a.a.a.a.a.a.a.a.",
"a.a.a.a.a.a.a.a.a.a.a.a.a.a.a.% ( &.&.&.%.&.&.&.&.%.&.&.&.{ D b o a.a.a.a.a.a.a.a.a.a.a.a.a.a.a.",
"a.a.a.a.a.a.a.a.a.a.a.a.a.a.a.% ( %.%.&.%.%.&.&.%.%.%.%.&.%.D b o a.a.a.a.a.a.a.a.a.a.a.a.a.a.a.",
"a.a.a.a.a.a.a.a.a.a.a.a.a.a.a.% ( %.%.&.%.%.%.&.%.%.%.%.&.[ D b o a.a.a.a.a.a.a.a.a.a.a.a.a.a.a.",
"a.a.a.a.a.a.a.a.a.a.a.a.a.a.a.X = 5 = % % % % % % % % = = 5 % # X a.a.a.a.a.a.a.a.a.a.a.a.a.a.a.",
"a.a.a.a.a.a.a.a.a.a.a.a.a.a.a.a.a.+ C  . . . . . . . .| ) g   a.a.a.a.a.a.a.a.a.a.a.a.a.a.a.a.a.",
"a.a.a.a.a.a.a.a.a.a.a.a.a.a.a.a.a.$ +.+.A A A A A A A v x 2   a.a.a.a.a.a.a.a.a.a.a.a.a.a.a.a.a.",
"a.a.a.a.a.a.a.a.a.a.a.a.a.a.a.X r G u.>.V V V V V V V B B B M 8   a.a.a.a.a.a.a.a.a.a.a.a.a.a.a.",
"a.a.a.a.a.a.a.a.a.a.a.a.a.a.% :.p.4.2.3.2.2.3.2.2.2.2.2.2.3.7.9.] o a.a.a.a.a.a.a.a.a.a.a.a.a.a.",
"a.a.a.a.a.a.a.a.a.a.a.a.a.o -.,.8 , , , < < < < < , < < < , , M 4.F   a.a.a.a.a.a.a.a.a.a.a.a.a.",
"a.a.a.a.a.a.a.a.a.a.a.a.a.w p.w ` 0.0.0.0.q.0.q.0.0.0.q.0.0.#.c B 1.6 a.a.a.a.a.a.a.a.a.a.a.a.a.",
"a.a.a.a.a.a.a.a.a.a.a.a.a.N 6.3 q.i.t.t.y.y.t.t.t.t.y.y.t.t.t...l ,.j a.a.a.a.a.a.a.a.a.a.a.a.a.",
"a.a.a.a.a.a.a.a.a.a.a.a.a.V 8.3 r.i.i.y.i.y.y.y.y.y.i.y.i.i.t.O.l 1.n a.a.a.a.a.a.a.a.a.a.a.a.a.",
"a.a.a.a.a.a.a.a.a.a.a.a.a.% f X h z z z z z z z z z z z z z z 4 + e $ a.a.a.a.a.a.a.a.a.a.a.a.a.",
"a.a.a.a.a.a.a.a.a.a.a.a.a.: d K s s s s s s s s s s s s s s s s J i & a.a.a.a.a.a.a.a.a.a.a.a.a.",
"a.a.a.a.a.a.a.a.a.a.a.a.a.a / ^ ^ ^ ^ ^ ^ ^ ^ ! ^ ^ ^ ^ ^ ^ ^ ! T I y a.a.a.a.a.a.a.a.a.a.a.a.a.",
"a.a.a.a.a.a.a.a.a.a.a.a.a.a ^ ! ! ! ! ! ! ! ! ! ! ! ! ! ! ! ! Q Y P t a.a.a.a.a.a.a.a.a.a.a.a.a.",
"a.a.a.a.a.a.a.a.a.a.a.a.a.p ! ! ! ! ! ! ! ! ! ! ! ! ! ! ! ! ! Q Y P t a.a.a.a.a.a.a.a.a.a.a.a.a.",
"a.a.a.a.a.a.a.a.a.a.a.a.a.a ! ! ! ! ! ! ! ! ! ! Q ! ! ! ! ! ! Q Y P t a.a.a.a.a.a.a.a.a.a.a.a.a.",
"a.a.a.a.a.a.a.a.a.a.a.a.a.p ^ ! ! ! ! ! ! ! ! ! ! ! Q ! ! ! ! Q Y P t a.a.a.a.a.a.a.a.a.a.a.a.a.",
"a.a.a.a.a.a.a.a.a.a.a.a.a.p ^ ! ! ! ! Q ! ! ! ! ! ! ! ! ! ! ! Q Y P t a.a.a.a.a.a.a.a.a.a.a.a.a.",
"a.a.a.a.a.a.a.a.a.a.a.a.a.a ! ! ! ! ! ! ! ! ! ! ! ! ! ! ! ! ! Q Y P t a.a.a.a.a.a.a.a.a.a.a.a.a.",
"a.a.a.a.a.a.a.a.a.a.a.a.a.p ! ! ! ! ! Q ! ! ! ! ! ! ! ! ! ! ! Q Y P t a.a.a.a.a.a.a.a.a.a.a.a.a.",
"a.a.a.a.a.a.a.a.a.a.a.a.a.p ! ! ! ! ! ! ! ! ! ! ! ! ! ! ! ! ! Q Y P t a.a.a.a.a.a.a.a.a.a.a.a.a.",
"a.a.a.a.a.a.a.a.a.a.a.a.a.a ! ! ! ! ! ! ! ! ! ! ! ! ! ! ! ! ! Q Y P t a.a.a.a.a.a.a.a.a.a.a.a.a.",
"a.a.a.a.a.a.a.a.a.a.a.a.a.p E E E E E R E E E E E E E E E E E R U L t a.a.a.a.a.a.a.a.a.a.a.a.a.",
"a.a.a.a.a.a.a.a.a.a.a.a.a.. : * : : : : : : : : : : : : : : : * * * . a.a.a.a.a.a.a.a.a.a.a.a.a.",
"a.a.a.a.a.a.a.a.a.a.a.a.a.l *.1 X.+.+.+.+.@.+.+.@.@.+.@.+.+.+.' q } r a.a.a.a.a.a.a.a.a.a.a.a.a.",
"a.a.a.a.a.a.a.a.a.a.a.a.a.V 7.q r.i.i.i.y.y.y.y.i.y.y.y.y.i.y.O.l ,.n a.a.a.a.a.a.a.a.a.a.a.a.a.",
"a.a.a.a.a.a.a.a.a.a.a.a.a.B 5.3 w.t.t.t.t.t.y.t.t.t.t.t.t.t.t.o.l ,.n a.a.a.a.a.a.a.a.a.a.a.a.a.",
"a.a.a.a.a.a.a.a.a.a.a.a.a.N 6.3 w.y.t.t.t.t.t.t.t.t.t.t.t.t.t...k >.n a.a.a.a.a.a.a.a.a.a.a.a.a.",
"a.a.a.a.a.a.a.a.a.a.a.a.a.B 5.3 w.t.t.t.t.t.t.t.t.t.t.t.t.y.t...j ,.n a.a.a.a.a.a.a.a.a.a.a.a.a.",
"a.a.a.a.a.a.a.a.a.a.a.a.a.N 6.3 0.y.t.t.t.t.y.t.y.t.t.y.t.y.t...j ,.j a.a.a.a.a.a.a.a.a.a.a.a.a.",
"a.a.a.a.a.a.a.a.a.a.a.a.a.r 9.w ` 0.w.q.q.w.q.q.q.q.q.q.q.q.#.c N 1.6 a.a.a.a.a.a.a.a.a.a.a.a.a.",
"a.a.a.a.a.a.a.a.a.a.a.a.a.+ =.,.w q q q q q q q q q q q q q q N 1.F   a.a.a.a.a.a.a.a.a.a.a.a.a.",
"a.a.a.a.a.a.a.a.a.a.a.a.a.a.% ;.9.1.,.,.1.1.,.,.1.,.1.,.,.1.4.5.F + a.a.a.a.a.a.a.a.a.a.a.a.a.a.",
"a.a.a.a.a.a.a.a.a.a.a.a.a.a.a.X r B V V B B V V B B B V B B M 8   a.a.a.a.a.a.a.a.a.a.a.a.a.a.a.",
"a.a.a.a.a.a.a.a.a.a.a.a.a.a.a.a.a.                            a.a.a.a.a.a.a.a.a.a.a.a.a.a.a.a.a.",
"a.a.a.a.a.a.a.a.a.a.a.a.a.a.a.a.a.a.a.a.a.a.a.a.a.a.a.a.a.a.a.a.a.a.a.a.a.a.a.a.a.a.a.a.a.a.a.a.",
"a.a.a.a.a.a.a.a.a.a.a.a.a.a.a.a.a.a.a.a.a.a.a.a.a.a.a.a.a.a.a.a.a.a.a.a.a.a.a.a.a.a.a.a.a.a.a.a.",
"a.a.a.a.a.a.a.a.a.a.a.a.a.a.a.a.a.a.a.a.a.a.a.a.a.a.a.a.a.a.a.a.a.a.a.a.a.a.a.a.a.a.a.a.a.a.a.a.",
"a.a.a.a.a.a.a.a.a.a.a.a.a.a.a.a.a.a.a.a.a.a.a.a.a.a.a.a.a.a.a.a.a.a.a.a.a.a.a.a.a.a.a.a.a.a.a.a."
};
