/* XPM */
static char *result[] = {
/* columns rows colors chars-per-pixel */
"48 48 240 2 ",
"   c black",
".  c #010101",
"X  c #020202",
"o  c gray1",
"O  c #040404",
"+  c gray2",
"@  c #070705",
"#  c #060606",
"$  c #060707",
"%  c #070707",
"&  c #090907",
"*  c #0C0A07",
"=  c gray3",
"-  c #090909",
";  c gray4",
":  c #0C0A08",
">  c #0F0C08",
",  c #0F0D09",
"<  c #0C0C0C",
"1  c #0C0D0D",
"2  c gray5",
"3  c #0F0D0D",
"4  c #0E0E0C",
"5  c #0F0F0E",
"6  c #0E0F0F",
"7  c #100E0A",
"8  c #100E0B",
"9  c #060D16",
"0  c #09111A",
"q  c #101010",
"w  c #111111",
"e  c #131310",
"r  c #131211",
"t  c #111212",
"y  c gray7",
"u  c #121313",
"i  c #131313",
"p  c #161612",
"a  c #131414",
"s  c gray8",
"d  c #151514",
"f  c #151515",
"g  c #151615",
"h  c #151616",
"j  c #161616",
"k  c #171716",
"l  c #181817",
"z  c #181818",
"x  c #1B1B18",
"c  c #1D1D1B",
"v  c #1D1D1C",
"b  c #1C1D1D",
"n  c #1E1E1D",
"m  c #1D1E1E",
"M  c #201F1E",
"N  c #20201F",
"B  c #0F1C2C",
"V  c #152235",
"C  c #14263D",
"Z  c #16273E",
"A  c #212120",
"S  c #202121",
"D  c #222221",
"F  c #212323",
"G  c #222323",
"H  c #242423",
"J  c gray14",
"K  c #262624",
"L  c #272725",
"P  c #272726",
"I  c #262727",
"U  c #282825",
"Y  c #2A2B2B",
"T  c #2A2C2C",
"R  c #2A2D2D",
"E  c #2B2D2E",
"W  c #2E2E2D",
"Q  c #2F2F2D",
"!  c #2D2E2E",
"~  c #323434",
"^  c #333535",
"/  c #333536",
"(  c #373635",
")  c #393836",
"_  c #3A3A37",
"`  c #363838",
"'  c #3A3A38",
"]  c #3B3A38",
"[  c #3B3A39",
"{  c #3A3A3B",
"}  c #3C3C3A",
"|  c #3C3C3B",
" . c #3E3E3B",
".. c #3B3C3C",
"X. c #3E3E3C",
"o. c #3F3F3C",
"O. c #3D3F3F",
"+. c #41413F",
"@. c #1C2E46",
"#. c #1D2F47",
"$. c #1B3250",
"%. c #1C3350",
"&. c #1D3655",
"*. c #1D3756",
"=. c #253D5F",
"-. c #253E61",
";. c #3E4141",
":. c #3F4141",
">. c #3B4146",
",. c #274063",
"<. c #274165",
"1. c #284266",
"2. c #284367",
"3. c #284972",
"4. c #2F4C75",
"5. c #2C4C76",
"6. c #404141",
"7. c #404242",
"8. c #434342",
"9. c #424343",
"0. c #424545",
"q. c #454747",
"w. c #464747",
"e. c #484845",
"r. c #454848",
"t. c #4A4A48",
"y. c #4A4C4C",
"u. c #4C545E",
"i. c #525555",
"p. c #555857",
"a. c #575858",
"s. c #565959",
"d. c #575A5A",
"f. c #5B5B58",
"g. c #5E5D5B",
"h. c #595C5C",
"j. c #62625F",
"k. c #646461",
"l. c #696966",
"z. c #6A6966",
"x. c #6A6A66",
"c. c #6A6A67",
"v. c #6C6B68",
"b. c #6C6C69",
"n. c #6F6F6B",
"m. c #73726F",
"M. c #777777",
"N. c #7E7D79",
"B. c #7F7E79",
"V. c #7E7D7A",
"C. c #807E7A",
"Z. c #817F7B",
"A. c #83837F",
"S. c #85847F",
"D. c #335380",
"F. c #365784",
"G. c #375785",
"H. c #395A85",
"J. c #4883CE",
"K. c #5080C3",
"L. c #4985D1",
"P. c #4D8CDC",
"I. c #4E8DDE",
"U. c #4E8EDF",
"Y. c #508AD5",
"T. c #508BD8",
"R. c #5593E3",
"E. c #5694E5",
"W. c #5695E5",
"Q. c #5D94E1",
"!. c #629DEE",
"~. c #639EEE",
"^. c #649EEC",
"/. c #65A0EC",
"(. c #67A5EC",
"). c #66A4EE",
"_. c #69A7FF",
"`. c #6AA8FF",
"'. c #6AA9FF",
"]. c #6BA9FF",
"[. c #6BAAFF",
"{. c #6DADFF",
"}. c #6DAEFF",
"|. c #6EAFFF",
" X c #6EB0FF",
".X c #838380",
"XX c #858580",
"oX c #888681",
"OX c #8C8C88",
"+X c #92918C",
"@X c #93938F",
"#X c #959590",
"$X c #979793",
"%X c #9D9C98",
"&X c #9D9D98",
"*X c #A2A19C",
"=X c #A3A19D",
"-X c #A4A39D",
";X c #A7A7A1",
":X c #A9A8A2",
">X c #AAA8A2",
",X c #AAA9A4",
"<X c #AAA9A5",
"1X c #ABAAA5",
"2X c #ACABA6",
"3X c #ADABA7",
"4X c #ADACA7",
"5X c #AEACA7",
"6X c #B0AFA9",
"7X c #B1B0AB",
"8X c #B2B1AB",
"9X c #B3B2AC",
"0X c #B3B2AD",
"qX c #B3B3AD",
"wX c #B4B3AF",
"eX c #B9B8B1",
"rX c #B9B9B1",
"tX c #BAB9B1",
"yX c #BDBCB5",
"uX c #BEBCB5",
"iX c #BFBDB6",
"pX c #C2BFB9",
"aX c #C2C0B9",
"sX c #C3C0BA",
"dX c #C5C2BC",
"fX c #C6C3BD",
"gX c #C6C5BD",
"hX c #C6C5BE",
"jX c #C8C5BE",
"kX c #CAC8C1",
"lX c #CBC9C2",
"zX c #CCCAC3",
"xX c #CCCBC3",
"cX c #CDCBC3",
"vX c #CCCBC4",
"bX c #CDCBC4",
"nX c #CECBC4",
"mX c #CECDC5",
"MX c #CFCDC6",
"NX c None",
/* pixels */
"NXNXNXNXNXNXNXNXNXNXNXNXNXNXNXNXNXNXNXNXNXNXNXNXNXNXNXNXNXNXNXNXNXNXNXNXNXNXNXNXNXNXNXNXNXNXNXNX",
"NXNXNXNXNXNXNXNXNXNXNXNXNXNXNXNXNXNXNXNXNXNXNXNXNXNXNXNXNXNXNXNXNXNXNXNXNXNXNXNXNXNXNXNXNXNXNXNX",
"NXNXNX                                                                                    NXNXNX",
"NX  $ m G F F F F F F F F F F F F F F F F F F F F F F F F F F F F F F F F F F F F F G b h +   NX",
"NXo ~ y.q.q.q.q.q.q.q.q.q.q.q.q.q.q.q.q.q.q.q.q.q.q.q.q.q.q.q.q.q.q.q.q.q.q.q.q.q.q.w.7.` I X NX",
"  < i.T g a s s s s s s s s s s s s s s s s s s s s s s s s s s s s s s s s s s s s s d S O.-   ",
"  w s.e V H.F.F.F.F.F.F.F.F.F.F.F.F.F.F.F.F.F.F.F.F.F.F.F.F.F.F.F.F.F.F.F.F.F.F.G.5.3.B 4 7.2   ",
"  w s.8 -.(.^.^.^.^.^.^.^.^.^.^.^.^.^.^.^.^.^.^.^.^.^.^.^.^.^.^.^.^.^.^.^.^.^.^./.T.L.%.: 7.2   ",
"  w s.7 2. X'.'.'.'.'.'.'.'.'.'.'.'.'.'.'.'.'.'.'.'.'.'.'.'.'.'.'.'.'.'.'.'.'.'.].W.I.*.* 7.2   ",
"  w s.7 1.}._._._._._._._._._._._._._._._._._._._._._._._._._._._._._._._._._._.`.R.P.&.* 7.2   ",
"  w s.7 1.}._._._._._._._._._._._._._._._._._._._._._._._._._._._._._._._._._._.`.R.P.&.* 7.2   ",
"  w s.7 1.}._._._._._._._._._._._._._._._._._._._._._._._._._._._._._._._._._._.`.R.P.&.* 7.2   ",
"  w s.7 1.}._._._._._._._._._._._._._._._._._._._._._._._._._._._._._._._._._._.`.R.P.&.* 7.2   ",
"  w s.7 1.}._._._._._._._._._._._._._._._._._._._._._._._._._._._._._._._._._._.`.R.P.&.* 7.2   ",
"  w s.> ,.}._._._._._._._._._._._._._._._._._._._._._._._._._._._._._._._._._._.`.R.P.&.* 7.2   ",
"  w d.x D.{._._._._._._._._._._._._._._._._._._._._._._._._._._._._._._._._._._.`.R.P.&.* 7.2   ",
"  w p.u.Q.'._._._._._._._._._._._._._._._._._._._._._._._._._._._._._._._._._._.`.R.P.&.* 7.2   ",
"  w a.>.K.[._._._._._._._._._._._._._._._._._._._._._._._._._._._._._._._._._._.`.R.P.&.* 7.2   ",
"  w s.p 4.{._._._._._._._._._._._._._._._._._._._._._._._._._._._._._._._._._._.`.R.P.&.* 7.2   ",
"  w s., <.}._._._._._._._._._._._._._._._._._._._._._._._._._._._._._._._._._._.`.R.P.&.* 7.2   ",
"  w s.7 1.}._._._._._._._._._._._._._._._._._._._._._._._._._._._._._._._._._._.`.R.P.&.* 7.2   ",
"  w s.7 1.}._._._._._._._._._._._._._._._._._._._._._._._._._._._._._._._._._._.`.R.P.&.* 7.2   ",
"  w s.7 1.}._._._._._._._._._._._._._._._._._._._._._._._._._._._._._._._._._._.`.R.P.&.* 7.2   ",
"  w s.7 1.}._._._._._._._._._._._._._._._._._._._._._._._._._._._._._._._._._._.`.R.P.&.* 7.2   ",
"  w s.7 1.}._._._._._._._._._._._._._._._._._._._._._._._._._._._._._._._._._._.`.R.P.&.* 7.2   ",
"  w s.7 2.|.`.`.`.`.`.`.`.`.`.`.`.`.`.`.`.`.`.`.`.`.`.`.`.`.`.`.`.`.`.`.`.`.`.`.[.E.U.*.* 7.2   ",
"  w s.8 =.).!.!.!.!.!.!.!.!.!.!.!.!.!.!.!.!.!.!.!.!.!.!.!.!.!.!.!.!.!.!.!.!.!.!.~.Y.J.$.* 7.2   ",
"  w d.r 0 #.@.@.@.@.@.@.@.@.@.@.@.@.@.@.@.@.@.@.@.@.@.@.@.@.@.@.@.@.@.@.@.@.@.@.@.Z C 9 3 7.2   ",
"  y h...T E E E E E E E E E E E E E E E E E E E E E E E E E E E E E E E E E E E E R R Y ! 9.1   ",
"  2 r.0.6.:.:.:.:.:.:.:.:.:.:.:.:.:.:.:.:.:.:.:.:.:.:.:.:.:.:.:.:.:.:.:.:.:.:.:.:.:.6.;./ ^ ;   ",
"  o t y u u u u u u u u u u u u u u u u u u u u u u u u u u u u u u u u u u u u u u u u 6 2 X   ",
"  z N.C.B.B.B.B.B.B.B.B.B.B.B.B.B.B.B.B.B.B.Z.S.S.Z.B.B.B.B.B.B.B.B.B.B.B.B.B.B.B.B.B.N.n.v.f   ",
"  K dXhXfXfXfXfXfXfXfXfXfXfXfXfXfXfXfXfXfXjXyXoXoXyXjXfXfXfXfXfXfXfXfXfXfXfXfXfXfXfXfXdX5X;XN   ",
"  U lXbXzXzXzXzXzXzXzXzXzXzXzXzXzXzXzXzXvXbXg.H J g.bXvXzXzXzXzXzXzXzXzXzXzXzXzXzXzXzXlX9X4XA   ",
"  L kXzXlXlXlXlXlXlXlXlXlXlXlXlXlXlXlXlXnXrX5 M.M.5 tXnXlXlXlXlXlXlXlXlXlXlXlXlXlXlXlXkX8X2XA   ",
"  P lXzXlXlXlXlXlXlXlXlXlXlXlXlXlXlXlXlXvXsXM { { M sXvXlXlXlXlXlXlXlXlXlXlXlXlXlXlXlXkX8X3XD   ",
"  c gXMXxXxXxXxXxXxXxXxXxXxXxXxXxXxXxXxXcXmX+Xe.e.+XmXcXxXxXxXxXxXxXxXxXxXxXxXxXxXxXxXlXqX:Xz   ",
"NX# m.iXsXpXpXpXpXpXpXpXpXpXpXpXpXpXpXpXpXaXuX>X>XuXaXpXpXpXpXpXpXpXpXpXpXpXpXpXpXpXsXeX=Xj.+ NX",
"NX  k ( o.X.X.X.X.X.X.X.X.X.X.X.X.X.X. .] _ [ } } [ _ ]  .X.X.X.X.X.X.X.X.X.X.X.X.X.X.' Q i   NX",
"NXNXNX# - & & & & & & & & & & & & & @ = | +.+.+.+.+.+.| = @ & & & & & & & & & & & & & % O NXNXNX",
"NXNXNXNXNXNXNXNXNXNXNXNXNXNXNXNXNXNX  v A..XA.A.A.A..XXXn   NXNXNXNXNXNXNXNXNXNXNXNXNXNXNXNXNXNX",
"NXNXNXNXNXNXNXNXNXNXNXNXNXNXNXNXNXNX  t.*X%X%X%X%X&X$X#X8.  NXNXNXNXNXNXNXNXNXNXNXNXNXNXNXNXNXNX",
"NXNXNXNXNXNXNXNXNXNXNXNXNXNXNXNXNXNX. V.6X,X,X,X,X1X-X@Xl.. NXNXNXNXNXNXNXNXNXNXNXNXNXNXNXNXNXNX",
"NXNXNXNXNXNXNXNXNXNXNXNXNXNXNXNXNX  P <XwX0X0X0X0X0X7X%XOXA   NXNXNXNXNXNXNXNXNXNXNXNXNXNXNXNXNX",
"NXNXNXNXNXNXNXNXNXNXNXNXNXNXNXNX  . ) b.x.z.z.z.z.z.c.k.f.W     NXNXNXNXNXNXNXNXNXNXNXNXNXNXNXNX",
"NXNXNXNXNXNXNXNXNX                  q l k k k k k k k j s 2                   NXNXNXNXNXNXNXNXNX",
"NXNXNXNXNXNXNXNXNXNXNXNXNXNXNXNXNXNXNXNXNXNXNXNXNXNXNXNXNXNXNXNXNXNXNXNXNXNXNXNXNXNXNXNXNXNXNXNX",
"NXNXNXNXNXNXNXNXNXNXNXNXNXNXNXNXNXNXNXNXNXNXNXNXNXNXNXNXNXNXNXNXNXNXNXNXNXNXNXNXNXNXNXNXNXNXNXNX"
};
