/* XPM */
static char *result[] = {
/* columns rows colors chars-per-pixel */
"48 48 113 2 ",
"   c #030102",
".  c #0A0604",
"X  c #0D0906",
"o  c #060009",
"O  c #09010C",
"+  c #0F0A09",
"@  c #120504",
"#  c #190705",
"$  c #120C07",
"%  c #140D09",
"&  c #190F09",
"*  c #16100B",
"=  c #1C130C",
"-  c #0D0014",
";  c #100116",
":  c #12001B",
">  c #22140D",
",  c #21180F",
"<  c #29190F",
"1  c #251B12",
"2  c #2A1D13",
"3  c #311E12",
"4  c #2E2216",
"5  c #332216",
"6  c #3A2316",
"7  c #342619",
"8  c #35281A",
"9  c #3C2C1C",
"0  c #160021",
"q  c #190025",
"w  c #1C002B",
"e  c #21042C",
"r  c #391C23",
"t  c #220034",
"y  c #27003A",
"u  c #28003D",
"i  c #691D19",
"p  c #432A1B",
"a  c #4A2D1D",
"s  c #4E301E",
"d  c #52321F",
"f  c #453321",
"g  c #4A3623",
"h  c #4E3A25",
"j  c #533220",
"k  c #593622",
"l  c #523C27",
"z  c #5C3823",
"x  c #633C25",
"c  c #574029",
"v  c #5C442C",
"b  c #61452D",
"n  c #6B4128",
"m  c #61482E",
"M  c #73452B",
"N  c #77482D",
"B  c #7B4B2E",
"V  c #654A30",
"C  c #6A4E32",
"Z  c #7E4C30",
"A  c #6E5134",
"S  c #725436",
"D  c #755638",
"F  c #775838",
"G  c #7C5B3B",
"H  c #2D0044",
"J  c #360E40",
"K  c #32004C",
"L  c #3D1243",
"P  c #360052",
"I  c #380054",
"U  c #3D005C",
"Y  c #4A0D5D",
"T  c #723A42",
"R  c #632E55",
"E  c #743B5D",
"W  c #420064",
"Q  c #46006A",
"!  c #49006E",
"~  c #4D0074",
"^  c #52007B",
"/  c #89251F",
"(  c #942821",
")  c #BD332B",
"_  c #824F31",
"`  c #845032",
"'  c #885233",
"]  c #815F3D",
"[  c #84613F",
"{  c #90633F",
"}  c #876340",
"|  c #8A6541",
" . c #8E6943",
".. c #936C46",
"X. c #976F48",
"o. c #996F48",
"O. c #9D734A",
"+. c #A2764D",
"@. c #A5794E",
"#. c #A97C4F",
"$. c #A77A50",
"%. c #AA7D50",
"&. c #864866",
"*. c #904E6A",
"=. c #91506B",
"-. c #AF8053",
";. c #B08253",
":. c #560081",
">. c #590085",
",. c #5D008C",
"<. c #6B1183",
"1. c #630094",
"2. c #660099",
/* pixels */
"2.2.2.2.2.2.2.2.2.2.2.2.2.2.2.2.2.2.2.2.2.2.2.2.2.2.2.2.2.2.2.2.2.2.2.2.2.2.2.2.2.2.2.2.2.2.2.2.",
"2.2.2.2.2.2.2.2.2.2.2.2.2.2.2.2.2.2.2.2.2.2.2.2.2.2.2.2.2.2.2.2.2.2.2.2.2.2.2.2.2.2.2.2.2.2.2.2.",
"2.2.2.2.2.2.2.2.2.2.2.2.2.2.2.2.2.2.2.2.2.2.2.2.2.2.2.2.2.2.2.2.2.2.2.2.2.2.2.2.2.2.2.2.2.2.2.2.",
"2.2.2.2.2.2.2.2.2.2.2.2.2.2.2.2.2.2.2.2.2.2.2.1.:.1.2.2.2.2.2.1.,.>.2.2.2.2.2.2.2.2.2.2.2.2.2.2.",
"2.2.2.2.2.2.2.2.2.2.2.2.2.2.2.2.2.2.2.2.2.2.2.:.q ^ 1.2.2.2.2.1.I u ,.1.2.2.2.2.2.2.2.2.2.2.2.2.",
"2.2.2.2.2.2.2.2.2.2.2.2.2.2.2.2.2.2.2.2.2.2.2.K   : ^ 2.2.2.2.,.;   P 1.2.2.2.2.2.2.2.2.2.2.2.2.",
"2.2.2.2.2.2.2.2.2.2.2.2.2.2.2.2.2.2.2.2.2.2.2.u     q >.2.2.2.,.O   O W 2.2.2.2.2.2.2.2.2.2.2.2.",
"2.2.2.2.2.2.2.2.2.2.2.2.2.2.2.2.2.2.2.2.2.2.2.t   &   t 1.2.2.^ o . o : :.2.2.2.2.2.2.2.2.2.2.2.",
"2.2.2.2.2.2.2.2.2.2.2.2.2.2.2.2.2.2.2.2.2.2.2.0   x =   U 1.1.~   4 g . y 1.2.2.2.2.2.2.2.2.2.2.",
"2.2.2.2.2.2.2.2.2.2.2.2.2.2.2.2.2.2.2.2.2.2.1.:   N x . - :.1.Q   a X.= O Q 2.2.2.2.2.2.2.2.2.2.",
"2.2.2.2.2.2.2.2.2.1.2.2.2.2.2.2.2.2.2.2.2.2.,.- X B _ 5   K 1.U   c ;.V o w 1.2.2.2.2.2.2.2.2.2.",
"2.2.2.2.2.2.2.2.1.1.1.1.2.2.2.2.2.2.2.2.2.2.:.  & _ _ n . : ,.K . V -.X.4 o ! 2.2.2.2.2.2.2.2.2.",
"2.2.2.2.2.2.2.1.^ I K ! ,.2.2.2.2.2.2.2.2.2.^   > _ B M & o ~ t   S -.$.v o H 1.2.2.2.2.2.2.2.2.",
"2.2.2.2.2.2.2.^ : . . o Y 1.2.2.2.2.2.2.2.1.!   = a < = .   - O . } -.%.G   0 ^ ,.2.2.2.2.2.2.2.",
"2.2.2.2.2.2.2.u o i / @ - ,.1.2.2.2.2.2.2.1.P     . + * 1 1 1 % , X.%.%...1 . - H :.2.2.2.2.2.2.",
"2.2.2.2.2.2.2.y   ( ) # o U ^ :.,.,.1.1.1.P o . 2 m } O.+.+.O. .} O.%.%.%. .v 1 . q ^ 1.2.2.2.2.",
"2.2.2.2.2.2.2.Q - . + . . . O ; w u I Q K     * F %.-.-.%.#.O.A 7 7 O.-.@.-.-. .9 . q ^ 1.1.2.2.",
"2.2.2.2.2.2.2.1.Q O   g C l 9 1 * X . .   % 1 . . 9 G #.X.V 4   + 9 @.-.@.@.@.-.@.h X w ,.2.2.2.",
"2.2.2.2.2.2.2.2.2.0 .  .-.-.%.O...G V h 9 S +.C 4 . % G c . + 9 F @.-.@.-.-.@.-.-.O.8 - K 1.2.2.",
"2.2.2.2.2.2.2.2.1.0 X | G G %.-.-.-.-.-.%.%.-.-.O.A h X.F h G -.-.-.@.-.+...S { #.-.G * 0 ^ 2.2.",
"2.2.2.2.2.2.2.2.1.0 . 8 . + G O.A F %.O.V } %. .V O.-.%.-.-.-.#.@.@.o.F g = X 9 #.%.O.l O H 1.2.",
"2.2.2.2.2.2.2.2.2.0   o -   4 f   X C 9   * S 1   g %.%.#.#.%.#.-.A 4 .   = g [ -.#.-.G * 0 :.2.",
"2.2.2.2.2.2.2.2.2.t - H :.t     - O     : o       + X.-.%.@.%.#.+.4 .   , F %.-.#.%.%.X.9 - U 2.",
"2.2.2.2.2.2.2.2.2.:.^ 1.1.:.0 q ^ W - w :.P - H t   V %.%.%.%.%.-. .g *   = v %.#.%.#.O.V o H 1.",
"2.2.2.2.2.2.2.2.2.2.,.,.1.1.^ :.1.1.~ ,.2.1.~ ,.~   1 $.%.%.%.%.%.%.| 8   + f -.%.%.%.$.G + t ,.",
"2.2.2.2.2.2.2.2.2.2.H q ^ ^ w t :.~ : u ,.U : U :.- . ] %.%.%.%.X.v * . 1 C O.%.%.%.%.%.| , : :.",
"2.2.2.2.2.2.2.2.2.1.q   : - .   : - .   q o   o : . 1  .-.%.$.+.9   . g o.-.#.%.$.%.%.%...7 : ^ ",
"2.2.2.2.2.2.2.2.2.2.H     . g 9 X . c 4 . * 4 . X g O.%.#.%.%.%.v % . 9 | -.#.#.%.%.%.%.X.9 - ~ ",
"2.2.2.2.2.2.2.2.2.2.W o * v -.O.c A -.O.h G X.g G -.-.#.%.%.%.@.X.f     4 @.%.@.%.%.%.%.O.g o U ",
"2.2.2.2.2.2.2.2.2.2.:.o , A G } X.O.O.#.-.-.-.-.-.@.#.-.#.O.[ c = . % 7 S %.%.%.%.$.%.%.O.h   H ",
"2.2.2.2.2.2.2.2.2.2.,.q o o o + * , 8 f c m F G { X.O.o.S 9 + . % f G $.-.%.%.%.%.%.%.%.O.h   u ",
"2.2.2.2.2.2.2.2.2.2.2.^ U P u t q : - O     . . X = 4 1   + 1 v ..-.-.%.%.%.%.%.@.%.#.%.O.h   u ",
"2.2.2.2.1.,.>.,.,.1.2.2.2.2.2.2.1.,.:.W O o 9 p 4 = * * 9 D +.%.;.#.%.%.%.%.%.%.%.%.#.%.O.h   y ",
"2.2.,.Q y : : : t Y >.1.2.2.2.2.2.2.,.t   4 | [ O.@.X.X.%.%.%.#...[ #.%.%.@.%.@.$.%.%.%.+.h   u ",
"2.1.U - @ > > > X o y >.2.2.2.2.2.1.H     1 1 % S -.-.-.#.%.#.O.8 2 +.%.%.%.%.%.%.%.$.%.O.h   y ",
"2.:.: . 6 d d M z >   H ,.2.2.2.2.:.- O -     + G -.#.@.#.#.-.A   2 @.%.$.%.#.$.#.%.%.#.O.h   u ",
"2.U o . * X . x ' n & o W ,.2.2.2.,.K K H     8 C X.%.%.%.#.[ , X b %.#.%.#.#.%.%.%.%.%.O.h   y ",
"2.K - : o   = x B _ d @ - I >.1.2.2.2.1.w         A -.%.#.[ 7   6 ` @.%.%.%.%.%.%.#.%.#.O.l   u ",
"2.,.W W :   1 p p B _ s & o t Q :.,.1.^ : : O   *  .#...C 1 . 3 B ` { +.%.%.%.%.#.%.%.%.O.h   y ",
"2.2.2.Q -   O     x B N z 1 $ O w P W ~ I U w   9 [ v 8 . % 6 B _ B a v #.%.#.%.%.%.%.%.O.h   u ",
"2.2.2.U q w u :   6 3 6 B B j 2 & @ O ; 0 w     * # . $ 1 k Z ' _ x . 4 +.%.%.$.@.%.%.%.O.h   y ",
"2.2.2.1.:.,.1.t o O ; e T B B B x a 6 < > = & > > 2 p x Z ' ` _ N 1 . V -.%.#.%.%.%.%.#.+.h   u ",
"2.2.2.2.1.2.2.Y t K Q ,.<.r 3 n _ ' _ _ B M M M N B ` ' _ _ ' N 6   9 O.%.%.#.%.%.%.%.%.O.h   y ",
"2.2.2.2.2.2.2.1.,.1.2.2.1.t O > s M _ _ _ _ _ ' ` ` _ _ _ Z x 6   1 | %.%.%.%.%.%.@.%.%.O.h   u ",
"2.2.2.2.2.2.2.2.2.2.2.2.2.>.K - . 1 s x M N Z B Z B B M x a * . 7 [ %.#.%.%.%.%.#.%.#.%.O.h   y ",
"2.2.2.2.2.2.2.2.2.2.2.2.2.2.,.Q t : O $ , 6 6 a a p 6 < % . , h ..-.%.#.#.%.#.$.%.%.%.%.O.l   u ",
"2.2.2.2.2.2.2.2.2.2.2.2.2.2.2.2.1.Q K w : : % .   . * , 4 l } %.%.#.%.%.%.$.%.%.%.%.%.%.+.v - P ",
"2.2.2.2.2.2.2.2.2.2.2.2.2.2.2.2.2.2.1.1.>.~ W J t L R E &.=.=.=.=.=.=.=.=.=.*.=.=.*.=.=.=.E Y ,."
};
