/* XPM */
static char *result[] = {
/* columns rows colors chars-per-pixel */
"48 48 183 2 ",
"   c #030302",
".  c #080706",
"X  c #0C0907",
"o  c #070109",
"O  c #09010D",
"+  c #0C0B09",
"@  c #110D0A",
"#  c #16110D",
"$  c #19130E",
"%  c #0D0114",
"&  c #0C0E10",
"*  c #110715",
"=  c #140D14",
"-  c #13011C",
";  c #17081C",
":  c #121214",
">  c #1C1613",
",  c #1E1B15",
"<  c #1C1419",
"1  c #1C1D1C",
"2  c #211A15",
"3  c #21141B",
"4  c #221C1C",
"5  c #25231C",
"6  c #2B241E",
"7  c #2C291F",
"8  c #170022",
"9  c #190125",
"0  c #1E0C22",
"q  c #1D002C",
"w  c #200C22",
"e  c #261825",
"r  c #220034",
"t  c #26003A",
"y  c #29003E",
"u  c #282521",
"i  c #2C2422",
"p  c #352A28",
"a  c #342B29",
"s  c #392E2B",
"d  c #37342A",
"f  c #3A3529",
"g  c #2B2F36",
"h  c #3D3631",
"j  c #42372B",
"k  c #413533",
"l  c #4E3435",
"z  c #443B34",
"x  c #4C3F38",
"c  c #464236",
"v  c #4F453D",
"b  c #554334",
"n  c #52453E",
"m  c #524D3B",
"M  c #5B543F",
"N  c #2D0043",
"B  c #33004C",
"V  c #360052",
"C  c #390056",
"Z  c #3E005C",
"A  c #430064",
"S  c #460069",
"D  c #49006D",
"F  c #4E0075",
"G  c #53007C",
"H  c #584A45",
"J  c #5A5343",
"K  c #644745",
"L  c #66554D",
"P  c #68574F",
"I  c #635C4B",
"U  c #69584F",
"Y  c #6B5A51",
"T  c #725D58",
"R  c #67604F",
"E  c #69624C",
"W  c #7B624C",
"Q  c #6F6853",
"!  c #766357",
"~  c #756258",
"^  c #786958",
"/  c #7B745D",
"(  c #794A76",
")  c #7F6C60",
"_  c #7E7660",
"`  c #80654F",
"'  c #856852",
"]  c #8E7158",
"[  c #93755C",
"{  c #826D62",
"}  c #897367",
"|  c #847C65",
" . c #887D63",
".. c #8C756A",
"X. c #8F786B",
"o. c #957C67",
"O. c #917A6E",
"+. c #947D70",
"@. c #987F73",
"#. c #A2666C",
"$. c #A17F64",
"%. c #8E8465",
"&. c #918666",
"*. c #968B6B",
"=. c #938B6D",
"-. c #9B8275",
";. c #968E71",
":. c #9C9474",
">. c #A98769",
",. c #A78C7E",
"<. c #A98D7F",
"1. c #B58F70",
"2. c #A59B7B",
"3. c #BB9474",
"4. c #AEA37C",
"5. c #B1A47D",
"6. c #C69C7B",
"7. c #C99F7D",
"8. c #CBA17E",
"9. c #560082",
"0. c #590085",
"q. c #5D008B",
"w. c #68158B",
"e. c #620093",
"r. c #660099",
"t. c #8A4895",
"y. c #C97B84",
"u. c #A78E80",
"i. c #AA8E80",
"p. c #AD9182",
"a. c #B09485",
"s. c #AF879C",
"d. c #B6A785",
"f. c #B4A986",
"g. c #B6AC89",
"h. c #BDB28D",
"j. c #DB808E",
"k. c #E88797",
"l. c #EA8B99",
"z. c #E8999C",
"x. c #CFA580",
"c. c #C0AA8D",
"v. c #D6AA85",
"b. c #D9AC87",
"n. c #DEAF8A",
"m. c #C8BB8F",
"M. c #DEB08A",
"N. c #C9BC92",
"B. c #D9B99A",
"V. c #E1B28C",
"C. c #E8A59C",
"Z. c #E8AF9E",
"A. c #F29DA2",
"S. c #ECADA3",
"D. c #F1A2A1",
"F. c #EDB5A6",
"G. c #ECBBA2",
"H. c #CFC092",
"J. c #CEC39B",
"K. c #D3C699",
"L. c #D7C89B",
"P. c #E0D19E",
"I. c #D9CBA3",
"U. c #DDD1A6",
"Y. c #DDD2A8",
"T. c #EFCBAD",
"R. c #F0C9AB",
"E. c #E5D5A3",
"W. c #ECD2A5",
"Q. c #E9D9A6",
"!. c #E1D4A9",
"~. c #E7DAAE",
"^. c #ECDDAC",
"/. c #F0DFAC",
"(. c #ECDEB1",
"). c #F3D6B3",
"_. c #F1E1AD",
"`. c #EEE1B3",
"'. c #F2E4B6",
"]. c #F4E6B8",
"[. c #FBE4BC",
"{. c #F5E9BA",
"}. c #FCEDBD",
/* pixels */
"r.r.r.r.r.r.r.r.r.r.r.r.r.r.r.r.r.r.r.r.r.r.r.r.r.r.r.r.r.r.r.r.r.r.r.r.r.r.r.r.r.r.r.r.r.r.r.r.",
"r.r.r.r.r.r.r.r.r.r.r.r.r.r.r.r.r.r.r.r.r.r.r.r.r.r.r.r.r.r.r.r.r.r.r.r.r.r.r.r.r.r.r.r.r.r.r.r.",
"r.r.r.r.r.r.r.r.r.r.r.r.r.r.r.r.r.r.r.r.r.r.r.r.r.r.r.r.r.r.r.r.r.r.r.r.r.r.r.r.r.r.r.r.r.r.r.r.",
"r.r.r.r.r.r.r.r.r.r.r.r.r.r.r.r.r.r.r.r.r.r.r.r.r.r.r.r.r.r.r.r.r.r.r.r.r.r.r.r.r.r.r.r.r.r.r.r.",
"r.r.r.r.r.r.r.r.r.r.r.r.r.r.r.r.r.r.r.r.r.r.r.r.r.r.r.r.r.r.r.r.r.r.r.r.r.r.r.r.r.r.r.r.r.r.r.r.",
"r.r.r.r.r.r.r.r.r.r.r.r.r.r.r.r.r.r.r.r.r.r.r.r.r.r.r.r.r.r.r.r.r.r.r.r.r.r.r.r.r.r.r.r.r.r.r.r.",
"r.r.r.r.r.r.r.r.r.r.r.r.r.r.r.r.r.r.r.r.r.r.r.r.r.r.r.r.r.r.r.r.r.r.r.r.r.r.r.r.r.r.r.r.r.r.r.r.",
"r.r.r.r.r.r.r.r.r.r.r.r.r.r.r.r.r.r.r.r.r.r.r.r.r.r.r.r.r.r.r.r.e.e.r.r.r.r.r.r.r.r.r.r.r.r.r.r.",
"r.r.r.r.r.r.r.r.r.r.r.e.9.F 9.e.r.r.r.r.r.r.r.r.r.r.r.r.r.r.A y 8 9 y A e.r.r.r.r.r.r.r.r.r.r.r.",
"r.r.r.r.r.r.r.r.r.e.A q * < % 8 B G e.r.r.r.r.r.r.r.r.r.F q = v | | H = y q.r.r.r.r.r.r.r.r.r.r.",
"r.r.r.r.r.r.r.r.e.V 0 J 2.c.f._ d * V e.r.r.r.r.r.r.r.A % c g.~.'.`.~.2.u r e.r.r.r.r.r.r.r.r.r.",
"r.r.r.r.r.r.r.r.Z 0 %.!.'.^.(.`.I.| 4 r 9.r.r.r.r.r.Z O R Y.].].].'.^.`.f.< V r.r.r.r.r.r.r.r.r.",
"r.r.r.r.r.r.r.9.9 R U.].].'.].'.^.`.h.d 9 G r.r.r.F O E E.].].'.].'.`.].`.%.% 9.r.r.r.r.r.r.r.r.",
"r.r.r.r.r.r.r.V u f.'.].'.'.'.'.`.].].J.c 8 G r.0.- m P.'.].'.].'.].].`.^.!.g V r.r.r.r.r.r.r.r.",
"r.r.r.r.r.r.e.r I L.'.'.'.'.'.].'.].].}.Y.h 9 0.t 7 L.Q.].].].'.].'.'.].].].I.t.r.r.r.r.r.r.r.r.",
"r.r.r.r.r.r.0.; %.!.'.'.'.].].}.{.{.h.;.{.K.5 8 . *._.E.N.`.].].'.].'.'.].].].s.q.r.r.r.r.r.r.r.",
"r.r.r.r.r.r.F e 4.E.^.'.].}.Y.f.I.}.:.# B.[.2.X j E.W.d.@ H.`.!.}.}.].'.`.].(.L N r.r.r.r.r.r.r.",
"r.r.r.r.r.r.D p c.Q._.'.`./ u & d U.I.#.j.D.h.X :.G.l.y.K '.4.1 I Q '.2.J `.`./ 8 q.r.r.r.r.r.r.",
"r.r.r.r.r.r.S k H.H.:.P.U.1 1 g & g.F.l.k.D.Q 5 K.Z.k.k.z.].!.I d | ]. .l R.'.:.% 9.r.r.r.r.r.r.",
"r.r.r.r.r.r.S z H.4.7 :.(.J & : + N.).F.S.).h m E.E.Z.C.T.].].].(.].'.z.j.l.F.f.% G r.r.r.r.r.r.",
"r.r.r.r.r.r.A k m.L.#.6.G.H.R c :.(.].].].`.7 Q Q.Q.Q.Q.^.].'.].].].'.S.l.l.F.g.* F r.r.r.r.r.r.",
"r.r.r.r.r.r.S p 5.Z.l.y.C.W.^.^.].].].].].(.7 Q Q.Q.Q.Q.^.].'.'.'.(.'.(.T.T.'.d.% F r.r.r.r.r.r.",
"r.r.r.r.e.e.G w 5.G.A.A.W./._._.].{.}.}.}.}.h M _._._._.K.N.}.}.}.].}.}.}.}.}.:.% q.r.r.r.r.r.r.",
"r.r.e.F y r N * M &.o.-.&.%.&.&.%.&.=.=.;.:.d , %.&.&.&.a , =.:.;.;.;.;.;.:.*.z % Z Z S q.r.r.r.",
"r.F r X > #   # $ # # $ # # # # # # # $ 2 @ $ 2 @ $ .   X 2 # # # # # # # # # 2 $   > $ - D r.r.",
"q.N p $.v.3.b f 3.v.v.v.v.v.v.v.v.v.b.>.] b.b.b.v.n.b 7 6.v.v.v.b.b.v.v.v.v.v.1.p 6 8.8.b - 0.r.",
"A 0 ` M.V.V.6.] 8.V.M.M.n.n.n.M.n.n.V.' . W V.V.n.M.8.v.V.n.n.n.n.n.n.n.n.V.8.j 2 1.V.V.>.3 V r.",
"D 0 W M.V.V.V.V.V.M.V.M.V.V.V.M.V.V.V.V.W . [ V.M.V.V.V.V.V.V.V.V.n.V.V.V.n.n.$.6.V.V.V.>.3 C r.",
"e.N 6 ] 7.8.6.8.8.7.7.8.7.7.7.7.7.7.7.7.8.[ >.7.7.7.7.7.6.6.8.8.7.7.7.7.7.7.7.x.8.8.7.1.j 9 q.r.",
"r.G y O X @ @ X X X X X X X X X X X X X X @ @ X X X X X X X X X X X X X X X X X X @ @ . 9 F r.r.",
"r.r.e.G r > n P U Y P P P P L Y ! ^ ! T ~ ~ ~ ~ ~ ~ ! ~ ! ! ! ! ~ ! ~ T ^ ~ ! ! ! s O S e.r.r.r.",
"r.r.r.r.S w n -.K z } -.@.@.+.,.p.<.a.<.p.p.i.,.a.p.p.p.p.p.p.<.p.p.p.@.H ,.a.i.X.< N r.r.r.r.r.",
"r.r.r.r.e.B 3 { T > i ^ @.+.+.+.,.,.,.,.,.,.+.2 L ,.,.,.,.,.,.i.,.,.i.O.: 4 -.,.i 8 q.r.r.r.r.r.",
"r.r.r.r.r.0.y p } ! i Y O.+.+.O.-.,.,.,.,.,.,.x = O.<.,.,.,.,.i.i.,.,.<...i U c % F r.r.r.r.r.r.",
"r.r.r.r.r.r.G - a ) +.O.O.@.+.+.+.,.,.,.,.,.i.,.O.,.,.,.,.,.,.L } i.,.i.i.-.k % S r.r.r.r.r.r.r.",
"r.r.r.r.r.r.r.D 9 H X.@.+.O.@.} +.-.,.,.,.,.,.,.<.,.,.,.,.,.,.5 , ..i.i.X.s % S r.r.r.r.r.r.r.r.",
"r.r.r.r.r.r.r.r.q.w.( T } @.L 4 ! +.,.,.,.,.u.u.<.<.,.,.,.,.i.@.u < { Y < - F r.r.r.r.r.r.r.r.r.",
"r.r.r.r.r.r.r.r.r.r.G 8 3 z @ s } +.+.,.u.u.u.u.,.,.,.,.i.,.i.p...@ . o N q.r.r.r.r.r.r.r.r.r.r.",
"r.r.r.r.r.r.r.r.r.r.e.G N % o h U { ..@.u.,.u.i.<.i.i.,.,.+.' v 4 O 9 C r.r.r.r.r.r.r.r.r.r.r.r.",
"r.r.r.r.r.r.r.r.r.r.r.r.r.G V q o = e p H K L L P J H k e : O 8 B 9.r.r.r.r.r.r.r.r.r.r.r.r.r.r.",
"r.r.r.r.r.r.r.r.r.r.r.r.r.r.r.e.9.A B r 9 8 * * - - 9 r N A 9.r.r.r.r.r.r.r.r.r.r.r.r.r.r.r.r.r.",
"r.r.r.r.r.r.r.r.r.r.r.r.r.r.r.r.r.r.r.r.r.e.q.e.e.e.r.r.r.r.r.r.r.r.r.r.r.r.r.r.r.r.r.r.r.r.r.r.",
"r.r.r.r.r.r.r.r.r.r.r.r.r.r.r.r.r.r.r.r.r.r.r.r.r.r.r.r.r.r.r.r.r.r.r.r.r.r.r.r.r.r.r.r.r.r.r.r.",
"r.r.r.r.r.r.r.r.r.r.r.r.r.r.r.r.r.r.r.r.r.r.r.r.r.r.r.r.r.r.r.r.r.r.r.r.r.r.r.r.r.r.r.r.r.r.r.r.",
"r.r.r.r.r.r.r.r.r.r.r.r.r.r.r.r.r.r.r.r.r.r.r.r.r.r.r.r.r.r.r.r.r.r.r.r.r.r.r.r.r.r.r.r.r.r.r.r.",
"r.r.r.r.r.r.r.r.r.r.r.r.r.r.r.r.r.r.r.r.r.r.r.r.r.r.r.r.r.r.r.r.r.r.r.r.r.r.r.r.r.r.r.r.r.r.r.r.",
"r.r.r.r.r.r.r.r.r.r.r.r.r.r.r.r.r.r.r.r.r.r.r.r.r.r.r.r.r.r.r.r.r.r.r.r.r.r.r.r.r.r.r.r.r.r.r.r.",
"r.r.r.r.r.r.r.r.r.r.r.r.r.r.r.r.r.r.r.r.r.r.r.r.r.r.r.r.r.r.r.r.r.r.r.r.r.r.r.r.r.r.r.r.r.r.r.r."
};
