/* XPM */
static char *result[] = {
/* columns rows colors chars-per-pixel */
"48 48 147 2 ",
"   c #010101",
".  c #0B0705",
"X  c #0C0905",
"o  c #07090A",
"O  c #0B0B0B",
"+  c #150A0A",
"@  c #1C0D0D",
"#  c #14110A",
"$  c #1C120D",
"%  c #0D0F11",
"&  c #121212",
"*  c gray11",
"=  c #151B1D",
"-  c #200D0D",
";  c #241D0F",
":  c #251212",
">  c #2C1515",
",  c #261F10",
"<  c #331919",
"1  c #3A1C1C",
"2  c #2B2312",
"3  c #312815",
"4  c #191E22",
"5  c #252525",
"6  c #282828",
"7  c #232A30",
"8  c #273036",
"9  c #283137",
"0  c #2A333B",
"q  c #343434",
"w  c #3B3730",
"e  c #373838",
"r  c #3A3A3A",
"t  c #46381C",
"y  c #483C1E",
"u  c #462222",
"i  c #4B2424",
"p  c #502727",
"a  c #522827",
"s  c #542929",
"d  c #5B2C2C",
"f  c #493C20",
"g  c #643131",
"h  c #6B3433",
"j  c #703736",
"k  c #7C3C3B",
"l  c #753939",
"z  c #574725",
"x  c #5C4B26",
"c  c #604E29",
"v  c #655229",
"b  c #6A552B",
"n  c #786432",
"m  c #323E45",
"M  c #364149",
"N  c gray28",
"B  c #4E4E4E",
"V  c #544E45",
"C  c #42505A",
"Z  c #515252",
"A  c gray35",
"S  c #746E5F",
"D  c #4A5763",
"F  c #556774",
"G  c #5E717F",
"H  c #636363",
"J  c #6E6E6E",
"K  c gray46",
"L  c #813F3E",
"P  c #8E733A",
"I  c #93763C",
"U  c #854140",
"Y  c #894341",
"T  c #944746",
"R  c #9C4D4A",
"E  c #A34F4E",
"W  c #A75150",
"Q  c #AE5454",
"!  c #B15654",
"~  c #BC5C5A",
"^  c #9C7E40",
"/  c #C35E5D",
"(  c #C7605E",
")  c #C9615F",
"_  c #CA6261",
"`  c #D36765",
"'  c #D76967",
"]  c #DA6967",
"[  c #DC6B69",
"{  c #E36D6C",
"}  c #E4706E",
"|  c #EB706E",
" . c #EC7573",
".. c #ED7876",
"X. c #F47675",
"o. c #F87775",
"O. c #F47976",
"+. c #F97877",
"@. c #F57B79",
"#. c #FD7C7A",
"$. c #A18142",
"%. c #AC8C48",
"&. c #B3924A",
"*. c #BC994F",
"=. c #C09C51",
"-. c #DCB55C",
";. c #E0B55D",
":. c #FF807D",
">. c #ECC867",
",. c #EDC566",
"<. c #F3C463",
"1. c #F6CB69",
"2. c #FFCD69",
"3. c #F2C967",
"4. c #FFD26C",
"5. c #FFD86F",
"6. c #647989",
"7. c #687E8E",
"8. c #6A8292",
"9. c #7C97A8",
"0. c #888888",
"q. c #909090",
"w. c #9D9D9D",
"e. c #829EB2",
"r. c #8AA8BD",
"t. c #83A1B6",
"y. c gray65",
"u. c #ABABAB",
"i. c #B7B7B7",
"p. c #B8B8B8",
"a. c #E6D6B9",
"s. c #8FAFC3",
"d. c #C4C4C4",
"f. c #C9C9C9",
"g. c gray83",
"h. c #D8D8D7",
"j. c gainsboro",
"k. c #EBE1C1",
"l. c #FEEECE",
"z. c #E0E0DF",
"x. c #FFF4D2",
"c. c #E6E6E6",
"v. c #EAEAEA",
"b. c #F4F4F4",
"n. c #FEFEFE",
"m. c #FAF9F6",
"M. c None",
/* pixels */
"M.M.M.M.M.M.M.M.M.M.M.M.M.M.M.M.M.M.M.M.M.M.M.M.M.M.M.M.M.M.M.M.M.M.M.M.M.M.M.M.M.M.M.M.M.M.M.M.",
"M.M.M.M.M.M.M.M.M.M.M.M.M.M.M.M.M.M.M.M.M.M.M.M.M.M.M.M.M.M.M.M.M.M.M.M.M.M.M.M.M.M.M.M.M.M.M.M.",
"M.M.M.M.M.M.M.M.M.M.M.M.M.M.M.M.M.M.M.M.M.M.M.M.M.M.M.M.M.M.M.M.M.M.M.M.M.M.M.M.M.M.M.M.M.M.M.M.",
"M.M.M.M.M.M.M.M.M.M.M.M.M.M.M.M.M.M.M.M.M.M.M.M.M.M.M.M.M.M.M.M.M.M.M.M.M.M.M.M.M.M.          M.",
"M.M.M.M.M.M.M.M.M.M.M.M.M.M.M.M.M.M.M.M.M.M.M.M.M.M.M.M.M.M.M.M.M.M.M.M.M.M.        X 2 3     M.",
"M.M.M.M.M.M.M.M.M.                                                          X 2 x I =.-.I     M.",
"M.M.M.M.M.M.M.M.    O O O O O O O O O O O O O O O O O O O O O O O X   # z P *.-.,.3.1.1.$.    M.",
"M.M.M.M.M.M.M.M.  6 d.f.f.f.f.d.f.f.f.f.f.f.f.f.f.f.f.f.f.f.f.f.d.q.X x >.1.1.2.2.2.4.1.I     M.",
"M.M.M.M.M.M.M.M.  r b.n.n.m.n.n.n.n.n.n.m.n.m.n.n.m.n.n.n.m.n.m.m.p.o v 4.2.2.2.2.2.2.1.I     M.",
"                  & Z Z Z Z Z Z B Z B Z Z Z Z Z Z Z Z Z Z Z H p.m.p.o v 4.2.2.2.2.2.2.1.$.    M.",
"  . . . + . . . + . . . . + . + . + . . O . + . . . + . . . & K m.p.. v 4.2.2.2.2.2.4.1.$.    M.",
"+ T _ _ _ _ _ _ / / _ ( ( / ) ( ( / _ ) ( ( _ _ _ _ _ _ / U % J b.i.. v 4.2.2.2.2.2.4.1.I     M.",
"+ ~ #.X.{ { { X.#.#.X.+.#.#.+.| +.#.o.| @.#.X.[ { [ { X.@.Q O J n.i.o v 4.2.2.2.2.2.2.1.^     M.",
"+ ~  .g : : : d X.` 1 k #.@.Q 1 Q @.U u { | i @ : - : g @.! O J m.p.. v 4.2.2.2.2.2.2.1.^     M.",
"+ ~ } : . < 1 h X.' > @ ! ' > @ ~ ..s @ _ ..h <   . 1 U +.! O J m.p.. v 4.2.2.2.2.2.2.1.$.    M.",
"+ ~ } : > {  ...#.#.E . > u . l O. .s @ _ #. ._ @ < { O.@.! O J m.i.. v 4.2.2.2.2.2.2.1.I     M.",
"@ ~ { : - R W ' #.#. .j   . u  .#...s + _ #.#.[ @ 1 +.#.+.Q % J b.p.o v 4.2.2.2.2.2.2.3.^     M.",
"+ ~ } :   + @ g #.#.#.! . . k #.#. .s @ _ #.#.[ @ 1 +.#.+.Q O J n.i.. v 4.2.2.2.2.2.2.1.^     M.",
"+ ~ } : + k Y / #.#.{ u     > _ #. .s + _ #.#.] @ 1 O.#.+.Q O J n.i.X v 4.2.2.2.2.2.2.1.$.    M.",
"+ ~ } : >  .@.@.#.O.k + p k . i  ...s @ _ #.#.] @ 1 +.#.#.! O J m.p.. v 4.2.2.2.2.2.2.1.I     M.",
"+ ~ { : . a d U X.! + > ` } i O U ..p @ ( #.#.] @ < +.#.@.Q O J m.p.X v 4.2.2.2.2.2.2.1.^     M.",
"@ ~ } u . . + i  .T - E #.#._ > d  .j > [ #.#.{ 1 p #.#.#.Q O J m.i.X x 4.2.2.2.2.2.2.1.I     M.",
"+ ~ :.{ ( ( _ { #. .` @.#.#.#.] { #. .` #.#.#.#.] { #.#.@.! O J n.h.V $.2.2.2.2.2.2.2.1.$.    M.",
"+ W } { { { { { { { { { { { { { { { { { { { { { { { { { { R O J n.m.k.<.2.2.2.2.2.2.2.1.$.    M.",
"  @ : : : > : : : : @ @ - @ - @ @ - - @ - @ @ - @ @ @ - @ + O J n.n.l.2.2.2.2.2.2.2.2.1.I     M.",
"                  O e e e e e e e e r e e e r e e e e r e e N u.n.g.V $.4.2.2.2.2.2.2.1.$.    M.",
"M.M.M.M.M.M.M.M.  q j.v.c.c.c.v.c.c.v.c.c.c.v.c.c.c.v.c.c.v.v.b.n.g.w I 4.2.2.2.2.2.4.1.$.    M.",
"M.M.M.M.M.M.M.M.o r b.n.n.n.n.n.n.n.n.n.n.n.n.n.n.n.n.n.n.n.n.n.n.m.a.<.2.2.2.2.2.2.4.1.I     M.",
"M.M.M.M.M.M.M.M.  r b.n.n.n.n.n.n.n.n.n.n.n.n.n.n.n.n.n.n.n.n.n.n.n.x.4.2.2.2.2.2.2.2.1.I .   M.",
"M.M.M.M.M.M.M.M.  r b.n.n.n.n.n.n.n.n.n.n.n.n.n.n.n.n.n.n.n.n.n.n.z.S &.4.2.2.2.2.2.2.1.$.    M.",
"M.M.M.M.M.M.M.M.  r b.n.n.v.J J g.n.n.n.n.n.n.n.n.n.n.n.n.n.n.n.n.p.+ b 4.2.2.2.2.2.2.1.$.    M.",
"M.M.M.M.M.M.M.M.o r m.n.n.j.* O 6 q.v.n.n.n.n.n.n.n.n.n.n.n.n.n.m.i.X v 4.2.2.2.2.2.2.1.I     M.",
"M.M.              = H H H Z O o % & M y.m.n.n.n.n.n.n.n.n.n.n.n.m.p.. v 4.2.2.2.2.2.2.1.I     M.",
"M.M.                . O O .   m 8.M X * A f.n.n.n.n.n.n.n.n.n.n.n.i.o v 4.2.2.2.2.2.2.1.$.    M.",
"M.M.o m 7.6.6.6.6.6.6.6.6.6.7.9.r.9.6.7 o 5 K j.n.n.n.n.n.n.n.n.m.i.. v 4.2.2.2.2.2.2.1.I     M.",
"M.M.o D s.r.r.r.r.r.r.r.r.r.r.r.r.r.r.9.C   O A m.n.n.n.n.n.n.n.m.i.. v 2.2.2.2.2.2.2.1.$.    M.",
"M.M.O D s.r.s.r.r.s.r.s.r.r.r.s.s.s.e.F 4   6 w.n.n.n.n.n.n.n.n.m.p.o v 4.2.2.2.2.2.2.1.$.    M.",
"M.M.  = 0 9 0 0 9 9 7 7 7 9 0 F r.6.9 O & J f.b.n.n.n.n.n.n.n.n.n.p.X v 4.2.2.2.2.2.2.1.^     M.",
"M.M.      o       o % & & O o 4 M % O Z i.v.n.n.n.n.n.n.n.n.n.n.m.i.  v 4.2.2.2.2.2.2.1.I     M.",
"M.M.M.M.M.M.M.M.  6 d.g.f.u.&   O e w.v.m.n.n.n.n.n.n.n.n.n.n.n.n.i.o v 4.2.2.2.2.2.4.1.$.    M.",
"M.M.M.M.M.M.M.M.  r b.n.n.j.5 * 0.h.b.n.n.n.n.n.n.n.n.n.n.n.n.n.m.i.. v 4.2.2.2.2.2.2.1.I     M.",
"M.M.M.M.M.M.M.M.o r b.n.n.m.f.f.b.n.n.n.n.n.n.n.n.n.n.n.n.n.n.n.m.i.. v 4.2.2.2.2.2.2.1.$.    M.",
"M.M.M.M.M.M.M.M.  r b.n.n.n.n.n.n.n.n.n.n.n.n.n.n.n.n.n.n.n.n.n.m.p.. v 4.2.2.2.2.2.2.1.I     M.",
"M.M.M.M.M.M.M.M.  r m.n.n.n.n.n.n.n.n.n.n.n.n.n.n.n.n.n.n.n.n.n.m.p.. v 4.2.2.2.2.2.2.1.$.    M.",
"M.M.M.M.M.M.M.M.  q j.c.c.c.c.c.c.c.c.c.c.c.c.c.c.c.c.c.c.c.c.c.c.y.o v 4.4.4.2.2.2.2.1.$.    M.",
"M.M.M.M.M.M.M.M.  O 6 6 6 6 6 6 6 6 6 6 6 6 6 6 6 6 6 6 6 6 6 6 7 *   ; n %.-.1.4.4.4.1.^     M.",
"M.M.M.M.M.M.M.M.                                                        X # ; y n &.-.3.$.    M.",
"M.M.M.M.M.M.M.M.M.M.M.M.M.M.M.M.M.M.M.M.M.M.M.M.M.M.M.M.M.M.M.M.M.M.M.M.M.    . X # , f t     M."
};
