/* XPM */
static char *dd0d896393054f98e286b9b47027c9a9F8u6ULd4fCvzIVBG[] = {
/* columns rows colors chars-per-pixel */
"48 48 144 2 ",
"   c None",
".  c #010100",
"X  c #0B0103",
"o  c #050B06",
"O  c #060E08",
"+  c #140104",
"@  c #1C0005",
"#  c #051109",
"$  c #09130B",
"%  c #0A1B0E",
"&  c #0D1D11",
"*  c #101F14",
"=  c #230007",
"-  c #290007",
";  c #240208",
":  c #2A0209",
">  c #34020B",
",  c #3A000B",
"<  c #0D2413",
"1  c #0B2815",
"2  c #122316",
"3  c #102718",
"4  c #132A19",
"5  c #15341C",
"6  c #16391F",
"7  c #1B3622",
"8  c #173C21",
"9  c #193D22",
"0  c #44030E",
"q  c #49000D",
"w  c #54000F",
"e  c #470310",
"r  c #4D0311",
"t  c #540312",
"y  c #5B0212",
"u  c #630515",
"i  c #6B0215",
"p  c #6D0518",
"a  c #740015",
"s  c #790016",
"d  c #740519",
"f  c #7C061B",
"g  c #194224",
"h  c #1D4C2A",
"j  c #1F512C",
"k  c #224D2D",
"l  c #21532D",
"z  c #274D31",
"x  c #235B32",
"c  c #276437",
"v  c #286738",
"b  c #2B6C3C",
"n  c #2D723F",
"m  c #376A44",
"M  c #2E7641",
"N  c #2F7A43",
"B  c #317B44",
"V  c #3F7A4F",
"C  c #83051C",
"Z  c #8B061E",
"A  c #93001B",
"S  c #9D001D",
"D  c #AB001F",
"F  c #910720",
"G  c #9B0622",
"H  c #A60724",
"J  c #AF0020",
"K  c #A40824",
"L  c #AD0826",
"P  c #B40021",
"I  c #BB0021",
"U  c #B30827",
"Y  c #B70928",
"T  c #BC0929",
"R  c #C60024",
"E  c #C90025",
"W  c #CD062A",
"Q  c #C4092B",
"!  c #CC0A2D",
"~  c #D10227",
"^  c #D40329",
"/  c #DB042B",
"(  c #D40A2F",
")  c #DB0A30",
"_  c #E4062E",
"`  c #E90730",
"'  c #E40B32",
"]  c #EB0A33",
"[  c #F30B35",
"{  c #FB0C37",
"}  c #FF0C38",
"|  c #348449",
" . c #3C824E",
".. c #368B4C",
"X. c #398B4D",
"o. c #38904F",
"O. c #3A8F50",
"+. c #399451",
"@. c #3D9C56",
"#. c #3FA35A",
"$. c #458656",
"%. c #45935A",
"&. c #429E5A",
"*. c #40A55B",
"=. c #45AA5F",
"-. c #4E9962",
";. c #509C64",
":. c #47AD61",
">. c #52A267",
",. c #54A56A",
"<. c #49B464",
"1. c #4BB867",
"2. c #4DBB69",
"3. c #52BC6D",
"4. c #5AAF70",
"5. c #5AB371",
"6. c #5BB272",
"7. c #5CB473",
"8. c #5DB574",
"9. c #5DB675",
"0. c #54BF70",
"q. c #56BE71",
"w. c #57BE72",
"e. c #58BE72",
"r. c #59BF73",
"t. c #5EB876",
"y. c #60BC79",
"u. c #58C073",
"i. c #59C074",
"p. c #5AC074",
"a. c #5BC075",
"s. c #5CC076",
"d. c #61C27B",
"f. c #62C27B",
"g. c #61C47B",
"h. c #63C27C",
"j. c #64C37D",
"k. c #64C47D",
"l. c #65C47E",
"z. c #65C57E",
"x. c #65C57F",
"c. c #64C47E",
"v. c #65C67F",
"b. c #66C67F",
/* pixels */
"                                                          . . .                                 ",
"                                          . .           . O 8 < .                               ",
"                                        . < 5 .       . 5 n ..x .                               ",
"                                      . $ +.=.4 . . . j @.@.o.b o                               ",
"                                      . b 3.2.| o . j #.#.+...| h                               ",
"                                    . 4 6.3.2.<.6 $ +.#.#.@...| M                               ",
"                          .         . m k.a.2.2.B o N #.#.o...n #                               ",
"                          . .       O ;.b.h.3.2.*.% c #.#.....j .                               ",
"                            . .     * 7.j.j.3.2.2.X.+.#.+.....4 .                               ",
"                              . . . 4 8.j.j.q.2.2.@.+.@.....c o                                 ",
"                                . . 2 8.k.j.r.2.<.5 g b g 1 o . . . .                           ",
"              . . . $ & & $ o . . . $ ,.b.j.q.2.&.$ o o ; t f C C u > X .                       ",
"            . < l  .>.4.4.,.$.z $ . . V b.j.q.<.x . > G ' { } } } } ] Q p + .                   ",
"            . B 3.2.u.k.k.k.k.h.-.7 . 7 y.g.&.9 X d ' } } } } } } } } } } Q e .                 ",
"            . 5 :.2.1.q.f.j.j.j.l.7.z o V  .& ; K { } } } } } } } } } } } } ] p .               ",
"              . l <.2.2.3.s.f.j.j.j.7.7 o o t ( } } } } } } } } } } } } } ' G ( p .             ",
"              . . j =.u.2.2.3.q.r.r.%.3 + Z [ } } } } } ] Y [ } } } } } } ( + t ' r o           ",
"            . # 4 o 5 X.1.2.2.1.<.v # , T } } } } } } } Q + f } } } } } } { C > ' ! @ .         ",
"        . o h | #.n < o 9 n ....g X p ' } } } } } } } } [ t : ] } } } } } } [ ' { } d .         ",
"      . % n #.#.#.#.+.x 1 o o o ; H { } } } } } } } } } { ] Q { } } } } } } } } } { ( +         ",
"    . < n o.@.#.#.#.#.#.@.j . r ( } } } } } } } } } } } } } } } } } } } } } } } } } { e .       ",
"    . h o...| ..o.+.o.@.n # q ] } } } [ [ } } } } } } } } } } } } } } } } } } } } } } C .       ",
"    . # g N ........o.| < - W } } } } C r ' } } } } } } } } } } } } } } } } } } } } } U X       ",
"      . . 5 ..v c b v g X Z [ } } } } G . Z } } } } } } } } } } } } } } } } } } } } } ) @       ",
"              o . o . . , R [ } } } } [ F L } } } } } } } } } } } } } ] ) } } } } } } [ , .     ",
"                      . a ~ { } } } } } } } } } } } } } } } } } } } } G ; Q } } } } } { t .     ",
"                      X S W [ } } } } } } } } } } } { ] { } } } } } } ! + y } } } } } } d .     ",
"                      + J E [ } } } } } } } } } } } ] e C } } } } } } } T U } } } } } } Z .     ",
"                      @ P E ] } } } } } } } } } } } { r + ( } } } } } } } } } } } } } } K .     ",
"                      @ P E _ } ) ' } } } } } } } } } ) f ) } } } } } } } } } } } } } } L .     ",
"                      , P E ^ { y > ) } } } } } } } } } } } } } } } } } } } } } } } } } U .     ",
"                        E E E [ L o F } } } } } } } } } } } } } } } } } } } } } } } } } ( :     ",
"                      @ s E R / { Y ( } } } } } } } } } } } } } } } } } } } } } ) ' } } }       ",
"                      . = P R R ` } } } } } } } } } } } } } } } } } } } } } } } u > ) } ( r     ",
"                        . a E R E [ } } } } } } } } } } } } } } } } } } } } } } H X Z } G .     ",
"                        . = D E R ~ [ } } } } } } } } } } } } } } } } } } } } } } U ! } f .     ",
"                          . q I R R E ] [ } } } } } } } } { ] } } } } } } } } } } } } } u .     ",
"                            . y R E E E u f [ { } } } } } ) 0 K } } } } } } } } } } } [ 0 .     ",
"                              . w P E E y . H { } { { } } ] > ; ' } } } } } } } } } } ' ;       ",
"                                . > A E P w A / ` { { } } } Q d ] } } { } } { } } } } T X       ",
"                                  . X y J E R R E / [ { } } } } } } } } } ] { { } } } C .       ",
"                                    . . = a I E E R E ^ ` [ } } } } } } { y u [ } } [ 0 .       ",
"                                        . . - a P E E R E ~ _ [ { } { } } f . L } } ( +         ",
"                                            . . - i D R E E E E / / ] [ } ] Z Q } } d o         ",
"                                                . . + q C P R E R R R E ~ / _ _ _ G + .         ",
"                                                      . . = q s S I R E E E E I a + .           ",
"                                                          . . . X = , w i i y : . .             ",
"                                                                  . . . . . . .                 "
};
