/* XPM */
static char *e35daa0999934167f281d407aeda9089Z5JGrgndZp4T9Qi0[] = {
/* columns rows colors chars-per-pixel */
"48 48 134 2 ",
"   c #13071D",
".  c #161315",
"X  c #131F1C",
"o  c #162319",
"O  c #160022",
"+  c #190727",
"@  c #1E0B2C",
"#  c #1D1D2A",
"$  c #1F1430",
"%  c #220733",
"&  c #260934",
"*  c #250B38",
"=  c #231031",
"-  c #28153D",
";  c #291C3D",
":  c #182524",
">  c #162E23",
",  c #1C242B",
"<  c #1A2D2C",
"1  c #1B332E",
"2  c #1D3B2D",
"3  c #1D3F32",
"4  c #213322",
"5  c #2A3A25",
"6  c #252C33",
"7  c #242538",
"8  c #27293D",
"9  c #223037",
"0  c #1E4434",
"q  c #2F462D",
"w  c #31442B",
"e  c #39442D",
"r  c #204133",
"t  c #214937",
"y  c #224738",
"u  c #254D3F",
"i  c #25513D",
"p  c #3E5C3F",
"a  c #455734",
"s  c #4B5E39",
"d  c #4F643D",
"f  c #53683E",
"g  c #2C0343",
"h  c #2E0A45",
"j  c #330A46",
"k  c #34034D",
"l  c #2E1748",
"z  c #360652",
"x  c #390556",
"c  c #3C015B",
"v  c #3F0A59",
"b  c #282E40",
"n  c #3A2443",
"m  c #2C3C46",
"M  c #3F0460",
"N  c #430165",
"B  c #47036B",
"V  c #4A046F",
"C  c #471A6B",
"Z  c #4D0174",
"A  c #53017D",
"S  c #573A63",
"D  c #2C4347",
"F  c #2D484A",
"G  c #265541",
"H  c #2B5445",
"J  c #295C45",
"K  c #30504D",
"L  c #324E50",
"P  c #335452",
"I  c #325954",
"U  c #2D634B",
"Y  c #336E54",
"T  c #366559",
"R  c #366B59",
"E  c #337055",
"W  c #357459",
"Q  c #377A5C",
"!  c #3D7C5B",
"~  c #3D7563",
"^  c #3A7C60",
"/  c #416544",
"(  c #446A47",
")  c #526241",
"_  c #556A42",
"`  c #5D7647",
"'  c #627B4A",
"]  c #3C8464",
"[  c #3F8867",
"{  c #3D8968",
"}  c #728F56",
"|  c #729257",
" . c #408160",
".. c #41846B",
"X. c #418E6B",
"o. c #43926E",
"O. c #449572",
"+. c #469B76",
"@. c #4BA47C",
"#. c #4EAA7F",
"$. c #7FA160",
"%. c #84A463",
"&. c #86A965",
"*. c #8BAD67",
"=. c #91B56D",
"-. c #A2CB7A",
";. c #590085",
":. c #5D008D",
">. c #630095",
",. c #660099",
"<. c #5D268C",
"1. c #775382",
"2. c #508E83",
"3. c #4EAC82",
"4. c #50AD81",
"5. c #4FB086",
"6. c #51B286",
"7. c #53B689",
"8. c #54B98C",
"9. c #58BF8F",
"0. c #57BF91",
"q. c #58C393",
"w. c #AAD481",
"e. c #AEDB84",
"r. c #B2DF86",
"t. c #B2E187",
"y. c #B5E489",
"u. c #B6E589",
"i. c #B7E68A",
"p. c #BAEB8D",
"a. c #BDED8F",
"s. c #BEEF90",
"d. c #BEF090",
"f. c #C2F492",
/* pixels */
",.,.,.,.,.,.,.,.,.,.,.,.,.,.,.,.,.,.,.,.,.,.,.,.,.,.,.,.,.,.,.,.,.,.,.,.,.,.,.,.,.,.,.,.,.,.,.,.",
",.,.,.,.,.,.,.,.,.,.,.,.,.,.,.,.,.,.,.,.,.,.,.,.,.,.,.,.,.,.,.,.,.,.,.,.,.,.,.,.,.,.,.,.,.,.,.,.",
",.,.,.,.,.,.,.,.,.,.,.,.,.,.,.,.,.,.,.,.,.,.,.,.,.,.,.,.,.,.,.,.,.,.,.,.,.,.,.,.,.,.,.,.,.,.,.,.",
",.,.,.,.,.,.,.,.,.,.,.,.,.,.,.,.,.,.,.,.,.,.,.,.,.,.,.,.,.,.,.,.,.,.,.,.,.,.,.,.,.,.,.,.,.,.,.,.",
",.,.,.,.,.,.,.,.,.,.,.,.,.,.,.,.,.,.,.,.,.,.,.,.,.,.,.,.,.,.,.,.,.,.,.,.,.,.,.,.,.,.,.,.,.,.,.,.",
",.,.,.,.,.,.,.,.,.,.,.,.,.,.,.,.,.,.,.,.,.,.,.,.,.,.,.,.,.,.,.,.,.,.,.,.,.,.,.,.,.,.,.,.,.,.,.,.",
",.,.,.,.,.,.,.,.,.,.,.,.,.,.,.,.,.,.,.,.,.,.,.,.,.,.,.,.,.,.,.,.,.,.,.,.,.,.,.,.,.,.,.,.,.,.,.,.",
",.,.,.,.,.,.,.,.,.,.,.,.,.,.,.,.,.,.,.,.,.,.,.,.,.,.,.,.,.,.,.,.,.,.,.,.,.,.,.,.,.,.,.,.,.,.,.,.",
",.,.,.,.,.,.,.,.,.,.,.,.,.,.,.,.,.,.,.,.,.,.,.,.,.,.,.,.,.,.,.,.,.,.,.,.,.,.,.,.,.,.,.,.,.,.,.,.",
",.,.,.,.,.,.,.,.,.,.,.,.,.,.,.,.,.,.,.,.,.,.,.,.,.,.,.,.,.,.,.,.,.,.,.,.,.,.,.,.,.,.,.,.,.,.,.,.",
",.,.,.,.,.,.,.,.,.,.,.,.,.,.,.,.,.,.,.,.,.,.,.,.,.,.,.,.,.,.,.,.,.,.,.,.,.,.,.,.,.,.,.,.,.,.,.,.",
",.,.,.,.,.,.,.,.,.,.,.,.,.,.,.,.,.,.,.,.,.,.,.,.,.,.,.,.,.,.,.,.,.,.,.,.,.,.,.,.,.,.,.,.,.,.,.,.",
",.,.,.,.,.,.,.,.,.,.,.,.,.,.,.,.,.,.,.,.,.,.,.,.,.,.,.,.,.,.,.,.,.,.,.,.,.,.,.,.,.,.,.,.,.,.,.,.",
",.,.,.,.,.,.,.,.,.,.,.,.,.,.,.,.,.,.,.,.,.,.,.,.,.,.,.,.,.,.,.,.,.,.,.,.,.,.,.,.,.,.,.,.,.,.,.,.",
",.,.,.,.,.,.,.,.,.,.,.,.,.,.,.,.,.,.,.,.,.,.,.,.,.,.,.,.,.,.,.,.,.,.,.,.,.,.,.,.,.,.,.,.,.,.,.,.",
",.,.,.,.,.,.,.,.,.,.,.,.,.,.,.,.,.,.,.,.,.,.,.,.,.,.,.,.,.,.,.,.,.,.,.,.,.,.,.,.,.,.,.,.,.,.,.,.",
",.,.,.,.,.,.,.,.,.,.,.,.,.,.,.,.,.,.,.,.,.,.,.,.,.,.,.,.,.,.,.,.,.,.,.,.,.,.,.,.,.,.,.,.,.,.,.,.",
",.,.,.,.,.,.,.,.,.,.,.,.,.,.,.,.,.,.,.,.,.,.,.,.,.,.,.,.,.,.,.,.,.,.,.,.,.,.,.,.,.,.,.,.,.,.,.,.",
",.,.,.,.,.,.,.,.,.,.,.,.,.,.,.,.,.,.,.,.,.,.,.,.,.,.,.,.,.,.,.,.,.,.,.,.,.,.,.,.,.,.,.,.,.,.,.,.",
",.,.,.,.,.,.,.,.,.,.,.,.,.,.,.,.,.,.,.,.,.,.,.,.,.,.,.,.,.,.,.,.,.,.,.,.,.,.,.,.,.,.,.,.,.,.,.,.",
",.,.,.,.,.,.,.,.,.,.,.,.,.,.,.,.,.,.,.,.,.,.,.;.N k h h k N ;.,.,.,.,.,.,.,.,.,.,.,.,.,.,.,.,.,.",
",.,.,.,.,.,.,.,.,.,.,.,.,.,.,.,.,.,.,.,.,.>.c ; L ~ ....~ P ; x :.,.,.,.,.,.,.,.,.,.,.,.,.,.,.,.",
",.,.,.,.,.,.,.,.,.,.,.,.,.,.,.,.,.,.,.,.:.k F ] @.6.7.7.7.3.O.K C >.,.,.,.,.,.,.,.,.,.,.,.,.,.,.",
",.,.,.,.,.,.,.,.,.,.,.,.,.,.,.,.,.,.,.>.z F o.3.8.8.8.8.8.8.7.3.2.<.>.,.,.,.,.,.,.,.,.,.,.,.,.,.",
",.,.,.,.,.,.,.,.,.,.,.,.,.,.,.,.,.,.,.M D o.#.6.7.8.7.8.8.8.7.8.8.T M ,.,.,.,.,.,.,.,.,.,.,.,.,.",
",.,.,.,.,.,.,.,.,.,.,.,.,.,.,.,.,.,.:.- ~ @.3.7.8.8.8.8.7.8.7.8.8.@.$ :.,.,.,.,.,.,.,.,.,.,.,.,.",
",.,.,.,.,.,.,.,.,.,.,.,.,.,.,.,.,.,.Z m O.@.5.8.7.8.7.7.8.8.8.8.8.8.y Z >.,.,.,.,.,.,.,.,.,.,.,.",
",.,.,.,.,.,.,.,.,.,.,.,.,.,.,.,.,.,.x I +.#.[ E 8.{ r 2 { 8.U +.8.0.Y x >.,.,.,.,.,.,.,.,.,.,.,.",
",.,.,.,.,.,.,.,.,.,.,.,.,.,.,.,.,.,.k T +.#.O.] 8.U 6 # U 8.! @.7.0.]   :.,.,.,.,.,.,.,.,.,.,.,.",
",.,.,.,.,.,.,.,.,.,.,.,.,.,.,.,.,.,.k T @.@.3.8.9...: X ] 8.7.8.8.0.^ @ >.,.,.,.,.,.,.,.,.,.,.,.",
",.,.,.,.,.,.,.,.,.,.,.,.,.,.,.,.,.,.c P +.@.#.7.8.6.O.O.6.8.7.8.7.0.U v >.,.,.,.,.,.,.,.,.,.,.,.",
",.,.,.,.,.,.,.,.,.,.,.,.,.,.,.,.,.,.A b o.#.@.6.8.8.8.8.8.8.7.8.8.0.1 A >.,.,.,.,.,.,.,.,.,.,.,.",
",.,.,.,.,.,.,.,.,.,.,.,.,.,.,.,.,.,.,.h R @.@.#.7.8.8.7.8.8.8.8.q.[ & >.,.,.,.,.,.,.,.,.,.,.,.,.",
",.,.,.,.,.,.,.,.,.,.,.,.,.,.,.,.,.,.,.Z 7 { 3.@.3.7.8.8.8.8.8.8.#.< Z ,.,.,.,.,.,.,.,.,.,.,.,.,.",
",.,.,.,.,.,.,.,.,.,.,.,.,.,.,.,.,.,.,.,.N 9 o.4.3.3.7.7.8.8.q.#.2 x >.,.,.,.,.,.,.,.,.,.,.,.,.,.",
",.,.,.,.,.,.,.,.,.,.,.,.,.,.,.,.,.,.,.,.>.N , E +.3.3.7.8.6.Q , N >.,.,.,.,.,.,.,.,.,.,.,.,.,.,.",
",.,.,.,.,.,.,.,.,.,.,.,.,.,.,.,.,.,.,.,.,.,.A + > 0 i G t > @ A >.,.,.,.,.,.,.,.,.,.,.,.,.,.,.,.",
",.,.,.,.,.,.,.,.,.,.,.,.,.,.,.,.,.,.,.,.,.,.:.O 3 U J J Y i x >.,.,.,.,.,.,.,.,.,.,.,.,.,.,.,.,.",
",.,.,.,.,.,.,.,.,.,.,.,.,.,.,.,.,.,.,.,.,.>.g ) s 2 { 8.q.u B ,.,.,.,.,.,.,.,.,.,.,.,.,.,.,.,.,.",
",.,.,.,.,.,.,.,.,.>.;.B N N N N N N N N x * _ e.s.*.5 Q 5., ;.,.,.,.,.,.,.,.,.,.,.,.,.,.,.,.,.,.",
",.,.,.,.,.,.,.,.:.h < 2 > a ` ` 4 2 i i o | y.i.y.d.-.w i g >.,.,.,.,.,.,.,.,.,.,.,.,.,.,.,.,.,.",
",.,.,.,.,.,.,.>.B H @.{ ( =.d.f.}  .8.q.E d e.y.y.y.d.&.. ;.>.,.,.,.,.,.,.,.,.,.,.,.,.,.,.,.,.,.",
",.,.,.,.,.,.,.Z l { 3.] / *.y.p.' ! 6.8.8.G | y.y.i.y.d v >.,.,.,.,.,.,.,.,.,.,.,.,.,.,.,.,.,.,.",
",.,.,.,.,.,.,.N # X.3.] / &.r.p.' ! 5.8.8.+.q -.s.t.f j :.,.,.,.,.,.,.,.,.,.,.,.,.,.,.,.,.,.,.,.",
",.,.,.,.,.,.,.;.v W 4.] / %.-.a.' ! 6.8.8.q.i $.=.e k :.,.,.,.,.,.,.,.,.,.,.,.,.,.,.,.,.,.,.,.,.",
",.,.,.,.,.,.,.>.;.8 W Y p %.w.-.f Y +.@.@.O.u # & V >.,.,.,.,.,.,.,.,.,.,.,.,.,.,.,.,.,.,.,.,.,.",
",.,.,.,.,.,.,.,.>.Z * % = S 1.n @ @ $ $ @ & z Z >.,.,.,.,.,.,.,.,.,.,.,.,.,.,.,.,.,.,.,.,.,.,.,.",
",.,.,.,.,.,.,.,.,.,.,.,.,.,.,.,.,.>.>.,.,.,.,.,.,.,.,.,.,.,.,.,.,.,.,.,.,.,.,.,.,.,.,.,.,.,.,.,."
};
