/* XPM */
static char *result[] = {
/* columns rows colors chars-per-pixel */
"48 48 148 2 ",
"   c #060409",
".  c #0A080C",
"X  c #13031B",
"o  c #100F1B",
"O  c #0D1114",
"+  c #0E1B15",
"@  c #0F1319",
"#  c #0F1E18",
"$  c #111415",
"%  c #141811",
"&  c #18151B",
"*  c #141E1E",
"=  c #0F2019",
"-  c #132016",
";  c #1F2717",
":  c #12291F",
">  c #24271E",
",  c #232C1A",
"<  c #27331F",
"1  c #170524",
"2  c #190326",
"3  c #180C24",
"4  c #1D042C",
"5  c #1D0F2D",
"6  c #191426",
"7  c #161D23",
"8  c #1F0930",
"9  c #230035",
"0  c #220A35",
"q  c #260039",
"w  c #2A013E",
"e  c #260F39",
"r  c #211433",
"t  c #201A31",
"y  c #261E3C",
"u  c #172627",
"i  c #142B22",
"p  c #182E26",
"a  c #1B2C2C",
"s  c #163225",
"d  c #163528",
"f  c #1A322A",
"g  c #1B392D",
"h  c #1E3C30",
"j  c #292E21",
"k  c #222C2F",
"l  c #323A29",
"z  c #232336",
"x  c #2A2D37",
"c  c #213C35",
"v  c #233F3A",
"b  c #1E4333",
"n  c #3C4A2D",
"m  c #234734",
"M  c #254A36",
"N  c #2F4D36",
"B  c #24443A",
"V  c #254C3D",
"C  c #304F37",
"Z  c #25523F",
"A  c #32533A",
"S  c #415130",
"D  c #4A5B38",
"F  c #4E623B",
"G  c #50623E",
"H  c #556A3F",
"J  c #2D0144",
"K  c #2D0945",
"L  c #32014B",
"P  c #2B1543",
"I  c #2A1A41",
"U  c #32124C",
"Y  c #360252",
"T  c #380355",
"R  c #380D55",
"E  c #3C005A",
"W  c #420264",
"Q  c #46016A",
"!  c #49006E",
"~  c #421064",
"^  c #4F186B",
"/  c #4C0072",
"(  c #52007B",
")  c #5C207A",
"_  c #265541",
"`  c #295543",
"'  c #295A44",
"]  c #2C5F4A",
"[  c #2E634C",
"{  c #30624F",
"}  c #306A4F",
"|  c #316551",
" . c #316B52",
".. c #347257",
"X. c #367459",
"o. c #37795C",
"O. c #397B5E",
"+. c #3D6061",
"@. c #3A7F61",
"#. c #576D40",
"$. c #596F41",
"%. c #3B8464",
"&. c #3C8768",
"*. c #3F8A69",
"=. c #69844D",
"-. c #6F8C55",
";. c #76935B",
":. c #789558",
">. c #7B995B",
",. c #418E6C",
"<. c #43936F",
"1. c #439571",
"2. c #469A74",
"3. c #499F77",
"4. c #489F78",
"5. c #4BA47D",
"6. c #4CA87F",
"7. c #8DB16A",
"8. c #91B56C",
"9. c #93B574",
"0. c #99BF72",
"q. c #9DC677",
"w. c #9EC678",
"e. c #A1C67D",
"r. c #A4CE7D",
"t. c #A7D27E",
"y. c #560082",
"u. c #590086",
"i. c #5D008B",
"p. c #630094",
"a. c #660099",
"s. c #631E97",
"d. c #6F2B8E",
"f. c #57768A",
"g. c #4EAB81",
"h. c #50AE83",
"j. c #51B186",
"k. c #53B689",
"l. c #54B98C",
"z. c #57BE90",
"x. c #58BF91",
"c. c #59C292",
"v. c #AAD680",
"b. c #AEDC84",
"n. c #B1DD86",
"m. c #B1E086",
"M. c #B5E489",
"N. c #BBEC8D",
/* pixels */
"a.a.a.a.a.a.a.a.a.a.a.a.a.a.a.a.a.a.a.a.a.a.a.a.a.a.a.a.a.a.a.a.a.a.a.a.a.a.a.a.a.a.a.a.a.a.a.a.",
"a.a.a.a.a.a.a.a.a.a.a.a.a.a.a.a.a.a.a.a.a.a.a.a.a.a.a.a.a.a.a.a.a.a.a.a.a.a.a.a.a.a.a.a.a.a.a.a.",
"a.a.a.a.a.a.a.a.a.a.a.a.a.a.a.a.a.a.a.a.a.a.a.a.a.a.a.a.a.a.a.a.a.a.a.a.a.a.a.a.a.a.a.a.a.a.a.a.",
"a.a.a.a.a.a.a.a.a.a.a.a.a.a.a.a.a.a.a.a.a.a.a.a.a.a.a.a.a.a.a.a.a.a.a.a.a.a.a.a.a.a.a.a.a.a.a.a.",
"a.a.a.a.a.a.a.a.a.a.a.a.a.a.a.a.a.a.a.a.a.a.a.a.a.a.a.a.a.a.a.a.a.a.a.a.a.a.a.a.a.a.a.a.a.a.a.a.",
"a.a.a.a.a.a.a.a.a.a.a.a.a.a.a.a.a.a.a.a.a.a.a.a.a.a.a.a.a.a.a.a.a.a.a.a.a.a.a.a.a.a.a.a.a.a.a.a.",
"a.a.a.a.a.a.a.a.a.a.a.a.a.a.a.a.a.a.a.a.a.a.a.a.a.a.a.a.a.a.a.a.a.a.a.a.a.a.a.a.a.a.a.a.a.a.a.a.",
"a.a.a.a.a.a.a.a.a.a.a.a.a.a.a.a.a.a.a.a.a.a.a.a.a.a.a.a.a.a.a.a.a.a.a.a.a.a.a.a.a.a.a.a.a.a.a.a.",
"a.a.a.a.a.a.a.a.a.a.a.a.a.a.a.a.a.a.a.a.a.a.a.a.a.a.a.a.a.a.a.a.a.a.a.a.a.a.a.a.a.a.a.a.a.a.a.a.",
"a.a.a.a.a.a.a.a.a.a.a.a.a.a.a.a.a.a.a.a.a.a.a.a.a.a.a.a.a.a.a.a.a.a.a.a.a.a.a.a.a.a.a.a.a.a.a.a.",
"a.a.a.a.a.a.a.a.a.a.a.a.a.a.a.a.a.a.a.a.a.a.a.a.a.a.a.a.a.a.a.a.a.a.a.a.a.a.a.a.a.a.a.a.a.a.a.a.",
"a.a.a.a.a.a.a.a.a.a.a.a.a.a.a.a.a.a.a.a.a.a.a.a.a.a.a.a.a.a.a.a.a.a.a.a.a.a.a.a.a.a.a.a.a.a.a.a.",
"a.a.a.a.a.a.a.a.a.a.a.a.a.a.a.a.a.a.a.a.a.a.a.a.a.a.a.a.a.p.a.a.a.a.a.a.a.a.a.a.a.a.a.a.a.a.a.a.",
"a.a.a.a.a.a.a.a.a.a.a.a.a.a.a.a.a.a.a.a.a.a.a.a.a.a.a.a.p.p.i.i.i.i.p.p.a.a.a.a.a.a.a.a.a.a.a.a.",
"a.a.a.a.a.a.a.a.a.a.a.a.a.a.a.a.a.a.a.a.a.a.a.a.a.a.i.( W U I y y P R ! u.p.a.a.a.a.a.a.a.a.a.a.",
"a.a.a.a.a.a.a.a.a.a.a.a.a.a.a.a.a.a.a.a.a.a.a.a.p.u.R t g [ @.,.&.o.` f P ! i.a.a.a.a.a.a.a.a.a.",
"a.a.a.a.a.a.a.a.a.a.a.a.a.a.a.a.a.a.a.a.a.a.a.p./ e g o.5.z.z.z.z.z.l.5.} a ~ a.a.a.a.a.a.a.a.a.",
"a.a.a.a.a.a.a.a.a.a.a.a.a.a.a.a.a.a.a.a.a.a.a.( 5 ` 3.g.l.l.k.l.l.l.l.l.l.<.+.s.a.a.a.a.a.a.a.a.",
"a.a.a.a.a.a.a.a.a.a.a.a.a.a.a.a.a.a.a.a.a.a.i.0 ` 5.5.j.l.l.l.l.l.k.l.l.l.l.x.f.( a.a.a.a.a.a.a.",
"a.a.a.a.a.a.a.a.a.a.a.a.a.a.a.a.a.a.a.a.a.p.w V 5.5.g.l.k.l.k.l.l.k.l.k.l.l.l.6.z ! a.a.a.a.a.a.",
"a.a.a.a.a.a.a.a.a.a.a.a.a.a.a.a.a.a.a.a.a.( 6 &.6.5.j.l.l.l.l.l.k.l.l.l.l.k.l.k.] w p.a.a.a.a.a.",
"a.a.a.a.a.a.a.a.a.a.a.a.a.a.a.a.a.a.a.a.a.T v 3.5.5.j.k.l.k.l.j.k.l.k.l.k.l.l.l.<.6 u.a.a.a.a.a.",
"a.a.a.a.a.a.a.a.a.a.a.a.a.a.a.a.a.a.a.a.a.9 | 5.5.6.<.%.l.j...[ { <.l.g.X.j.l.l.6.k / a.a.a.a.a.",
"a.a.a.a.a.a.a.a.a.a.a.a.a.a.a.a.a.a.a.a.p.2 O.5.5.j...[ l.5.+ k * Z c.3.m h.l.l.j.B Y a.a.a.a.a.",
"a.a.a.a.a.a.a.a.a.a.a.a.a.a.a.a.a.a.a.a.p.2 @.5.5.6.6.5.l.6.O x o Z z.k.3.k.l.l.j.Z q a.a.a.a.a.",
"a.a.a.a.a.a.a.a.a.a.a.a.a.a.a.a.a.a.a.a.p.2 o.5.5.5.j.l.l.l.} f h 2.l.l.l.k.l.l.j.B E a.a.a.a.a.",
"a.a.a.a.a.a.a.a.a.a.a.a.a.a.a.a.a.a.a.a.a.9 | 5.6.5.h.l.l.l.h.2.5.k.l.k.l.l.l.l.g.a / a.a.a.a.a.",
"a.a.a.a.a.a.a.a.a.a.a.a.a.a.a.a.a.a.a.a.a.E h 2.5.5.6.k.l.l.l.l.l.l.l.l.l.k.k.l.,.1 i.a.a.a.a.a.",
"a.a.a.a.a.a.a.a.a.a.a.a.a.a.a.a.a.a.a.a.a.y.6 %.6.5.5.g.l.l.l.l.k.l.l.l.k.l.l.l.` J a.a.a.a.a.a.",
"a.a.a.a.a.a.a.a.a.a.a.a.a.a.a.a.a.a.a.a.a.p.L c 5.6.5.6.h.l.l.k.l.l.l.k.l.l.l.<.6 ( a.a.a.a.a.a.",
"a.a.a.a.a.a.a.a.a.a.a.a.a.a.a.a.a.a.a.a.a.a.i.8 _ 5.5.5.5.j.l.l.l.k.l.l.l.l.5.i E p.a.a.a.a.a.a.",
"a.a.a.a.a.a.a.a.a.a.a.a.a.a.a.a.a.a.a.a.a.a.a.( 3 _ 5.6.5.6.g.k.l.l.l.l.z.2.s L p.a.a.a.a.a.a.a.",
"a.a.a.a.a.a.a.a.a.a.a.a.a.a.a.a.a.a.a.a.a.a.a.p.( 8 g @.5.g.6.g.l.c.c.6.} 7 Y i.a.a.a.a.a.a.a.a.",
"a.a.a.a.a.a.a.a.a.a.a.a.a.a.a.a.a.a.a.a.a.a.a.a.a.u.T o s _ X.%.O...Z = r ! p.a.a.a.a.a.a.a.a.a.",
"a.a.a.a.a.a.a.a.a.a.a.a.a.a.a.a.a.a.a.a.a.a.a.a.a.a.p.X b b i : i s b + / p.a.a.a.a.a.a.a.a.a.a.",
"a.a.a.a.a.a.a.a.a.a.a.a.a.a.a.a.a.a.a.a.a.a.a.a.a.a.W . = [ 2.<.1.4.2.@ i.a.a.a.a.a.a.a.a.a.a.a.",
"a.a.a.a.a.a.a.a.a.a.a.a.a.p.a.a.a.a.a.a.a.a.a.a.a./ X ;.>.< d 5.l.l.*.1 p.a.a.a.a.a.a.a.a.a.a.a.",
"a.a.a.a.a.a.a.a.a.a.p.( / ! ! ! ! ! ! ! Q / Q W w & -.M.N.v.H # 1.c.' J a.a.a.a.a.a.a.a.a.a.a.a.",
"a.a.a.a.a.a.a.a.p./ 9 * * $ j l l l > O a f u   G 0.M.M.M.M.M.=.# *.= ( a.a.a.a.a.a.a.a.a.a.a.a.",
"a.a.a.a.a.a.a.a./ r ' 1.@.N 7.n.n.M.:.m g.k.g.V n b.M.M.M.M.M.N.#.+ 4 a.a.a.a.a.a.a.a.a.a.a.a.a.",
"a.a.a.a.a.a.a.i.K _ 5.g.%.N 7.M.M.N.>.m g.l.l.k.i $.M.M.M.M.M.N.7.  y.a.a.a.a.a.a.a.a.a.a.a.a.a.",
"a.a.a.a.a.a.a./ z o.g.5.%.N 7.m.M.N.>.m j.l.k.z.2.+ 8.M.M.M.N.r.; E a.a.a.a.a.a.a.a.a.a.a.a.a.a.",
"a.a.a.a.a.a.a.W u %.6.g.%.C 7.b.M.N.>.m h.l.l.l.z._ S M.M.N.q., J a.a.a.a.a.a.a.a.a.a.a.a.a.a.a.",
"a.a.a.a.a.a.a.y.P } 5.g.%.C 7.t.b.N.>.m j.l.l.l.l.4.- w.N.>.% Y a.a.a.a.a.a.a.a.a.a.a.a.a.a.a.a.",
"a.a.a.a.a.a.a.p.E k &.j.&.A 8.r.t.N.>.M k.c.z.z.z.c.g F n X Q a.a.a.a.a.a.a.a.a.a.a.a.a.a.a.a.a.",
"a.a.a.a.a.a.a.a.i.L 7 V Z f >.e.9.;.D p  .X.X...[ B @ 2 T p.a.a.a.a.a.a.a.a.a.a.a.a.a.a.a.a.a.a.",
"a.a.a.a.a.a.a.a.a.p./ L q 9 ^ d.) K 9 9 9 9 9 q J E ( p.a.a.a.a.a.a.a.a.a.a.a.a.a.a.a.a.a.a.a.a.",
"a.a.a.a.a.a.a.a.a.a.a.a.a.a.a.a.a.a.a.a.a.a.a.a.a.a.a.a.a.a.a.a.a.a.a.a.a.a.a.a.a.a.a.a.a.a.a.a."
};
