/* XPM */
static char *_c22471443004c2798d01d3e4566de465ERfP3jhjL7Ln14I[] = {
/* columns rows colors chars-per-pixel */
"48 48 214 2 ",
"   c #020003",
".  c #060409",
"X  c #0A040C",
"o  c #0C090E",
"O  c #110A0F",
"+  c #1F1309",
"@  c #0D0611",
"#  c #0E0B12",
"$  c #120E15",
"%  c #140E18",
"&  c #141115",
"*  c #16131B",
"=  c #1A151C",
"-  c #1C191C",
";  c #1B1517",
":  c #22191E",
">  c #27221E",
",  c #2B251C",
"<  c #33291F",
"1  c #1B1522",
"2  c #1D1A22",
"3  c #211C23",
"4  c #231F2A",
"5  c #241A26",
"6  c #252224",
"7  c #25232B",
"8  c #2B262C",
"9  c #2B292D",
"0  c #292123",
"q  c #332C26",
"w  c #312D2D",
"e  c #302620",
"r  c #39322D",
"t  c #2A2632",
"y  c #2C2A35",
"u  c #2D2B39",
"i  c #2E273A",
"p  c #332D33",
"a  c #312D3A",
"s  c #362A34",
"d  c #2F3038",
"f  c #353234",
"g  c #3B363C",
"h  c #3C3A3D",
"j  c #3B3735",
"k  c #43372A",
"l  c #443B32",
"z  c #413B3D",
"x  c #493D36",
"c  c #43413B",
"v  c #4A423B",
"b  c #494137",
"n  c #524338",
"m  c #534B3E",
"M  c #57482E",
"N  c #65573D",
"B  c #322E40",
"V  c #3E3A41",
"C  c #3A3445",
"Z  c #413D45",
"A  c #4B4A4D",
"S  c #464446",
"D  c #544D44",
"F  c #5A4F42",
"G  c #5A5448",
"H  c #595348",
"J  c #4F4C51",
"K  c #534F51",
"L  c #565559",
"P  c #5B5858",
"I  c #625A4B",
"U  c #6F624E",
"Y  c #72674D",
"T  c #6A6355",
"R  c #776A57",
"E  c #7E725A",
"W  c #605E62",
"Q  c #636165",
"!  c #666469",
"~  c #6C696D",
"^  c #726D65",
"/  c #767269",
"(  c #716F72",
")  c #747173",
"_  c #797778",
"`  c #7C7A7C",
"'  c #7E7971",
"]  c #806E4A",
"[  c #82745B",
"{  c #8D7F59",
"}  c #817966",
"|  c #857B68",
" . c #837C77",
".. c #9B8A59",
"X. c #A28E5F",
"o. c #8F846B",
"O. c #998A6B",
"+. c #86827C",
"@. c #928979",
"#. c #9C9276",
"$. c #A18F69",
"%. c #A69267",
"&. c #A8946C",
"*. c #B69E6A",
"=. c #A49275",
"-. c #AA9D7B",
";. c #A69A76",
":. c #B4A37E",
">. c #CFB87E",
",. c #E5C77C",
"<. c #868484",
"1. c #8E8D8E",
"2. c #8B8887",
"3. c #918D87",
"4. c #99968B",
"5. c #8F8D91",
"6. c #908F91",
"7. c #959394",
"8. c #9A9795",
"9. c #9D9A9C",
"0. c #989896",
"q. c #A19E87",
"w. c #B1A68F",
"e. c #ABA593",
"r. c #ADA897",
"t. c #B8B19A",
"y. c #B5AE99",
"u. c #A29FA3",
"i. c #A5A2A5",
"p. c #ABA9A8",
"a. c #B1AEAC",
"s. c #BAB6A9",
"d. c #B0AFB2",
"f. c #B5B4B5",
"g. c #BAB7B8",
"h. c #CAB485",
"j. c #D0BD89",
"k. c #D5BE91",
"l. c #C3BB99",
"z. c #C0BBAE",
"x. c #C0BEBE",
"c. c #D1C08F",
"v. c #DFCC95",
"b. c #E3CD8C",
"n. c #E2C880",
"m. c #E2CC93",
"M. c #E1CF9E",
"N. c #EAD39D",
"B. c #E8D59C",
"V. c #DED5A8",
"C. c #CAC5B2",
"Z. c #CFCBBF",
"A. c #D2CCB9",
"S. c #E0CEA3",
"D. c #E8D6AC",
"F. c #E7D6A7",
"G. c #E9DBB9",
"H. c #E8DBB4",
"J. c #EDE2BC",
"K. c #EDE2B6",
"L. c #F1E4BC",
"P. c #C2BFC0",
"I. c #C5C3C4",
"U. c #C7C6CA",
"Y. c #CDCCCC",
"T. c #CBC9C2",
"R. c #D1CFCB",
"E. c #D9D6C8",
"W. c #D0CFD1",
"Q. c #DCDCDB",
"!. c #D5D4D6",
"~. c #E6DDC4",
"^. c #EDE3C5",
"/. c #EBE3C9",
"(. c #EDE9CC",
"). c #F3EACB",
"_. c #F3EAC4",
"`. c #EAE4D3",
"'. c #EDEAD5",
"]. c #E6E4DB",
"[. c #F1E6D1",
"{. c #F5EBD4",
"}. c #F4ECDB",
"|. c #F4E6D9",
" X c #F5F0DA",
".X c #FAF3DE",
"XX c #E4E4E4",
"oX c #ECEBEB",
"OX c #ECEAE5",
"+X c #F0EDE7",
"@X c #F6F3E5",
"#X c #FAF5E3",
"$X c #FBF6EC",
"%X c #FEFDED",
"&X c #FAF8E8",
"*X c #F4F4F3",
"=X c #FAF6F4",
"-X c #FCFBF4",
";X c #F7F8F9",
":X c #FDFBFD",
">X c #FDFDFC",
",X c #FDFFFD",
"<X c #FFFFFC",
"1X c #FFFFFD",
"2X c #FEFEFD",
"3X c #FFFDFF",
"4X c #FFFFFE",
"5X c #FFFEFF",
"6X c #FEFFFF",
"7X c white",
"8X c #FEFEFE",
"9X c #FDFDFE",
"0X c #FFFEFE",
"qX c #F7F7F8",
/* pixels */
"7X7X7X7X7X7X7X7X<X<X<X7X7X7X<X7X7X7X7X7X7X7X7X<X7X7X7X,X7X7X>X7X7X<X<X7X7X7X7X7X<X<X<X7X7X7X7X7X",
"7X7X7X7X7X7X7X7X7X7X7X7X7X,X7X7X7X7X7X7X7X7X7X>X>X7X7X<X,X,X7X:X<X7X7X,X:X7X>X>X>X7X7X7X<X<X<X7X",
"7X7X7X7X7X7X7X7X7X7X:X7X7X7X7X7X7X7X7X7X7X7X7X7X7X<X-X<X<X-X7X7X7X:X7X<X-X<X<X<X>X7X:X7X7X7X7X7X",
"7X7X7X7X7X7X7X7X7X<X7X7X7X<X<X7X7X7X7X7X7X7X7X:X7X7X7X7X^.F.K..X-X7X<X-X<X7X<X<X7X7X:X<X>X7X7X7X",
"7X7X7X7X7X7X7X7X7X,X7X,X<X<X<X7X7X7X7X7X7X7X7X7X,X>X>X7X^.,.,.b.K.#X<X>X:X:X<X<X>X:X<X>X-X>X7X7X",
"7X7X7X7X7X7X7X7X<X7X7X7X>X7X7X7X7X7X7X7X7X7X7X<X7X>X>X7X-X_.F.N.b.F.}.<X>X-X-X:X<X-X>X7X7X7X7X7X",
"7X7X7X7X7X7X7X7X<X%X-X7X7X<X7X7X7X7X7X7X7X7X7X7X7X<X>X>X:X7X<X%X{.K.H.|.-X=X=X=X-X-X>X7X$X@X7X7X",
"7X7X7X7X7X7X7X7X-XH.K.$X7X<X<X7X7X7X7X7X7X7X7X,X>X7X7X7X<X>X<X7X-X-X}.G..X-X-X=X=X=X=X-X XV.#X7X",
"7X7X7X<X7X7X>X<X-XH.,.N.#X7X<X7X7X7X7X7X7X7X7X<X7X:XXX*X,X7X:X@XG.[.$X#X{.-X-X>X=X7X7X7X$XH.D.-X",
"7X7X7X<X7X7X7X<X7X%XK.b.N.#X7X7X7X7X7X7X7X7X<X7Xa.G T S T f.7X&X^.^./.#X-X@X{.).$XT.9.x.7X).F.#X",
"<X7X7X7X<X7X7X<X).H.&XL.b.H.=X7X7X7X7X7X7X>X7XY.- H R e [ T *X<X-X-X@X@X.XF.m.j.D.D o $ 1.7XG.}.",
"<X<X7X>X7X7X:X<X(.m.D.%X_.M. X7X7X7X7X7X7X>X7XQ 2 i 2 k j.N s.7X=X-X-X-XD.N.*.] -.r Z p 3 OX{.$X",
"<X>X7X7X7X<X<X>X7X#XJ.`.7X(.^.<X7X7X7X>X>X7X*X7 t 5 e I m.$.f.7X=X%X=X|.F...O.R f h Z h 2 R.&X&X",
">X7XqX~ 8.7X7X7X7X7X7X7X:X>X(.-X7X7X7X7X>X7Xd.# a 6 w G >.%._ 7X=X-X-X'.F.*.k j h h g Z 3 g.7XqX",
"7X*Xg @ 3 s.OX7.+.+._ ` -X7X+X-X7X7X7X7X7X7XP * a y 6 q h.%.P 7X=X=X=X-X~.O., Z Z h g p 2 S oX7X",
"7XOX7 a 8 j / ^ XX>XI.1.3.%X-X7X7X7X7X>X7XU.# t u u t & %.*.G 7X-X=X=X7X .O Z V g g w 4.K # ) 7X",
",X%X4.> B 5 P 7X7X7X7X7Xz.T.7X>X7X7X7X>X7X` # d u 7 0 j | k.@.7X-X-X=X7X7.: Z Z h g g ^ Z a 7 XX",
">XC.'.' 3 C 1 4.7X>X>X:X@Xt.<X7X7X7X7X>X7Xh 2 y u 1 p u l h.R oX7X-X-X-X7X9.: 0 9 w 3 % 7 & f *X",
">X<X*Xe.0 6 . ) 7X;X>X7XC.C.7X>X7X7X<X7XoXu 7 u y t t y n m.R Z.7X=X-X=X7Xp.$ 3 - - ~ J S A i.7X",
">X7XZ.].<.f <.>X7X>X7X7Xy.@X7X7X7X7X>X7Xd.# u i y y d 4 b %.{ p.7X>X<X=X7X_ & 5 - 2 XX7XqX7X7X>X",
"-X:X7X7X;X>X7X7X<X>X7Xe.s.<X<X7X7X7X>X7X<.1 u i y y 5 r [ M R ' 7X>X7X;X:X .< w o Z 7X>X7X>X>X7X",
"7X7X>X>X7X7X;X<X;X<XT.w.7X,X<X<X7X>X7XXX7 7 u y i 5 5 r F F n b OX7X>X<XqXD | 8 @ ! 7X>X<X>X7X7X",
"7X7X<X<X7X>X<X>X7XU.' %X7X:X7X7X7X>X>Xf.# d u u 7 & = = & b =.+ i.7X>X:Xp.e x 1 X g.7X:X<X7X7X<X",
"7X7X7X<X7X7X>X7XQ.Y '.<X:X<X<X7X<X>X7X1.* u u u p - = 1 5 : Y =.x Q.*Xa.r I 3 % 8 OX7X,X7X7X7X7X",
"7X7X7X7X7X7X>X7X+.E.<X-X7X7X7X7X7X>X7XA 2 d i 7 T j X 1 1 3 q [ -.R U { ;.x 3 @ Q 7X>X7X7X7X7X7X",
"7X7X7X7X7X>X,XZ.@.7X>X<X<X7X7X7X>X7XXXy t u u 9 [ } <.* * 1 = O R $.:.;.k = = . P.7X-X7X7X7X7X7X",
"7X7X7X7X7X:X,Xr.e.7X>X7X7X,X7X7XqX7X_ # u y u y &.w.7X` . 2 3 1 = l m = 1 1 . 5.7X,X<X7X7X7X7X7X",
"7X7X7X7X,X:X7X7. .7XqX7X:X,X>X;X7XW.2 7 u u y z $.A.7XOX8 % 1 - 3 3 = % @ = 5.:X:X7X7X7X7X7X7X7X",
"7X7X7X7X7X>X7Xf.> ].7X:X,X7X7X7XI.6 & y y u t D -.].7X7X! % 1 = % @ X 8 J Q.7X>X,X7X7X7X7X7X7X7X",
"7X7X7X7X7X,X7X:XA 9 I.7X,XY.i.f ; 9 2 y y u 7 R t.<X>X7XQ = t 3 w / P.XX7X:X>X7X7X7X7X7X7X7X7X7X",
"7X7X7X7X,X7X>X,XU.3   V g   o W !.S 2 y u y p [ A.7X;X7Xi.2 u 7 R l.7X7X>X>X7X,X7X:X7X7X7X7X7X7X",
"7X7X7X7X7X7X7X,X7XoXR.U.U.W.Q.,XQ.# y y i 8 h #.+X7X-X7XU.; u y j o.`.7X;X>X7X7X7X7X7X7X7X7X7X7X",
"7X7X7X7X7X7X7X7X>X<X<X7X-X%X$X7Xi.* y y u 7 v r.<X7X-X7XXXy t u u b C.7X,X7X:X7X7X7X7X7X7X7X7X7X",
"7X7X7X7X7X7X7X<X`.M.v.S.H.(.*X7XW * u u u y m A.7X>X>X>X,XL 1 u y f K ) / XX7X,X7X7X7X7X7X7X7X7X",
"7X7X7X7X7X7X7X7X#XJ.L.{.$X>X<X;XV 4 y y u t T E.7X,X>X>X7X` - d i i 6 b v ; Q.7X,X7X7X7X7X7X7X7X",
"7X7X7X7X7X7X7X7X7X7X7X7X7X7X7X9.% u y y y y | >X7X,X,X-X7XU.* d y y f j j 7.*X7X,X7X7X7X7X7X7X7X",
"7X7X7X7X7X7X7X,X>X<X7X>X7Xg.W 1 t y u y u 7 2.7X:X,X7X>X7XY.# i u 8 E N D 7X7X7X7X7X7X7X7X7X7X7X",
"7X7X7X7X7X7X7X7X>X7X>X7XOX$ 1 u y y u y g 6 a.7X>X7X:X7X,X7X7.& u 0 Y S./ XX7X<X7X7X7X7X7X7X7X7X",
"7X7X7X7X7X7X7X7X7X7X7X,X7XW * y u u y 7 $ f *X:X>X<X7X,X7X:X7XW 3 7 ; l b *X7X7X7X7X7X7X7X7X7X7X",
"7X7X7X7X7X7X7X7X7X7X7X>X7X! * d 7 t 7 7 1.u.7X>X7X7X7X7X7X>X7Xf.. 9 S ! 7.7X<X7X7X7X7X7X7X7X7X7X",
"7X7X7X7X7X7X7X7X7X7X,X7XXX6 2 $ 2 t 2 f.7X7X<X7X7X7X7X7X7X:X7Xx.& I.7X7X7X7X7X7X7X7X7X7X7X7X7X7X",
"7X7X7X7X7X7X7X7X7X7X<X7XoX& V L $ 2 L 7X;X,X7X7X7X7X7X7X7X7X7X*XXX7X>X>X>X:X7X7X7X7X7X7X7X7X7X7X",
"7X7X7X7X7X7X7X7X7X7X7X7X7XI.oX7X(   K 7X>X7X7X7X7X7X7X7X7X7X7X<X7X,X7X7X7X7X7X7X7X7X7X7X7X7X7X7X",
"7X7X7X7X7X7X7X7X7X7X7X7X7X7X7X7X7XY.Q.7X,X7X7X7X7X7X7X7X7X7X7X7X7X7X7X7X7X7X7X7X7X7X7X7X7X7X7X7X",
"7X7X7X7X7X7X7X7X7X7X7X7X7X,X7X7X,X7X7X:X7X7X7X7X7X7X7X7X7X7X7X7X7X7X7X7X7X7X7X7X7X7X7X7X7X7X7X7X",
"7X7X7X7X7X7X7X7X7X7X7X7X7X7X7X7X<X>X>X7X7X7X7X7X7X7X7X7X7X7X7X7X7X7X7X7X7X7X7X7X7X7X7X7X7X7X7X7X",
"7X7X7X7X7X7X7X7X7X7X7X7X7X7X7X7X7X7X7X7X7X7X7X7X7X7X7X7X7X7X7X7X7X7X7X7X7X7X7X7X7X7X7X7X7X7X7X7X",
"7X7X7X7X7X7X7X7X7X7X7X7X7X7X7X7X7X7X7X7X7X7X7X7X7X7X7X7X7X7X7X7X7X7X7X7X7X7X7X7X7X7X7X7X7X7X7X7X"
};
