/* XPM */
static char *_61ec9fd7e2649d6ca43d2aa5d178cf6MFTK7AoXYrK7ixn8[] = {
/* columns rows colors chars-per-pixel */
"48 48 142 2 ",
"   c #030102",
".  c #090604",
"X  c #0D0A01",
"o  c #07000A",
"O  c #0A010D",
"+  c #130C03",
"@  c #180F07",
"#  c #1A0F0A",
"$  c #141100",
"%  c #1B1303",
"&  c #1F1B00",
"*  c #1A110B",
"=  c #0D0013",
"-  c #110313",
";  c #13011B",
":  c #251E01",
">  c #2C1800",
",  c #271409",
"<  c #24190B",
"1  c #2A1F09",
"2  c #221313",
"3  c #26121A",
"4  c #2C151E",
"5  c #321A1F",
"6  c #242000",
"7  c #2B2402",
"8  c #332602",
"9  c #342C03",
"0  c #32260B",
"q  c #362808",
"w  c #392A0C",
"e  c #3B3204",
"r  c #392416",
"t  c #170022",
"y  c #190125",
"u  c #1C002A",
"i  c #250C23",
"p  c #2B0C2C",
"a  c #2D1323",
"s  c #220033",
"d  c #290633",
"f  c #260039",
"g  c #29013D",
"h  c #463B03",
"j  c #46360B",
"k  c #4C4202",
"l  c #524501",
"z  c #554904",
"x  c #5B4B03",
"c  c #6A4F04",
"v  c #615401",
"b  c #6D5602",
"n  c #655A00",
"m  c #6C5D01",
"M  c #725604",
"N  c #745904",
"B  c #785B04",
"V  c #6E6000",
"C  c #746500",
"Z  c #7B6A01",
"A  c #2D0043",
"S  c #300343",
"D  c #32004B",
"F  c #360052",
"G  c #390055",
"H  c #3D005C",
"J  c #430064",
"K  c #47006A",
"L  c #49006E",
"P  c #4C0072",
"I  c #53007C",
"U  c #814D01",
"Y  c #875101",
"T  c #985B01",
"R  c #8C6D04",
"E  c #936E05",
"W  c #847200",
"Q  c #8C7A00",
"!  c #917E00",
"~  c #A37C06",
"^  c #F37735",
"/  c #FC7D33",
"(  c #EB305A",
")  c #958100",
"_  c #998600",
"`  c #9E8A00",
"'  c #A28D00",
"]  c #A69000",
"[  c #AB9600",
"{  c #AD9900",
"}  c #B49703",
"|  c #B39B00",
" . c #B6A000",
".. c #BAA100",
"X. c #BDA800",
"o. c #C49407",
"O. c #C69E03",
"+. c #E48A01",
"@. c #EC8C01",
"#. c #C0AB00",
"$. c #C8AE00",
"%. c #D4A107",
"&. c #DCA507",
"*. c #CEB400",
"=. c #D2B501",
"-. c #D4BA00",
";. c #DBBF00",
":. c #E8AF08",
">. c #E1BC03",
",. c #EBB807",
"<. c #ECB408",
"1. c #FCA41E",
"2. c #F9AE19",
"3. c #FDBE11",
"4. c #F5822F",
"5. c #D7C000",
"6. c #DCC200",
"7. c #E2C301",
"8. c #E6CA00",
"9. c #ECCD01",
"0. c #FBC406",
"q. c #F7CD06",
"w. c #FDCD07",
"e. c #FCC40E",
"r. c #FFC90A",
"t. c #EED400",
"y. c #F3D400",
"u. c #FED304",
"i. c #F5D900",
"p. c #FFDC00",
"a. c #FFE200",
"s. c #560082",
"d. c #5A0087",
"f. c #5C008B",
"g. c #5E008D",
"h. c #5E008E",
"j. c #600090",
"k. c #610092",
"l. c #630095",
"z. c #640096",
"x. c #650098",
"c. c #660099",
/* pixels */
"c.c.c.c.c.c.c.c.c.c.c.c.c.c.c.c.c.c.c.c.c.c.c.c.c.c.c.c.c.c.c.c.c.c.c.c.c.c.c.c.c.c.c.c.c.c.c.c.",
"c.c.c.c.c.c.c.c.c.c.c.c.c.c.c.c.c.c.c.c.c.c.c.c.c.c.c.c.c.c.c.c.c.c.c.c.c.c.c.c.c.c.c.c.c.c.c.c.",
"c.c.c.c.c.c.c.c.c.c.c.c.c.c.c.c.c.c.c.c.c.c.c.c.c.c.c.c.c.c.c.c.c.c.c.c.c.c.c.c.c.c.c.c.c.c.c.c.",
"c.c.c.c.c.c.c.c.c.c.c.c.c.c.c.c.c.c.c.c.c.c.c.c.c.c.c.c.c.c.c.c.c.c.c.c.c.c.c.c.c.c.c.c.c.c.c.c.",
"c.c.c.c.c.c.c.c.c.c.c.c.c.c.c.c.c.c.c.c.c.c.c.c.c.c.c.c.c.c.c.c.c.c.c.c.c.c.c.c.c.c.c.c.c.c.c.c.",
"c.c.c.c.c.c.c.c.c.c.c.c.c.c.c.c.c.c.c.c.c.c.c.c.c.c.c.c.c.c.c.c.c.c.c.c.c.c.c.c.c.c.c.c.c.c.c.c.",
"c.c.c.c.c.c.c.c.c.c.c.c.c.c.c.c.c.c.c.c.c.g.K j.c.c.c.c.c.c.c.c.c.c.c.c.c.c.c.c.c.c.c.c.c.c.c.c.",
"c.c.c.c.c.c.c.c.c.c.c.c.c.c.c.c.c.c.c.c.j.P u H L P z.c.c.c.c.c.c.c.c.c.c.c.c.c.c.c.c.c.c.c.c.c.",
"c.c.c.c.c.c.c.c.c.c.c.c.c.c.c.c.c.c.c.c.H t   o = f z.c.c.c.c.c.c.c.c.c.c.c.c.c.c.c.c.c.c.c.c.c.",
"c.c.c.c.c.c.c.c.c.c.c.c.c.c.c.c.c.c.j.s.A =       t F J I z.c.c.c.c.c.c.c.c.c.c.c.c.c.c.c.c.c.c.",
"c.c.c.c.c.c.c.c.c.c.c.c.c.c.c.c.d.H g t * e k k k h w 2 ; s H s.c.c.c.c.c.c.c.c.c.c.c.c.c.c.c.c.",
"c.c.c.c.c.c.c.c.c.c.c.c.c.c.j.H u 2 z Q X.*.5.6.6.5.*...) z 2 y H z.c.c.c.c.c.c.c.c.c.c.c.c.c.c.",
"c.c.c.c.c.c.c.c.c.c.c.c.c.d.g 2 v { 6.t.p.p.p.p.p.p.p.p.y.6.} x = A g.c.c.c.c.c.c.c.c.c.c.c.c.c.",
"c.c.c.c.c.c.c.c.c.c.c.c.s.A w _ 6.p.a.p.p.p.p.p.p.p.p.p.p.p.u.6.R # s g.c.c.c.c.c.c.c.c.c.c.c.c.",
"c.c.c.c.c.c.c.c.c.c.c.s.A 0  .t.p.p.p.p.p.p.p.p.p.p.p.p.p.p.p.p.9.~ % g z.c.c.c.c.c.c.c.c.c.c.c.",
"c.c.c.c.c.c.c.c.c.c.g.D 0 ] p.p.p.p.p.p.p.p.p.p.p.p.p.p.p.p.p.p.p.u.~ . F c.c.c.c.c.c.c.c.c.c.c.",
"c.c.c.c.c.c.c.c.c.c.J 3 W t.p.p.p.p.p.p.p.p.p.p.p.p.p.p.p.p.p.p.a.a.y.c = s.c.c.c.c.c.c.c.c.c.c.",
"c.c.c.c.c.c.c.c.c.d.g l -.p.p.p.p.p.p.p.a.a.i.a.p.p.p.p.p.p.p.i.` W =.:.% A c.c.c.c.c.c.c.c.c.c.",
"c.c.c.c.c.c.c.c.c.K 4 ) i.p.p.p.p.p.p.p.8.V h Q y.p.a.a.a.a.a.Q $ 6 7 ,.N = g.c.c.c.c.c.c.c.c.c.",
"c.c.c.c.c.c.c.c.j.F j #.a.p.p.p.p.p.p.a.Z 6 k & | i.*.Q W [ p.k v *.+ O.%.. A G P c.c.c.c.c.c.c.",
"c.c.c.c.c.c.c.c.g.A v 6.a.p.p.p.p.p.p.a.Z W 6.x | a.Z $ 9 V i.-.7.p.$.y.0.8 + , = F z.c.c.c.c.c.",
"c.c.c.c.c.c.c.c.I d C y.p.p.p.p.p.p.p.p.i.i.p.i.i.a.] X V 8.p.a.a.p.r.4.1.b > +.U O d.c.c.c.c.c.",
"c.c.c.c.c.c.c.c.I p W i.p.a.a.a.p.p.p.p.e.u.p.p.p.p.y.m 9 ;.a.p.p.a.2.( / ~ + @.Y = g.c.c.c.c.c.",
"c.c.c.c.c.c.c.z.I p W u.p.-.] -.i.p.a.2.( ^ u.p.p.p.p.i.y.p.p.p.p.p.p.w.w.o.X T % S c.c.c.c.c.c.",
"c.c.c.c.c.c.c.c.I p W i. .e $ & _ y.p.u.1.3.p.p.p.p.p.p.p.p.p.p.p.p.p.p.p.&.X + y f.c.c.c.c.c.c.",
"c.c.c.c.c.c.c.c.I p Q q.C k X.n 7 { i.p.p.p.p.p.p.p.p.p.p.p.p.p.p.p.p.p.u.:.+ u d.z.c.c.c.c.c.c.",
"c.c.c.c.c.c.c.c.P p ! 8.n v t.8.k C 8.p.p.p.p.p.p.p.p.p.p.p.p.p.p.p.p.p.u.<.% J z.c.c.c.c.c.c.c.",
"c.c.c.c.c.c.c.c.P a ! t.C l 9.a.9.9.u.p.p.p.p.p.p.p.p.p.p.p.p.p.p.p.p.p.u.,.# H c.c.c.c.c.c.c.c.",
"c.c.c.c.c.c.c.c.L 5 ` p.$.| i.p.p.p.p.p.p.p.p.p.p.p.p.p.p.p.p.p.p.p.p.p.u.:.@ J c.c.c.c.c.c.c.c.",
"c.c.c.c.c.c.c.c.J r [ a.p.a.p.p.p.p.p.p.p.p.p.p.p.p.p.p.p.p.p.p.p.p.p.p.u.&.. P c.c.c.c.c.c.c.c.",
"c.c.c.c.c.c.c.z.G j X.a.p.p.p.p.p.p.p.p.p.p.p.p.p.p.p.p.p.p.p.p.p.p.p.p.u.o.o I c.c.c.c.c.c.c.c.",
"c.c.c.c.c.c.c.j.g x 5.p.p.p.p.p.p.p.p.p.p.p.p.p.p.p.p.p.p.p.p.p.p.p.p.p.w.E - j.c.c.c.c.c.c.c.c.",
"c.c.c.c.c.c.c.s.i W i.p.p.p.p.p.p.p.p.p.p.p.p.p.p.p.p.p.p.p.p.p.p.p.p.p.r.l s c.c.c.c.c.c.c.c.c.",
"c.c.c.c.c.c.z.J j X.a.p.p.p.p.p.p.p.p.p.p.p.p.p.p.p.p.p.p.p.p.p.p.p.p.u.:.+ H z.c.c.c.c.c.c.c.c.",
"c.c.c.c.c.c.s.d W y.a.p.p.p.p.p.p.p.p.p.p.p.p.p.p.p.p.p.p.p.p.p.p.p.p.w.E o d.c.c.c.c.c.c.c.c.c.",
"c.c.c.c.c.c.s.a [ a.p.p.p.p.p.p.p.p.p.p.p.p.p.p.p.p.p.p.p.p.p.p.p.p.p.,.: g c.c.c.c.c.c.c.c.c.c.",
"c.c.c.c.c.c.s.a ] a.p.p.p.p.p.p.p.p.p.p.p.p.p.p.p.p.p.p.p.p.p.p.p.p.q.M O s.c.c.c.c.c.c.c.c.c.c.",
"c.c.c.c.c.c.d.A C 9.a.p.p.p.p.p.p.p.p.p.p.p.p.p.p.p.p.p.p.p.p.p.p.u.~ . H c.c.c.c.c.c.c.c.c.c.c.",
"c.c.c.c.c.c.z.P 0 ' i.p.p.p.p.p.p.p.p.p.p.p.p.p.p.p.p.p.p.p.p.p.y.~ + A z.c.c.c.c.c.c.c.c.c.c.c.",
"c.c.c.c.c.c.c.j.g 0 ` 9.p.p.p.p.p.p.p.p.p.p.p.p.p.p.p.p.p.p.y.>.N O A z.c.c.c.c.c.c.c.c.c.c.c.c.",
"c.c.c.c.c.c.c.c.I g < Z *.t.p.p.a.p.p.a.p.p.p.p.p.p.p.p.i.7._ w = H z.c.c.c.c.c.c.c.c.c.c.c.c.c.",
"c.c.c.c.c.c.c.c.c.d.F ; 7 Z $.8.t.t.i.i.p.i.i.i.t.t.5.} Z q = f I c.c.c.c.c.c.c.c.c.c.c.c.c.c.c.",
"c.c.c.c.c.c.c.c.c.c.z.I A t * e v Z ) _ ] _ ) W V k 7 . = A P c.c.c.c.c.c.c.c.c.c.c.c.c.c.c.c.c.",
"c.c.c.c.c.c.c.c.c.c.c.c.z.f.J A s y ;   O = ; ; u A F t y s.d.g.c.c.c.c.c.c.c.c.c.c.c.c.c.c.c.c.",
"c.c.c.c.c.c.c.c.c.c.c.c.c.c.c.c.c.k.I ; F s.f.k.z.c.c.J = = ; f z.c.c.c.c.c.c.c.c.c.c.c.c.c.c.c.",
"c.c.c.c.c.c.c.c.c.c.c.c.c.c.c.c.c.c.d.y f J I z.z.z.z.z.J J H L c.c.c.c.c.c.c.c.c.c.c.c.c.c.c.c.",
"c.c.c.c.c.c.c.c.c.c.c.c.c.c.c.c.c.c.j.F y ; s d.c.c.c.c.c.c.c.c.c.c.c.c.c.c.c.c.c.c.c.c.c.c.c.c.",
"c.c.c.c.c.c.c.c.c.c.c.c.c.c.c.c.z.c.z.z.f.L H k.c.c.c.c.c.c.c.c.c.c.c.c.c.c.c.c.c.c.c.c.c.c.c.c."
};
