/* XPM */
static char *d6319762e1f74f2df69c4139e2d73070LN8Hh5JvM6ZFbpU8[] = {
/* columns rows colors chars-per-pixel */
"48 48 88 1 ",
"  c None",
". c #000000",
"X c #0C0504",
"o c #100705",
"O c #140907",
"+ c #160A08",
"@ c #1C0D0A",
"# c #220E0B",
"$ c #25110E",
"% c #32110F",
"& c #2E1611",
"* c #351411",
"= c #3A1512",
"- c #301812",
"; c #3D1C16",
": c #411814",
"> c #481B17",
", c #461F19",
"< c #4F1E19",
"1 c #541C19",
"2 c #5B1E1B",
"3 c #462019",
"4 c #4B241C",
"5 c #54251E",
"6 c #5A221C",
"7 c #56281F",
"8 c #61251F",
"9 c #572A21",
"0 c #592B22",
"q c #672720",
"w c #622D24",
"e c #6D2B23",
"r c #732622",
"t c #752C25",
"y c #7B2E27",
"u c #643025",
"i c #6B3026",
"p c #683328",
"a c #71352A",
"s c #7D3229",
"d c #773A2D",
"f c #7E382D",
"g c #823129",
"h c #8D352D",
"j c #81392D",
"k c #90372D",
"l c #97392F",
"z c #833E31",
"x c #973930",
"c c #9B3B31",
"v c #A53F34",
"b c #874133",
"n c #884233",
"m c #904033",
"M c #9A4B3A",
"N c #A94035",
"B c #A4493A",
"V c #AC4C3D",
"C c #B14338",
"Z c #B9463A",
"A c #BD483C",
"S c #C34A3E",
"D c #C84C3F",
"F c #AD5442",
"G c #B05543",
"H c #BC5342",
"J c #B75945",
"K c #BB5946",
"L c #CD4E41",
"P c #C55746",
"I c #CF5042",
"U c #C45946",
"Y c #C85947",
"T c #C55E4A",
"R c #D35D4A",
"E c #C6604B",
"W c #CA624C",
"Q c #D2654F",
"! c #DD624E",
"~ c #D46750",
"^ c #DA6650",
"/ c #DF6C54",
"( c #E1644F",
") c #E16550",
"_ c #E46A54",
"` c #E86E56",
"' c #EC7259",
"] c #F1755B",
/* pixels */
"..........X >......................: ...........",
".3jjjznnnpol,$sjjjbnbbbbbbbbbbbbnb&>cowjjjznnn5.",
".j)((_']]KOk:,(((_']]'''']']]']]]'4=koV)((`]]]n.",
".j)(!_'''JXk:,!!!!''''''''''''''''4:koV(!(_'''n.",
"&V!!!_'''JOk;,!!!(''''''''''''''''4;kXV(!!_'']n.",
" (!!!)'''JOh=,!!!!`''`'''''''''''`4;kOV(!!_'''n.",
"wP(!R_'']Jok:,!!!!''''`'`''''''''`4:kOV(!!_'']n.",
".j(!(_'''Jok:3!!!_'''''''''`''''''4:kXV(!!_'''n.",
".j))!_'']KOk;,!!))''''''''''''''''4;kOV((!`'']n.",
".iPHHUTWWMXk=;AKHKTEWWWEEEEEEWEWEE;:kXmHAKTEEWd.",
".oOO+++++O#CeXO+OO++++++O+++++++++XeC#X+++++++O.",
" rrrrryyyyvDAhyyyyyyyyggsssssyyyyyhADvyyyyyyyyg ",
"==%%%*****%%%***==**=*6SS6=********%%%********==",
".*55559999999997990004XggX35559977990999900000-.",
".j(!(_'''''''''''''''~@tt@P!!!`'''''''''''''']n.",
".j(!!_'''''''''''''''~@tt@P(!!`'''''''''''''''n.",
".j(!!_''`'''`''''''''~@tt@P(R(`'''`''''''`''''n.",
".f(!!^'''''''''''''`'~@tt@P()(`'''''''''''''']n.",
".j(!!_''''`''''''''''~@tt@U)!!_'''''''''`''`''n.",
".j(!!_''''''''''''`''~@tt@U^!!`''''''`''''''']n.",
".j(R!_'''''''''''''''~@tt@P)!)`'''''''''''''']n.",
".dRRRQ_//////////////E+tt+HRRR^//////////////_z.",
".+*-&%-&&&&&&&&&&&---&XhhX#-&&---&&&&-&&&-----@.",
" 211<66666656666666666sLDg666666629666665656660 ",
" 211116676kDA866666666552666sIAq22eZLh62222966w ",
".@&%&&---$+N6O&&&&&&&&&&&&&&u_T;*&X9vo#*&&&--&@.",
".dRRRQ_/_VXk:3RRR!/////////_'''_//,:koBRRR^//_z.",
".j((!_'''JOk:3!!!!''''''''''''''''4;koV)!!`'']n.",
".j(!!)'''JOk=3!!!^'''''''''''''''`4:koF!!!_'']b.",
".j(!R`'']JOh;3!!!!'''/'''''''''''`4;kXC)!!_'']b.",
".j(!!_'''Jok:,!!!!'''''`''''''''''4;koC!!!_'''n.",
".j)!!)'''Jok:3!!!!''''''''`'''`'''4:koF^!^_'']n.",
".j(!)_'''Jok:,R)R)]''''''''''''''`4;koV(!!_'''n.",
".j(!R/'']Jok:,R(!^''''''`'''''''''4=koV(!!_'']n.",
".&5596009,Xc<+69950099999999900000@<cX;5569990-.",
"==%%%**=*=eLv>*******=%**%**=*=**%>NLe=*****=*;=",
" rrrrryyysggggyysyyyysxLDlyyyyyyyysgggsyyyyyyyg ",
".oOOO++++++++++O+++++oOccoO+++++++++++++++++++O.",
".iUHHUTTTEEEEETTWWWWEG+tt+BHHHTWEEEEEEEWEEWEEWa.",
".j)()_''''''']'''''''~@tt@Y(!(`'''''''''''''']n.",
".j)!!_'''''''`'''''''Q@tt@P(((`'''''''''''''''n.",
".j!!!)'''''''''''''''Q@tt@P!(R`'''''''''''''''n.",
".z)!!)'''''''''''''''Q@tt@P(R(`''`'`''''''''']n.",
".j!!^_''''''''`''''''Q@ar@P(((`'''''''''''''''n.",
".j_R!)'''''''''''''''~@tt@P)R(`'''''''''''''']n.",
".j))!_']']]]'']']'']]~@tt@P)(_']'']'''']']']']n.",
".3hjF_~nbbbbbbbbnnnnndOyyotzjjnnbbbbnnnnnnnnnn4.",
"....- u................  ......................."
};
