/* XPM */
static char *result[] = {
/* columns rows colors chars-per-pixel */
"48 48 238 2 ",
"   c #0D0605",
".  c #0F0A0A",
"X  c #0F0906",
"o  c #130A06",
"O  c #1B0D07",
"+  c #140C0A",
"@  c #190F0A",
"#  c #110603",
"$  c #1B110B",
"%  c #17100E",
"&  c #1C1413",
"*  c #161316",
"=  c #210F0B",
"-  c #23150D",
";  c #28150D",
":  c #26190E",
">  c #2D1B0E",
",  c #221612",
"<  c #241913",
"1  c #2B1C12",
"2  c #261B19",
"3  c #2A1D1A",
"4  c #2A1712",
"5  c #321B13",
"6  c #3B1D15",
"7  c #361B19",
"8  c #2D211B",
"9  c #332215",
"0  c #35241B",
"q  c #3B241A",
"w  c #3C291B",
"e  c #3A2416",
"r  c #271E22",
"t  c #1E2529",
"y  c #382924",
"u  c #3D312D",
"i  c #37322D",
"p  c #292E32",
"a  c #2F3033",
"s  c #431F1A",
"d  c #44231C",
"f  c #4A251D",
"g  c #432E1C",
"h  c #45261A",
"j  c #7A231F",
"k  c #461F20",
"l  c #432C22",
"z  c #4C2B23",
"x  c #472B27",
"c  c #552926",
"v  c #453123",
"b  c #4B3323",
"n  c #43342C",
"m  c #4D3B2B",
"M  c #4B352A",
"N  c #5B3326",
"B  c #54352D",
"V  c #5C342B",
"C  c #533C2C",
"Z  c #5A3C2E",
"A  c #543724",
"S  c #453B35",
"D  c #4C3C32",
"F  c #4A3734",
"G  c #583B36",
"H  c #62352D",
"J  c #67392E",
"K  c #633732",
"L  c #6B3D34",
"P  c #673B38",
"I  c #6F3432",
"U  c #5C412B",
"Y  c #57412D",
"T  c #4D4136",
"R  c #554334",
"E  c #5C4433",
"W  c #5A4B3D",
"Q  c #58483A",
"!  c #644435",
"~  c #654C35",
"^  c #654339",
"/  c #644C3A",
"(  c #6B4C3C",
")  c #6B4437",
"_  c #74443A",
"`  c #734B3C",
"'  c #7B4A3D",
"]  c #794737",
"[  c #66503C",
"{  c #6B523B",
"}  c #71553A",
"|  c #7A523D",
" . c #62452C",
".. c #2D3644",
"X. c #563E41",
"o. c #6C3948",
"O. c #584A45",
"+. c #4B4B53",
"@. c #6B4441",
"#. c #6C4B44",
"$. c #664846",
"%. c #724B45",
"&. c #7B4B44",
"*. c #764947",
"=. c #635344",
"-. c #695548",
";. c #755443",
":. c #7D5443",
">. c #7D5846",
",. c #79574C",
"<. c #675A53",
"1. c #7B5654",
"2. c #785A57",
"3. c #744753",
"4. c #7D6C5C",
"5. c #766258",
"6. c #716150",
"7. c #796A66",
"8. c #706975",
"9. c #833531",
"0. c #814C3D",
"q. c #86553C",
"w. c #923F41",
"e. c #824C43",
"r. c #854C46",
"t. c #835344",
"y. c #8A5345",
"u. c #85544B",
"i. c #825D4A",
"p. c #8C5A4B",
"a. c #885847",
"s. c #925A4D",
"d. c #965548",
"f. c #835A53",
"g. c #8C5C54",
"h. c #865856",
"j. c #935B52",
"k. c #955853",
"l. c #894C4C",
"z. c #A35950",
"x. c #8C624D",
"c. c #85624A",
"v. c #95624C",
"b. c #8C6453",
"n. c #86635C",
"m. c #8A6656",
"M. c #946352",
"N. c #9B6255",
"B. c #946956",
"V. c #996B55",
"C. c #9A655C",
"Z. c #99685A",
"A. c #9C715E",
"S. c #A56B5C",
"D. c #A9685A",
"F. c #A4735D",
"G. c #A87455",
"H. c #AD7057",
"J. c #896965",
"K. c #9D6A62",
"L. c #946867",
"P. c #887368",
"I. c #93756C",
"U. c #997667",
"Y. c #897A74",
"T. c #957C75",
"R. c #9C7874",
"E. c #A36C63",
"W. c #AC7463",
"Q. c #A57963",
"!. c #AB7B65",
"~. c #A4746C",
"^. c #A77767",
"/. c #B37C65",
"(. c #B37D6A",
"). c #B77968",
"_. c #A47D7C",
"`. c #A97A74",
"'. c #B37B72",
"]. c #B57D7A",
"[. c #97847C",
"{. c #AC8169",
"}. c #B4826B",
"|. c #BB846C",
" X c #BA846B",
".X c #A8857B",
"XX c #B38272",
"oX c #BC8473",
"OX c #BE8B72",
"+X c #B6857A",
"@X c #BB857A",
"#X c #BD897D",
"$X c #B7887B",
"%X c #C0846D",
"&X c #C28B75",
"*X c #C2877A",
"=X c #C48B7A",
"-X c #C58875",
";X c #C5917A",
":X c #CA927D",
">X c #D0917F",
",X c #A97D80",
"<X c #9A8983",
"1X c #AC8A84",
"2X c #AA8986",
"3X c #B28984",
"4X c #BC8C83",
"5X c #B58B89",
"6X c #B5938C",
"7X c #B69389",
"8X c #BB9C95",
"9X c #B89795",
"0X c #A99294",
"qX c #BDA29C",
"wX c #B29DA3",
"eX c #BEA3A7",
"rX c #ACA3A4",
"tX c #C28D84",
"yX c #C59184",
"uX c #C79488",
"iX c #C49A97",
"pX c #D19A88",
"aX c #CAA29A",
"sX c #C3A49C",
"dX c #D4A294",
"fX c #C19DA0",
"gX c #C8A9A6",
"hX c #C7AAB1",
"jX c #CBB2B3",
"kX c #CDB7BB",
"lX c #D2BCBE",
"zX c #D1B5B4",
"xX c #D0B1AC",
"cX c #D0BCC0",
"vX c #D9C3C7",
"bX c #D7CBD2",
"nX c #E0D2D9",
"mX c None",
/* pixels */
"mXmXmXmXmXmXmXmXmXmXmXmXmXmXmXmXmXmX=.Q T R R E [ { Q Q S i mXmXmXmXmXmXmXmXmXmXmXmXmXmXmXmXmXmX",
"mXmXmXmXmXmXmXmXmXmXmXmXmXmXmX=.W W Q R Y E Y R W ~ ~ ~ W W T i p mXmXmXmXmXmXmXmXmXmXmXmXmXmXmX",
"mXmXmXmXmXmXmXmXmXmXmXmXW =.-.W W W =.{ ~ ~ ~ [ { { { ~ ~ { } { W W i mXmXmXmXmXmXmXmXmXmXmXmXmX",
"mXmXmXmXmXmXmXmXmXmXmX=.Q m Y T T [ [ R w w w v w w g Y Y b b ~ } } W Q T mXmXmXmXmXmXmXmXmXmXmX",
"mXmXmXmXmXmXmXmXmX4.-.W S M O.E m v w 1 $ #     o o o $ : 9 9 w A A  .} { S mXmXmXmXmXmXmXmXmXmX",
"mXmXmXmXmXmXmXmX4.5.6.[ / -.Q y 9 1 + X #   + . . . o   X o $ : > > e A } { Y mXmXmXmXmXmXmXmXmX",
"mXmXmXmXmXmX<.4.4.6.6.[ E n 8 , X X         % < % < % @ o $ o   + O = > A  .U U mXmXmXmXmXmXmXmX",
"mXmXmXmXmX6.4.<.6.W T T n 0 % .     . * X + % 8 + 8 8 < % & @ X o # o # > g g g mXmXmXmXmXmXmXmX",
"mXmXmXmXmXP.4.-.R i i 0 3 % . . % & & & + % - , & w 8 , % < $ + @ o     # > > > : mXmXmXmXmXmXmX",
"mXmXmXmXY.P.O.n 8 $ & & % + % & 2 3 y 3 , , 2 2 8 8 2 - $ < - $ - o     O = O O O mXmXmXmXmXmXmX",
"mXmXmXmX7.5.S 2 o X % & r i u F F F R D M x x n v y w 0 w w e 9 4 @ % $ o   o O $ : mXmXmXmXmXmX",
"mXmXmXmX<.6.S % + 2 u O.2.7.J.I.J.J.J.L.J.n.n.n.n.;.,.>.,.>.` A g 9 1 1 > - O O O - 5 mXmXmXmXmX",
"mXmXmXmX<.-.0 - y <.Y.0XwX5X5X4X5X4X$X$X+X+X3X+X+XXX}.}.XX}.Q.x.! A w 9 w 9 - $ O $ > mXmXmXmXmX",
"mXmXmXmX=.R u S 7.0XeXhXfXiX4XtXtXtX4X$X@X3X4X@XoXoX#X;X=X;X#X!.i.U b e w 9 9 1 > : > 9 mXmXmXmX",
"mXmXmXmX+.W 5.0XwXhXhXgXiXiXtXtX#X#X#X+X+X+X+X@XoXoX&X;X;X:X:X;XV.~ C g w w e 9 : : : 9 mXmXmXmX",
"mXmXmXt O.<.rXnXkXhXhXiX9XtX5XtX@X@X@X+X+X@X@X@X$X$XOX;X;X;XpX:X{.>.E m v u g 9 : $ : : w mXmXmX",
"mXmXmXp <.[.vXnXcXzXhXiXuXtX@X#X@X@XoX@X*X@X*X*X*X&X&X&X;X;X:X;X{.>./ Y m M g w 1 : - : 9 mXmXmX",
"mXmXmXp 7.[.kXvXcXxXxXdXuXuX=XtX#XyXyX;X:X-X=X=X*X&X&X&X&X&X&XoXQ.>.-.( E C l g e : = $ 1 mXmXmX",
"mXmXmXa Y.<XjXvXcXzXxXaXiXyX=X=XyXuXuX:X>X-X*X*X*X&XOX&X&X&X%X XQ.m.;.~ / Z C b w e : - 1 mXmXmX",
"mXmXmXmXY.<XgXvXcXzXhXfXuX*X*X@X=XtX#X#X].].,X'.'.'.oX*X&X%XOX X X}.A.;.! E R C v e 9 > 1 w mXmX",
"mXmXmXmX8.[.gXkXfX9X2X,X_.`.(.'.'.'.~.K.g.h.1.1.f.g.M.Z.(.oXOX/. X X XF.>.U E R A v e 9 1 v mXmX",
"mXmXmXmX+.<XqX[.2.X.F X.@.h.C.K.K.C.u.^ c 7 7 7 w l x B ` B.}. X}. X XOX{.~ E E Y m b w 9 b mXmX",
"mXmXmXmXi <X[.$.G y 4 4 8 B %.g.j.u.L z q 6 6 6 y v Y ~ Z V :.F.{. X%X&X;Xc.E { ( E C l e m mXmX",
"mXmXmXmXmXP.2.3.$.F y 7 d z ) b.K.V._ N z 6 5 r & & 8 y ( >.| a.G. XOX&X:XU. .~ / / Z v b m mXmX",
"mXmXmXmXmX[.4.-.n +...* t G c.m.XXF.q.N k s y +.r * & y x >.q.| v.G.G.{.{.v. .g g M Z C Y n mXmX",
"mXmXmXmXmX.X[.;.$.8.+.2 2 G >.U.#XH.q.J G B G 3.X.F F @.' a.| q.v.G.F. X%X{.~ w 5 d g U ;.$.mXmX",
"mXmXmXmXmX7X[.[.T.5.3.^ P $.i.7X:X).q.] %.$.P P @.*.3.&.q.V.F.{.{. X%X%XOX Xc.~ ;.B.p.E./.H.mXmX",
"mXmXmXmXmXsX8X7X.XJ.,.*.3.f.T.iX>X%XD.` %.1.1.1.1.1.f.b.A.A.}. X%X;X&X%X X XV.} b.W.N.d.9.j z.mX",
"mXmXmXmXmXzXjXqX8X1X.X.X3X_.iXdX-X-X%XD.v.S.K.~.~.`.`.'.{.}.OX;X:X-X&X X}.}.m.c.V.0.0.d.z.9.d.mX",
"mXmXmXmXmXqXxXxXgXiXiXaX9X+XgXpX-X).).H.N.D.W.W.(.oX&X-X X X-X:X:X:X&X X/.}.Q.Q.}.J I s.D.9.d.mX",
"mXmXmXmXmX[.qXsXgXdXaX6X^.5XxXpX-X].).H.d.r.k.N.E.S.W.).'.@X=X:X=X:X%X/./.!.^.}.-XC.I d.D.z.mXmX",
"mXmXmXmXmX7.qXqX8X7X.X~.~.lXxXuX-X-X'.(.W.y.e.r.g.k.C.E.W.(.|.oXoXOX X!.F.A.K.!.(.k.d.D.D.D.mXmX",
"mXmXmXmXmXmXeXgXqX6X3X~.`.gX5X~.C.p.r.j.S.k.l.u.j.j.L.j.C.E.W.W././.!.F.V.b.m.Q.(.(.#X).S.mXmXmX",
"mXmXmXmXmXmX0XsX8X6X3X^.K.J.h.*.K c 6 k H 0.g.j.j.k.j.j.g.B.N.S.F.F.F.V.b.c.m.F.&X=X%X).p.mXmXmX",
"mXmXmXmXmXmX[.qX6X7X1X^.,X,XI.3.G P P @.&.l.C.C.k.s.j.p.u.a.p.s.M.V.V.M.b.b.b.V.D.-X:XF.mXmXmXmX",
"mXmXmXmXmXmX5.8X7X1X1XR.,XT.J.#.P G P P L &.&.&.L ' r.s.a.t.a.a.p.p.M.M.x.b.x.x.L v.W.mXmXmXmXmX",
"mXmXmXmXmXmXmX.X1X1XR.f.3.n.h.1.o.@.@.) L L _ J z f N e.s.a.a.:.t.a.v.x.i.c.i.v.0.mXmXmXmXmXmXmX",
"mXmXmXmXmXmXmXP..X.XU.( Q <.n.1.3.3.*.I K K c c s 5 s L a.t.` ] ' y.p.p.:.:.>.v.mXmXmXmXmXmXmXmX",
"mXmXmXmXmXmXmXmXI.[.I.! x O.2.3.o.o.c c c I K P L V c L 0.] ` _ ' 0.] | | ` :.p.mXmXmXmXmXmXmXmX",
"mXmXmXmXmXmXmXmX2.I.`.,.*.R.2X,XL.h.w.*.*.&.t.a.k.p.&.&.t.] _ _ ) L J ) ! ! ` mXmXmXmXmXmXmXmXmX",
"mXmXmXmXmXmXmXmXmXn.U.J.U.5X1XR.1.*.P V H _ t.s.j.p._ L ] ] L H N H N V Z Z mXmXmXmXmXmXmXmXmXmX",
"mXmXmXmXmXmXmXmXmXO.2.5.J._.1X_.L.h.%.*.l.s.j.N.j.' J L I ) N f h A f A mXmXmXmXmXmXmXmXmXmXmXmX",
"mXmXmXmXmXmXmXmXmXmXT <.2.J.3X5X5XE.k.h.k.k.j.N.y._ L J H N s 5 d h z mXmXmXmXmXmXmXmXmXmXmXmXmX",
"mXmXmXmXmXmXmXmXmXmXmXT -.J._.3X,XL.l.r.&.e.r.' _ K H N h 6 > 5 h mXmXmXmXmXmXmXmXmXmXmXmXmXmXmX",
"mXmXmXmXmXmXmXmXmXmXmXmXS ,.J.J.J.1.@.P P K L K N f f s 5 6 6 d mXmXmXmXmXmXmXmXmXmXmXmXmXmXmXmX",
"mXmXmXmXmXmXmXmXmXmXmXmXmXmX$.3.*.P K c c z d d 7 4 ; ; 5 d mXmXmXmXmXmXmXmXmXmXmXmXmXmXmXmXmXmX",
"mXmXmXmXmXmXmXmXmXmXmXmXmXmXmXD G l 7 4 5 4 = = = = ; 5 mXmXmXmXmXmXmXmXmXmXmXmXmXmXmXmXmXmXmXmX",
"mXmXmXmXmXmXmXmXmXmXmXmXmXmXmXmXmXmX8 4 4 , = - mXmXmXmXmXmXmXmXmXmXmXmXmXmXmXmXmXmXmXmXmXmXmXmX"
};
