/* XPM */
static char *result[] = {
/* columns rows colors chars-per-pixel */
"48 48 155 2 ",
"   c #000000",
".  c #0D0B0D",
"X  c #140E0E",
"o  c #090D11",
"O  c #1E1A1B",
"+  c #22150D",
"@  c #26181B",
"#  c #3C1718",
"$  c #37151B",
"%  c #21211F",
"&  c #3F201F",
"*  c #3F2A19",
"=  c #0D1720",
"-  c #171D24",
";  c #271B22",
":  c #1B2129",
">  c #1B2935",
",  c #1C2939",
"<  c #232123",
"1  c #352723",
"2  c #212A35",
"3  c #2A353F",
"4  c #3B3A3B",
"5  c #420D0F",
"6  c #44161A",
"7  c #4B181B",
"8  c #591C1D",
"9  c #492A13",
"0  c #56331A",
"q  c #412D25",
"w  c #593821",
"e  c #4C3D35",
"r  c #43313A",
"t  c #6B2324",
"y  c #762B2B",
"u  c #703338",
"i  c #5D4439",
"p  c #674025",
"a  c #6B4327",
"s  c #6A4228",
"d  c #734525",
"f  c #714628",
"g  c #664C3D",
"h  c #1E344C",
"j  c #27384A",
"k  c #323941",
"l  c #293E54",
"z  c #2D455E",
"x  c #3C4653",
"c  c #354F68",
"v  c #34516C",
"b  c #315076",
"n  c #325178",
"m  c #3D5B79",
"M  c #3A5977",
"N  c #43474E",
"B  c #574452",
"V  c #575657",
"C  c #585758",
"Z  c #5E5B58",
"A  c #6F584C",
"S  c #6A5448",
"D  c #504D62",
"F  c #435877",
"G  c #736D69",
"H  c #716B67",
"J  c #72716E",
"K  c #747374",
"L  c #7F7070",
"P  c #787678",
"I  c #7F7F7E",
"U  c #74777B",
"Y  c #842E2F",
"T  c #903232",
"R  c #92353B",
"E  c #A33B3C",
"W  c #A33236",
"Q  c #925D38",
"!  c #9A613A",
"~  c #A94344",
"^  c #B04141",
"/  c #BB4A4B",
"(  c #816B5F",
")  c #876E61",
"_  c #9C7C6E",
"`  c #826F72",
"'  c #837173",
"]  c #88837F",
"[  c #3B5B82",
"{  c #3F6283",
"}  c #4C6D8F",
"|  c #466889",
" . c #486D98",
".. c #496A92",
"X. c #4E7092",
"o. c #4C7298",
"O. c #507192",
"+. c #757C84",
"@. c #4D79A2",
"#. c #517BA3",
"$. c #807F80",
"%. c #5580AA",
"&. c #5789B7",
"*. c #5C8CBC",
"=. c #5F95C6",
"-. c #6194C5",
";. c #679ACD",
":. c #659AD4",
">. c #679DDC",
",. c #699DD2",
"<. c #6AA1D7",
"1. c #6CA4DB",
"2. c #6EA8DF",
"3. c #6BA3E3",
"4. c #6FA8E1",
"5. c #6DA6E8",
"6. c #72ADE7",
"7. c #76B2ED",
"8. c #858485",
"9. c #888688",
"0. c #8C8B8B",
"q. c #918D8B",
"w. c #94908D",
"e. c #8E8F90",
"r. c #918E90",
"t. c #8F9090",
"y. c #939394",
"u. c #9D9C9D",
"i. c #999799",
"p. c #A29E9B",
"a. c #A19FA1",
"s. c #A5A4A4",
"d. c #ABAAAB",
"f. c #B4B2B4",
"g. c #BEBCBE",
"h. c #C19683",
"j. c #D0AC9A",
"k. c #D9B8A4",
"l. c #E9C6AF",
"z. c #FBCFB7",
"x. c #C3C1C3",
"c. c #C8C6C8",
"v. c #CECBCC",
"b. c #CBC5C2",
"n. c #D1CDCA",
"m. c #D0CED0",
"M. c #D5D2D5",
"N. c #DAD9DA",
"B. c #D8D5D8",
"V. c #E5E3E5",
"C. c #E8E7E8",
"Z. c #EDEBED",
"A. c #F0EEF0",
"S. c #F1F0F1",
"D. c None",
/* pixels */
"D.D.D.D.D.D.D.D.D.D.D.D.D.D.D.D.D.D.D.D.D.D.D.D.D.D.D.D.D.D.D.D.D.D.D.D.D.D.D.D.D.D.D.D.D.D.D.D.",
"D.D.D.D.D.D.D.D.D.D.D.D.D.D.D.D.D.D.D.D.D.D.D.D.D.D.D.D.D.D.D.D.D.D.D.D.D.D.D.D.D.D.D.D.D.D.D.D.",
"D.D.D.D.D.D.D.D.D.D.D.D.D.D.D.D.D.D.D.D.D.D.D.D.D.D.D.D.D.D.D.D.D.D.D.D.D.D.D.D.D.D.D.D.D.D.D.D.",
"D.D.D.D.D.D.D.D.D.D.D.D.D.D.D.D.D.D.D.D.D.D.D.D.D.D.D.D.D.D.D.D.D.D.D.D.D.D.D.D.D.D.D.D.D.D.D.D.",
"D.D.D.D.D.D.D.D.D.D.D.D.D.D.D.D.D.D.D.D.D.D.D.D.D.D.D.D.D.D.D.D.D.D.D.D.D.D.D.D.D.D.D.D.D.D.D.D.",
"D.D.D.D.D.D.D.D.D.D.D.D.D.D.D.D.D.D.D.D.D.D.D.D.D.D.D.D.D.D.D.D.D.D.D.D.D.D.D.D.D.D.D.D.D.D.D.D.",
"D.D.D.D.D.D.D.D.D.D.D.D.D.D.D.D.D.D.D.D.D.D.D.D.D.D.D.D.D.D.D.D.D.D.D.D.D.D.D.D.D.D.D.D.D.D.D.D.",
"D.D.D.D.D.D.D.D.D.D.D.D.D.D.D.D.D.D.D.D.D.D.D.D.D.D.D.D.D.D.D.D.D.D.D.D.D.D.D.D.D.D.D.D.D.D.D.D.",
"D.D.D.D.D.D.D.D.D.D.D.D.D.D.D.D.D.D.D.D.D.D.D.D.D.D.D.D.D.D.D.D.D.D.D.D.D.D.D.D.D.D.D.D.D.D.D.D.",
"D.D.D.D.D.D.D.D.D.D.D.D.D.D.D.D.D.D.D.D.D.D.D.D.D.D.D.D.D.D.D.D.D.D.D.D.D.D.D.D.D.D.D.D.D.D.D.D.",
"D.D.D.D.D.D.D.D.D.D.D.D.D.D.D.D.D.D.D.D.D.D.D.D.D.D.D.D.D.D.D.D.D.D.D.D.D.D.D.D.D.D.D.D.D.D.D.D.",
"D.D.D.D.D.D.D.D.D.D.D.D.D.D.D.D.D.D.D.D.D.D.D.D.D.D.D.D.D.D.D.D.D.D.D.D.D.D.D.D.D.D.D.D.D.D.D.D.",
"D.D.D.D.D.D.D.D.D.D.D.D.D.D.D.D.D.D.D.D.D.D.D.D.D.D.D.D.D.D.D.D.D.D.D.D.D.D.D.D.D.D.D.D.D.D.D.D.",
"D.D.D.D.D.D.D.D.D.= > > > > > > > > > > > > > > > > > > > > > > > > > > > > D.D.D.D.D.D.D.D.D.D.",
"D.D.D.D.D.D.D.D.  l  .o.o.o.o.o.o.o.o.o.o.o.o.o.o.o.o.o.o.o.o.o.o.o.o.o.o.o.z   D.D.D.D.D.D.D.D.",
"D.D.D.D.D.D.D.D.  [ 3.2.2.2.2.2.2.2.2.2.2.2.2.2.2.2.2.2.2.2.2.2.2.2.2.2.2.2.m   D.D.D.D.D.D.D.D.",
"D.D.D.D.D.D.D.D.  l ..X.O.X.O.O.O.X.O.O.O.X.O.X.} O.O.O.O.O.O.O.X.X.O.X.O.O.j   D.D.D.D.D.D.D.D.",
"D.D.D.D.D.D.D.D.  Z p.e.0.0.0.0.0.0.0.0.0.0.i.s.a.a.a.s.s.s.s.s.s.s.s.p.a.u.V   D.D.D.D.D.D.D.D.",
"D.D.D.D.D.D.D.D.  q.b.U +.U +.+.+.+.+.U +.U y.Z.S.S.V.x.b.k.x.x.x.x.v.A.S.Z.$.  D.D.D.D.D.D.D.D.",
"D.D.D.D.D.D.D.D.  q.8.j ..o.M v v v | o.o.| k M.A.Z.M.8.] ] %.' I 8.i.V.A.Z.$.  D.D.D.D.D.D.D.D.",
"D.D.D.D.D.D.D.D.  w.H b 5.%.x N N x m ,.6.<.3 b.S.A.M.9.8.8.8.8.8.8.u.Z.Z.Z.$.  D.D.D.D.D.D.D.D.",
"D.D.D.D.D.D.D.D.  w.G b 3.j 9 f f a 1 v 1.<.3 c.S.S.N.] I 8.8.8.8.8.u.Z.A.Z.$.  D.D.D.D.D.D.D.D.",
"D.D.D.D.D.D.D.D.  w.G b >.- d ! ! Q p O -.1.3 n.A.n.j.q.s.u.8.8.8.8.y.g.m.Z.8.  D.D.D.D.D.D.D.D.",
"D.D.D.D.D.D.D.D.  w.G b >.: 0 p s w 9 O *.1.3 n.Z.p.%.t.M.g.8.8.8.8.8.8.s.Z.8.  D.D.D.D.D.D.D.D.",
"D.D.D.D.D.D.D.D.  w.G n >.- + g S A e o X.2.3 v.Z.s.8.t.m.g.8.8.8.8.8.9.d.Z.f.D.D.D.D.D.D.D.D.D.",
"D.D.D.D.D.D.D.D.  w.G n >., X h.j.k.( o } 1.3 c.Z.s.8.0.m.g.8.8.8.8.8.9.d.Z.c.D.D.D.D.D.D.D.D.D.",
"D.D.D.D.D.D.D.D.  w.G n 3.#.: h.z.l.S z ;.<.3 n.Z.s.8.t.m.g.8.8.8.8.8.0.d.Z.y.  D.D.D.D.D.D.D.D.",
"D.D.D.D.D.D.D.D.  q.G n 3.7.| e _ ( k =.7.<.3 c.Z.s.8.t.m.g.8.8.8.8.8.9.d.Z.I   D.D.D.D.D.D.D.D.",
"D.D.D.D.D.D.D.D.  w.G n :.&.m X i 1 , @.;.,.j n.Z.s.8.y.m.g.8.8.8.8.8.9.d.Z.$.  D.D.D.D.D.D.D.D.",
"D.D.D.D.D.D.D.D.  w.G j F B ; 6 q 9 $ r D F 2 n.Z.s.8.0.m.g.8.8.8.8.8.8.d.Z.$.  D.D.D.D.D.D.D.D.",
"D.D.D.D.D.D.D.D.  r.G @ R / y 7 $ 6 7 ^ ~ u O v.Z.s.8.t.M.g.8.8.8.8.8.8.d.Z.I   D.D.D.D.D.D.D.D.",
"D.D.D.D.D.D.D.D.  q.I 5 W E T 8 Y t t E R T 1 M.Z.i.K I c.f.K K K K P P u.Z.8.  D.D.D.D.D.D.D.D.",
"D.D.D.D.D.D.D.D.  q.n.' ' ' ' L ' L L ' ' ' i.Z.S.V.N.N.Z.C.B.N.N.N.N.N.V.S.8.  D.D.D.D.D.D.D.D.",
"D.D.D.D.D.D.D.D.  Z p.y.t.t.e.e.q.w.t.t.t.t.s.N.M.s.s.s.s.s.s.s.s.s.s.s.s.u.C   D.D.D.D.D.D.D.D.",
"D.D.D.D.D.D.D.D.D.% 4 4 x 4 4 4 4 x r 4 4 4 4 D.D.4 4 4 4 4 4 4 4 4 4 4 4 4 < D.D.D.D.D.D.D.D.D.",
"D.D.D.D.D.D.D.D.D.D.D.D.D.D.D.D.D.D.D.D.D.D.D.D.D.D.D.D.D.D.D.D.D.D.D.D.D.D.D.D.D.D.D.D.D.D.D.D.",
"D.D.D.D.D.D.D.D.D.D.D.D.D.D.D.D.D.D.D.D.D.D.D.D.D.D.D.D.D.D.D.D.D.D.D.D.D.D.D.D.D.D.D.D.D.D.D.D.",
"D.D.D.D.D.D.D.D.D.D.D.D.D.D.D.D.D.D.D.D.D.D.D.D.D.D.D.D.D.D.D.D.D.D.D.D.D.D.D.D.D.D.D.D.D.D.D.D.",
"D.D.D.D.D.D.D.D.D.D.D.D.D.D.D.D.D.D.D.D.D.D.D.D.D.D.D.D.D.D.D.D.D.D.D.D.D.D.D.D.D.D.D.D.D.D.D.D.",
"D.D.D.D.D.D.D.D.D.D.D.D.D.D.D.D.D.D.D.D.D.D.D.D.D.D.D.D.D.D.D.D.D.D.D.D.D.D.D.D.D.D.D.D.D.D.D.D.",
"D.D.D.D.D.D.D.D.D.D.D.D.D.D.D.D.D.D.D.D.D.D.D.D.D.D.D.D.D.D.D.D.D.D.D.D.D.D.D.D.D.D.D.D.D.D.D.D.",
"D.D.D.D.D.D.D.D.D.D.D.D.D.D.D.D.D.D.D.D.D.D.D.D.D.D.D.D.D.D.D.D.D.D.D.D.D.D.D.D.D.D.D.D.D.D.D.D.",
"D.D.D.D.D.D.D.D.D.D.D.D.D.D.D.D.D.D.D.D.D.D.D.D.D.D.D.D.D.D.D.D.D.D.D.D.D.D.D.D.D.D.D.D.D.D.D.D.",
"D.D.D.D.D.D.D.D.D.D.D.D.D.D.D.D.D.D.D.D.D.D.D.D.D.D.D.D.D.D.D.D.D.D.D.D.D.D.D.D.D.D.D.D.D.D.D.D.",
"D.D.D.D.D.D.D.D.D.D.D.D.D.D.D.D.D.D.D.D.D.D.D.D.D.D.D.D.D.D.D.D.D.D.D.D.D.D.D.D.D.D.D.D.D.D.D.D.",
"D.D.D.D.D.D.D.D.D.D.D.D.D.D.D.D.D.D.D.D.D.D.D.D.D.D.D.D.D.D.D.D.D.D.D.D.D.D.D.D.D.D.D.D.D.D.D.D.",
"D.D.D.D.D.D.D.D.D.D.D.D.D.D.D.D.D.D.D.D.D.D.D.D.D.D.D.D.D.D.D.D.D.D.D.D.D.D.D.D.D.D.D.D.D.D.D.D.",
"D.D.D.D.D.D.D.D.D.D.D.D.D.D.D.D.D.D.D.D.D.D.D.D.D.D.D.D.D.D.D.D.D.D.D.D.D.D.D.D.D.D.D.D.D.D.D.D."
};
