/* XPM */
static char *df624dbcfcc84eb3c085050cd61b01c9sw6h7BhbQLjJY1jB[] = {
/* columns rows colors chars-per-pixel */
"48 48 145 2 ",
"   c #030102",
".  c #090604",
"X  c #0D0A01",
"o  c #07000A",
"O  c #0A010D",
"+  c #130C03",
"@  c #180F07",
"#  c #1A0F0A",
"$  c #141100",
"%  c #1B1303",
"&  c #1F1B00",
"*  c #1A110B",
"=  c #0D0013",
"-  c #110313",
";  c #13011B",
":  c #201303",
">  c #251E01",
",  c #2C1800",
"<  c #271409",
"1  c #24190B",
"2  c #221313",
"3  c #26121A",
"4  c #2C151E",
"5  c #321A1F",
"6  c #242000",
"7  c #2B2402",
"8  c #332602",
"9  c #342C03",
"0  c #3A2A07",
"q  c #32260B",
"w  c #362808",
"e  c #392A0C",
"r  c #3B3204",
"t  c #392416",
"y  c #170022",
"u  c #190125",
"i  c #1C002A",
"p  c #250C23",
"a  c #2B0F25",
"s  c #2B0C2C",
"d  c #2D1323",
"f  c #220033",
"g  c #290633",
"h  c #260039",
"j  c #29013D",
"k  c #463B03",
"l  c #493F00",
"z  c #46360B",
"x  c #4C4202",
"c  c #524501",
"v  c #554904",
"b  c #5B4B03",
"n  c #615401",
"m  c #6D5602",
"M  c #655A00",
"N  c #6C5D01",
"B  c #725604",
"V  c #745904",
"C  c #785B04",
"Z  c #6E6000",
"A  c #746500",
"S  c #7B6A01",
"D  c #2D0043",
"F  c #300343",
"G  c #32004B",
"H  c #360052",
"J  c #390055",
"K  c #3D005C",
"L  c #430064",
"P  c #47006A",
"I  c #49006E",
"U  c #4C0072",
"Y  c #53007C",
"T  c #814D01",
"R  c #875101",
"E  c #985B01",
"W  c #8C6D04",
"Q  c #936E05",
"!  c #847200",
"~  c #8C7A00",
"^  c #917E00",
"/  c #A37C06",
"(  c #F37735",
")  c #FC7D33",
"_  c #EA2E5A",
"`  c #EB305A",
"'  c #958100",
"]  c #9E8A00",
"[  c #A28D00",
"{  c #A69000",
"}  c #AB9600",
"|  c #AD9900",
" . c #B49703",
".. c #B39B00",
"X. c #B6A000",
"o. c #BDA800",
"O. c #C49407",
"+. c #E48A01",
"@. c #EC8C01",
"#. c #C0AB00",
"$. c #C8AE00",
"%. c #D4A107",
"&. c #DCA507",
"*. c #CEB400",
"=. c #D2B501",
"-. c #D4BA00",
";. c #DBBF00",
":. c #E6AD08",
">. c #E8AF08",
",. c #E1BC03",
"<. c #EBB807",
"1. c #ECB408",
"2. c #FCA41E",
"3. c #F9AE19",
"4. c #F5822F",
"5. c #D7C000",
"6. c #DCC200",
"7. c #E2C301",
"8. c #E6CA00",
"9. c #ECCD01",
"0. c #FBC406",
"q. c #F7CD06",
"w. c #FDCD07",
"e. c #FCC40E",
"r. c #FFC90A",
"t. c #EED400",
"y. c #F3D400",
"u. c #FED304",
"i. c #F5D900",
"p. c #FFDC00",
"a. c #FFE200",
"s. c #560082",
"d. c #590085",
"f. c #5A0087",
"g. c #5C008B",
"h. c #5D008C",
"j. c #5E008E",
"k. c #600090",
"l. c #610091",
"z. c #610092",
"x. c #630094",
"c. c #640096",
"v. c #650097",
"b. c #650098",
"n. c #660099",
/* pixels */
"n.n.n.n.n.n.n.n.n.n.n.n.n.n.n.n.n.n.n.n.n.n.n.n.n.n.n.n.n.n.n.n.n.n.n.n.n.n.n.n.n.n.n.n.n.n.n.n.",
"n.n.n.n.n.n.n.n.n.n.n.n.n.n.n.n.n.n.n.n.n.n.n.n.n.n.n.n.n.n.n.n.n.n.n.n.n.n.n.n.n.n.n.n.n.n.n.n.",
"n.n.n.n.n.n.n.n.n.n.n.n.n.n.n.n.n.n.n.n.n.n.n.n.n.n.n.n.n.n.n.n.n.n.n.n.n.n.n.n.n.n.n.n.n.n.n.n.",
"n.n.n.n.n.n.n.n.n.n.n.n.n.n.n.n.n.n.n.n.n.n.n.n.n.n.n.n.n.n.n.n.n.n.n.n.n.n.n.n.n.n.n.n.n.n.n.n.",
"n.n.n.n.n.n.n.n.n.n.n.n.n.n.n.n.n.n.n.n.n.n.n.n.n.n.n.n.n.n.n.n.n.n.n.n.n.n.n.n.n.n.n.n.n.n.n.n.",
"n.n.n.n.n.n.n.n.n.n.n.n.n.n.n.n.n.n.n.n.n.n.n.n.n.n.n.n.n.n.n.n.n.n.n.n.n.n.n.n.n.n.n.n.n.n.n.n.",
"n.n.n.n.n.n.n.n.n.n.n.n.n.n.n.n.n.n.n.n.n.n.n.n.l.P g.n.n.n.n.n.n.n.n.n.n.n.n.n.n.n.n.n.n.n.n.n.",
"n.n.n.n.n.n.n.n.n.n.n.n.n.n.n.n.n.n.n.n.n.v.I U K i U l.n.n.n.n.n.n.n.n.n.n.n.n.n.n.n.n.n.n.n.n.",
"n.n.n.n.n.n.n.n.n.n.n.n.n.n.n.n.n.n.n.n.n.x.j = o o y J n.n.n.n.n.n.n.n.n.n.n.n.n.n.n.n.n.n.n.n.",
"n.n.n.n.n.n.n.n.n.n.n.n.n.n.n.n.n.n.x.Y L G y       O D s.l.n.n.n.n.n.n.n.n.n.n.n.n.n.n.n.n.n.n.",
"n.n.n.n.n.n.n.n.n.n.n.n.n.n.n.n.f.J h ; 2 e k c x x 9 2 y j K f.n.n.n.n.n.n.n.n.n.n.n.n.n.n.n.n.",
"n.n.n.n.n.n.n.n.n.n.n.n.n.n.v.K u 2 b ^ X.*.5.5.6.5.*.o.~ v 3 i K h.n.x.n.n.n.n.n.n.n.n.n.n.n.n.",
"n.n.n.n.n.n.n.n.n.n.n.n.n.h.D - b  .6.y.p.p.p.p.p.p.p.p.y.5...n 2 D f.n.n.n.n.n.n.n.n.n.n.n.n.n.",
"n.n.n.n.n.n.n.n.n.n.n.n.g.h # W ;.u.a.p.p.p.p.p.p.p.p.p.a.a.i.6.] e D Y n.n.n.n.n.n.n.n.n.n.n.n.",
"n.n.n.n.n.n.n.n.n.n.n.x.j * / 9.p.p.p.p.p.p.p.p.p.p.p.p.p.p.p.p.t.X.q D f.n.n.n.n.n.n.n.n.n.n.n.",
"n.n.n.n.n.n.n.n.n.n.n.H . / y.p.p.p.p.p.p.p.p.p.p.p.p.p.p.p.p.p.p.p.{ w G h.n.n.n.n.n.n.n.n.n.n.",
"n.n.n.n.n.n.n.n.n.n.s.O m q.a.a.p.p.p.p.p.p.p.p.p.p.p.p.p.p.p.p.p.p.t.! 3 L x.n.n.n.n.n.n.n.n.n.",
"n.n.n.n.n.n.n.n.n.n.D % &.=.! ] p.p.p.p.p.p.p.p.a.p.a.a.p.p.p.p.p.p.p.-.c D f.n.n.n.n.n.n.n.n.n.",
"n.n.n.n.n.n.n.n.n.l.= C <.7 > $ ~ a.a.a.a.a.p.t.~ r A 8.p.p.p.p.p.p.p.p.' 4 P n.n.n.n.n.n.n.n.n.",
"n.n.n.n.n.n.v.U J D . %.o.$ *.M x a.| S ~ *.p.| $ c 6 S a.p.p.p.p.p.p.a.o.z H x.n.n.n.n.n.n.n.n.",
"n.n.n.n.n.v.G = < + 8 0.y.$.p.7.-.i.N 9 $ S a...b 5.! S a.p.p.p.p.p.p.p.6.n D f.n.n.n.n.n.n.n.n.",
"n.n.n.n.n.f.= T +., m 2.4.r.p.p.p.a.8.A . { a.p.i.p.p.i.p.p.p.p.p.p.p.p.y.A g Y n.n.n.n.n.n.n.n.",
"n.n.n.n.n.g.= R @.+ / ) _ 3.a.p.p.p.5.9 Z y.p.p.p.p.u.e.p.p.p.p.a.a.p.p.y.! s Y n.n.n.n.n.n.n.n.",
"n.n.n.n.n.n.F : E + O.w.w.p.p.p.p.p.p.y.i.p.p.p.a.u.( _ 3.a.p.p.-.{ -.p.i.! s Y n.n.n.n.n.n.n.n.",
"n.n.n.n.n.n.g.u + X &.u.p.p.p.p.p.p.p.p.p.p.p.p.p.p.e.2.w.p.y.] & X r X.i.! s Y n.n.n.n.n.n.n.n.",
"n.n.n.n.n.n.v.f.i + 1.u.p.p.p.p.p.p.p.p.p.p.p.p.p.p.p.p.p.i.| 6 Z o.x A t.~ s U n.n.n.n.n.n.n.n.",
"n.n.n.n.n.n.n.v.L % 1.u.p.p.p.p.p.p.p.p.p.p.p.p.p.p.p.p.p.8.S l 8.y.n M 7.~ d Y n.n.n.n.n.n.n.n.",
"n.n.n.n.n.n.n.n.K % 1.u.p.p.p.p.p.p.p.p.p.p.p.p.p.p.p.p.p.p.9.9.a.9.c A t.' d U n.n.n.n.n.n.n.n.",
"n.n.n.n.n.n.n.n.L @ :.u.p.p.p.p.u.p.p.p.p.p.p.p.p.p.p.p.p.p.p.p.p.y...$.p.] 5 P n.n.n.n.n.n.n.n.",
"n.n.n.n.n.n.n.n.U . &.u.p.p.p.p.p.p.p.p.p.p.p.p.p.p.p.p.p.p.p.p.p.p.a.a.a.} t L b.n.n.n.n.n.n.n.",
"n.n.n.n.n.n.n.n.Y o O.u.p.p.p.p.p.p.p.p.p.p.p.p.p.p.p.p.p.p.p.p.p.p.p.p.a.o.z J n.n.n.n.n.n.n.n.",
"n.n.n.n.n.n.n.n.l.= Q w.p.p.p.p.p.p.p.p.p.p.p.p.p.p.p.p.p.p.p.p.p.p.p.p.a.-.v D k.n.n.n.n.n.n.n.",
"n.n.n.n.n.n.n.n.n.f c r.p.p.p.p.p.p.p.p.p.p.p.p.p.p.p.p.p.p.p.p.p.p.p.p.p.i.! p f.n.n.n.n.n.n.n.",
"n.n.n.n.n.n.n.n.v.K + :.u.p.p.p.p.p.p.p.p.p.p.p.p.p.p.p.p.u.p.p.p.p.p.p.p.a.#.k L n.n.n.n.n.n.n.",
"n.n.n.n.n.n.n.n.v.f.o Q w.p.p.p.p.p.p.p.p.p.p.a.p.p.p.p.p.p.p.p.p.p.p.p.p.p.i.S g f.n.n.n.n.n.n.",
"n.n.n.n.n.n.n.n.n.n.j > 1.p.p.p.p.p.p.p.p.p.p.u.p.p.p.p.p.p.p.p.p.p.p.p.p.p.a.} d Y n.n.n.n.n.n.",
"n.n.n.n.n.n.n.n.n.n.s.= B q.p.p.p.p.p.p.p.p.p.p.p.p.p.p.p.p.p.p.p.p.p.p.p.p.a.{ a Y n.n.n.n.n.n.",
"n.n.n.n.n.n.n.n.n.n.n.J . / u.p.p.p.p.p.p.p.p.p.p.p.p.p.p.p.p.p.p.p.p.p.p.p.8.A D h.n.n.n.n.n.n.",
"n.n.n.n.n.n.n.n.n.n.n.n.D + / y.p.p.p.p.p.p.p.p.p.p.p.p.p.p.p.p.p.p.p.p.p.p.[ q U v.n.n.n.n.n.n.",
"n.n.n.n.n.n.n.n.n.n.n.n.l.F O V ;.i.p.p.p.p.p.p.p.p.p.p.p.p.p.p.p.p.p.p.t.] w j h.n.n.n.n.n.n.n.",
"n.n.n.n.n.n.n.n.n.n.n.n.n.n.J = 0 ] 7.y.p.p.p.p.p.a.p.p.p.a.p.p.p.a.t.*.A 1 j s.n.n.n.n.n.n.n.n.",
"n.n.n.n.n.n.n.n.n.n.n.n.n.n.n.Y h = w S X.5.t.y.y.i.i.i.i.i.y.t.8.*.S 8 ; H f.n.n.n.n.n.n.n.n.n.",
"n.n.n.n.n.n.n.n.n.n.n.n.n.n.n.n.n.U D = . 7 k N ! ' ] { ] ' S n r # ; G Y n.n.n.n.n.n.n.n.n.n.n.",
"n.n.n.n.n.n.n.n.n.n.n.n.n.n.n.n.h.f.s.u u J D u ; ; = O o = y f D L g.v.n.v.n.n.n.n.n.n.n.n.n.n.",
"n.n.n.n.n.n.n.n.n.n.n.n.n.n.n.n.h ; = O L n.n.n.k.h.s.J ; Y l.n.b.n.n.n.n.n.n.n.n.n.n.n.n.n.n.n.",
"n.n.n.n.n.n.n.n.n.n.n.n.n.n.n.n.U K K P x.n.n.n.x.Y L h u f.n.n.n.n.n.n.n.n.n.n.n.n.n.n.n.n.n.n.",
"n.n.n.n.n.n.n.n.n.n.n.n.n.n.n.n.n.n.n.n.n.b.n.x.f.f ; y H h.n.n.n.n.n.n.n.n.n.n.n.n.n.n.n.n.n.n.",
"n.n.n.n.n.n.n.n.n.n.n.n.n.n.n.n.n.n.n.n.n.n.v.n.l.K U f.n.n.n.n.n.n.n.n.n.n.n.n.n.n.n.n.n.n.n.n."
};
