/* XPM */
static char *_4260cde47f04b47bfa7bfd7866f8e4fQmGK2wqCqKUGxW9t[] = {
/* columns rows colors chars-per-pixel */
"48 48 177 2 ",
"   c #030202",
".  c #0D0602",
"X  c #0D0C06",
"o  c #07000A",
"O  c #09020B",
"+  c #110B06",
"@  c #130D0A",
"#  c #1B1102",
"$  c #13120A",
"%  c #1C150B",
"&  c #1F1C0F",
"*  c #0D0014",
"=  c #130812",
"-  c #12001B",
";  c #190A1C",
":  c #1C1412",
">  c #1F1C11",
",  c #291901",
"<  c #201A0E",
"1  c #241B15",
"2  c #291D16",
"3  c #271819",
"4  c #3D2604",
"5  c #252113",
"6  c #2B2514",
"7  c #2D2919",
"8  c #322614",
"9  c #3A2D17",
"0  c #312318",
"q  c #312A1B",
"w  c #3B331B",
"e  c #3E381E",
"r  c #160022",
"t  c #1A0225",
"y  c #1F0927",
"u  c #1D002B",
"i  c #230F26",
"p  c #261423",
"a  c #291625",
"s  c #2D1D25",
"d  c #220033",
"f  c #26003A",
"g  c #29003E",
"h  c #392C26",
"j  c #352628",
"k  c #3B3520",
"l  c #3D3028",
"z  c #4A2D05",
"x  c #423D1F",
"c  c #4B3A1F",
"v  c #5C3A15",
"b  c #402F24",
"n  c #453D24",
"m  c #4D3D21",
"M  c #513F21",
"N  c #6D4911",
"B  c #464224",
"V  c #4B4424",
"C  c #4D442A",
"Z  c #544122",
"A  c #5B4525",
"S  c #544C29",
"D  c #59532B",
"F  c #5D582D",
"G  c #544633",
"H  c #5E5332",
"J  c #634C2A",
"K  c #67502A",
"L  c #6A532B",
"P  c #645C31",
"I  c #695E35",
"U  c #695D39",
"Y  c #765B30",
"T  c #6A6234",
"R  c #7E6235",
"E  c #71633D",
"W  c #746A39",
"Q  c #7B723D",
"!  c #2D0043",
"~  c #32004C",
"^  c #370052",
"/  c #3A0056",
"(  c #3D005B",
")  c #420063",
"_  c #47006A",
"`  c #49006D",
"'  c #4C0B68",
"]  c #4D0074",
"[  c #52007B",
"{  c #582061",
"}  c #7F7440",
"|  c #A2690F",
" . c #AB6E10",
".. c #BD7D1B",
"X. c #856636",
"o. c #856838",
"O. c #8D723C",
"+. c #92733D",
"@. c #98763E",
"#. c #847A41",
"$. c #887F44",
"%. c #9D7A40",
"&. c #A47F43",
"*. c #FD7E7E",
"=. c #8F8546",
"-. c #928748",
";. c #958949",
":. c #9A8F4B",
">. c #9C914D",
",. c #A58144",
"<. c #AA8747",
"1. c #A28F4C",
"2. c #AF8849",
"3. c #B18C4A",
"4. c #A2954F",
"5. c #BD944F",
"6. c #A39750",
"7. c #A69A52",
"8. c #A99D52",
"9. c #B3A557",
"0. c #B4A659",
"q. c #B6A959",
"w. c #BBAE5C",
"e. c #BEB05D",
"r. c #BD9E6F",
"t. c #C59D54",
"y. c #C99C53",
"u. c #C4AC5B",
"i. c #D5A858",
"p. c #DCAE5C",
"a. c #C6B55F",
"s. c #D8B45E",
"d. c #E5B15A",
"f. c #FE827F",
"g. c #FB9A7C",
"h. c #C4B661",
"j. c #C8B762",
"k. c #CCBC64",
"l. c #D2BD65",
"z. c #DEBF65",
"x. c #E6BA62",
"c. c #E8B862",
"v. c #FAA67B",
"b. c #F7BA7A",
"n. c #D2C367",
"m. c #DCC064",
"M. c #D5C569",
"N. c #D7C869",
"B. c #DBCB6B",
"V. c #DFD06D",
"C. c #EBC669",
"Z. c #E1CE6E",
"A. c #F4C267",
"S. c #F5C669",
"D. c #F6CE6D",
"F. c #FACA6B",
"G. c #E2D16F",
"H. c #F2D06E",
"J. c #F6C579",
"K. c #F5CD78",
"L. c #E5D470",
"P. c #EAD471",
"I. c #EDDB74",
"U. c #F5D571",
"Y. c #F3DD75",
"T. c #FBD973",
"R. c #F4D678",
"E. c #F3DF78",
"W. c #F3E177",
"Q. c #F4E278",
"!. c #F9E67A",
"~. c #FCE97C",
"^. c #560082",
"/. c #590086",
"(. c #5C008B",
"). c #620094",
"_. c #660099",
/* pixels */
"_._._._._._._._._._._._._._._._._._._._._._._._._._._._._._._._._._._._._._._._._._._._._._._._.",
"_._._._._._._._._._._._._._._._._._._._._._._._._._._._._._._._._._._._._._._._._._._._._._._._.",
"_._._._._._._._._._._._._._._._._._._._._._._._._._._._._._._._._._._._._._._._._._._._._._._._.",
"_._._._._._._._._._._._._._._._._._._._._._._._._._._._._._._._._._._._._._._._._._._._._._._._.",
"_._._._._._._._._._._._._._._._._._._._._._._._._._._._._._._._._._._._._._._._._._._._._._._._.",
"_._._._._._._._._._._._._._._._._._._._._._.) [ _._._._._._._._._._._._._._._._._._._._._._._._.",
"_._._._._._._._._._._._._._._._._._._._._.(.- ; ! (.).[ )._._._._._._._._._._._._._._._._._._._.",
"_._._._._._._._._._._._._._._._._._._._.).] % -.h ! / r ~ _._._._._._._._._._._._._._._._._._._.",
"_._._._._._._._._._._._._._._._._._._._.(.d D I.;.= h P ; ^._._._._._._._._._._._._._._._._._._.",
"_._._._._._._._._._._._._._._._._._.).^.! q h.!.V.6.h.M.5 ] _._._._._._._._._._._._._._._._._._.",
"_._._._._._._._._._._._._._._._.(.) ! r C q.Q.Q.E.I.Q.L.7 d _ )._._._._._._._._._._._._._._._._.",
"_._._._._._._._._._._._._._.).) d s U :.n.W.Q.W.W.W.W.I.6.H s d _ )._._._._._._._._._._._._._._.",
"_._._._._._._._._._._._._.^.g 3 W w.V.I.Q.Q.E.E.W.W.W.E.I.B.9.U a ~ (._._._._._._._._._._._._._.",
"_._._._._._._._._._._._.] - C a.E.Q.Q.Q.W.W.E.E.W.W.W.W.W.W.W.I.w.k t [ _._._._._._._._._._._._.",
"_._._._._._._._._._._.] * T G.Q.Q.W.W.W.W.W.W.W.W.W.W.W.W.Q.W.W.W.M.G - [ _._._._._._._._._._._.",
"_._._._._._._._._._.^.* I I.Q.Q.W.W.W.W.W.W.W.W.W.W.W.W.W.W.W.W.Q.Q.N.} { _._._._._._._._._._._.",
"_._._._._._._._._.).d V P.Q.W.W.W.W.W.W.W.W.W.W.W.W.W.W.W.W.W.W.W.Q.W.I.r.' )._._._._._._._._._.",
"_._._._._._._._._./ 1 l.Q.W.W.W.E.W.W.W.W.W.W.W.W.W.W.W.W.W.W.W.W.W.Q.W.n.p _ _._._._._._._._._.",
"_._._._._._._._./.- O.!.Q.Q.W.W.W.W.W.W.W.W.W.W.W.W.W.W.W.W.W.W.W.W.Q.Q.I.} u (._._._._._._._._.",
"_._._._._._._._./ 0 m.Q.W.W.W.W.W.W.W.W.W.W.W.W.W.W.W.W.W.W.W.W.W.W.E.W.W.n.s _ _._._._._._._._.",
"_._._._._._._.).r o.Y.Q.W.W.W.W.W.E.W.W.W.W.W.W.Q.W.W.W.W.W.W.W.E.W.W.W.Q.I.T f )._._._._._._._.",
"_._._._._._._.[ @ t.E.E.W.W.W.W.!.Q.W.W.W.Q.!.V.L.!.Q.W.W.W.W.!.W.W.W.W.Q.E.>.y ^._._._._._._._.",
"_._._._._._._./ 9 C.Q.W.W.W.W.W.9.V.Q.W.!.B.D & 5 T G.!.W.W.N.w.W.W.W.W.W.W.h.j _ _._._._._._._.",
"_._._._._._._.g J H.W.W.W.W.Q.I.& 7.~.Q.L.V w <.;.8 F W.W.W.=.e W.Q.W.W.W.Q.N.G ^ _._._._._._._.",
"_._._._._._._.t X.U.E.W.W.W.Q.I.5 8.~.!.e.+ ,.d.d.O.$ M.!.I.-.x W.W.W.W.W.W.V.E ! _._._._._._._.",
"_._._._._.(.~ o &.Y.E.Q.W.W.W.W.j.L.Q.!.0.  % < < # X j.!.W.Z.k.W.W.W.W.W.W.L.Q * ( )._._._._._.",
"_._._._./.t 7 X &.U.W.W.W.W.W.g.*.f.K.Q.N.& z  .| 4 7 P.Q.J.f.f.v.W.W.W.W.Q.P.O.$ 3 f /._._._._.",
"_._._.).u C k.5 &.Y.W.W.W.E.W.J.b.b.Y.Q.Q.6.& , , 6 q.!.Q.R.b.b.K.W.W.W.W.Q.L.#.c 3.l ! _._._._.",
"_._._.] : n.I.6 @.H.W.W.W.W.W.W.Q.W.W.W.W.W.k.:.>.M.Q.W.Q.W.W.W.W.W.W.W.Q.Q.G.Q M x.1.i [ _._._.",
"_._._.d n I.E.w R D.W.W.W.W.W.W.E.W.W.W.W.W.Q.!.!.Q.W.W.W.W.W.W.W.W.W.W.Q.Q.G.T J S.a.h ) _._._.",
"_._._.d B E.~.D A S.W.W.W.W.W.W.W.W.W.W.W.W.W.W.Q.W.W.W.W.W.W.W.W.W.W.W.W.Q.n.S R F.k.l ) _._._.",
"_._._._ 5 V.~.=.6 d.Y.W.W.W.W.W.W.W.W.W.W.W.W.W.W.W.W.W.W.W.W.W.W.W.W.W.W.W.w.w <.F.q.a [ _._._.",
"_._._.(.* 7.!.L.a.A.H.W.W.W.W.W.W.W.W.W.W.W.W.W.W.W.W.W.W.W.W.W.W.W.W.W.Q.W.-.9 p.C.} u )._._._.",
"_._._._.! k L.~.9.+.A.Q.W.W.W.W.W.W.W.W.W.W.W.W.W.W.W.W.W.W.W.W.W.W.W.W.W.P.D K S.e.j / _._._._.",
"_._._._.(.- T !.4.X y.U.W.W.W.W.W.W.W.W.W.W.W.W.W.W.W.W.W.W.W.W.W.W.W.W.Q.w.8 5.s.S d (._._._._.",
"_._._._._.] * F G.B c S.Y.W.W.W.W.W.W.W.W.W.W.W.W.W.W.W.W.W.W.W.W.W.W.Q.G.V L y.m r ^._._._._._.",
"_._._._._._.] r 7 W X O.F.Y.W.W.W.W.W.W.W.W.Q.Q.W.W.W.W.W.W.W.W.W.W.Q.I.W $ J 2 d ^._._._._._._.",
"_._._._._._._.).~ *     +.F.Y.W.W.Q.W.W.W.Q.Y.Q.W.W.W.W.W.W.W.W.W.!.I.Q     - ( )._._._._._._._.",
"_._._._._._._._._.(.( t   Y c.T.Q.Q.W.Q.W.W.Q.Y.W.W.W.W.W.W.W.!.!.n.D o d ( )._.)._._._._._._._.",
"_._._._._._._._._._._._.] - 8 &.x.T.!.!.Q.Q.Q.Q.W.W.W.Q.!.~.Q.M.Q > u [ _._._._._._._._._._._._.",
"_._._._._._._._._._._._._.)./ * < A @.u.z.C.Y.W.W.W.P.B.w.$.V $ r ) )._._._._._._._._._._._._._.",
"_._._._._._._._._._._._._._._.).` - . # + 2 9 b b q 1 + # . u ] )._._._._._._._._._._._._._._._.",
"_._._._._._._._._._._._._._._._._.f N ..O ) ) ( ( ) / + ..v ~ _._._._._._._._._._._._._._._._._.",
"_._._._._._._._._._._._._._._._.] * @.d.: / _._._.).~ 2 d.X.t [ )._._._._._._._._._._._._._._._.",
"_._._._._._._._._._._._._._._.(.O J c.A.%.@ ( _.)./ < 2.A.i.M r (._._._._._._._._._._._._._._._.",
"_._._._._._._._._._._._._._._.[ o c M m M < / _.).! < Z m m w - (._._._._._._._._._._._._._._._.",
"_._._._._._._._._._._._._._._._.) - * * - ! )._._.(.f * * - r ` _._._._._._._._._._._._._._._._.",
"_._._._._._._._._._._._._._._._._._._._._._._._._._._._._._._._._._._._._._._._._._._._._._._._."
};
