/* XPM */
static char *result[] = {
/* columns rows colors chars-per-pixel */
"48 48 157 2 ",
"   c #010101",
".  c #080604",
"X  c #050906",
"o  c #0C0A06",
"O  c #070708",
"+  c #070D09",
"@  c #0C0B09",
"#  c #130E0B",
"$  c #0A130D",
"%  c #16120B",
"&  c #1B150E",
"*  c #1D180F",
"=  c #0F0F12",
"-  c #0D1A11",
";  c #111213",
":  c #111A16",
">  c #1D1B12",
",  c #151519",
"<  c #17181C",
"1  c #19191B",
"2  c #211414",
"3  c #231C13",
"4  c #271818",
"5  c #2A1C1C",
"6  c #0F2018",
"7  c #112319",
"8  c #172C1E",
"9  c #292216",
"0  c #2E2619",
"q  c #362C1C",
"w  c #392E1E",
"e  c #3A301F",
"r  c #1D1E23",
"t  c #1F2023",
"y  c #1E3526",
"u  c #232120",
"i  c #23242A",
"p  c #2B2C2F",
"a  c #3F3421",
"s  c #2C2D33",
"d  c #2F3135",
"f  c #323335",
"g  c #33343C",
"h  c #42301F",
"j  c #402C27",
"k  c #423623",
"l  c #473925",
"z  c #493C27",
"x  c #4D3F29",
"c  c #503032",
"v  c #643D3D",
"b  c #24452E",
"n  c #244730",
"m  c #264A32",
"M  c #295137",
"N  c #2C573B",
"B  c #4F402A",
"V  c #53442C",
"C  c #5A492F",
"Z  c #5C4B31",
"A  c #614F33",
"S  c #655236",
"D  c #6B563A",
"F  c #6D593A",
"G  c #705B3B",
"H  c #76613F",
"J  c #78623F",
"K  c #3D3D49",
"L  c #3B3C47",
"P  c #643F40",
"I  c #3F4147",
"U  c #3F404C",
"Y  c #2A5C42",
"T  c #336343",
"R  c #346B4A",
"E  c #3B744E",
"W  c #3B7550",
"Q  c #434551",
"!  c #4D4E5D",
"~  c #484B54",
"^  c #445B50",
"/  c #6D4746",
"(  c #745049",
")  c #407E55",
"_  c #7C6542",
"`  c #5A5D64",
"'  c #565768",
"]  c #575969",
"[  c #595B6C",
"{  c #525463",
"}  c #596368",
"|  c #61646B",
" . c #6A6E77",
".. c #6E727B",
"X. c #71757F",
"o. c #8A5F47",
"O. c #836B46",
"+. c #876E48",
"@. c #8A6643",
"#. c #8C734B",
"$. c #91754C",
"%. c #926855",
"&. c #977B50",
"*. c #9A7856",
"=. c #44855A",
"-. c #46895C",
";. c #4E9967",
":. c #4E9B6A",
">. c #4A9161",
",. c #509C69",
"<. c #509C74",
"1. c #53A26E",
"2. c #4DA375",
"3. c #57A972",
"4. c #5AAF76",
"5. c #53AB79",
"6. c #5EB87C",
"7. c #61BD7F",
"8. c #9D8053",
"9. c #A38456",
"0. c #A78859",
"q. c #AD8D5C",
"w. c #B59360",
"e. c #B99762",
"r. c #BC9863",
"t. c #C29E67",
"y. c #C49A6C",
"u. c #C6A269",
"i. c #CEA96E",
"p. c #D1AA6F",
"a. c #D6AE71",
"s. c #DBA570",
"d. c #D7B072",
"f. c #DCB475",
"g. c #DEB278",
"h. c #E4BA79",
"j. c #EFC37E",
"k. c #60BE80",
"l. c #64C484",
"z. c #67C987",
"x. c #60C58B",
"c. c #6DD58F",
"v. c #6DD693",
"b. c #6FD992",
"n. c #6AD898",
"m. c #70DC95",
"M. c #77E99D",
"N. c #76E9A1",
"B. c #7DF6A6",
"V. c #888C97",
"C. c #8B909B",
"Z. c #9297A3",
"A. c #A4AAB7",
"S. c #ABB1BF",
"D. c #F3C580",
"F. c #BFC5D5",
"G. c None",
/* pixels */
"G.G.G.G.G.G.G.G.G.G.G.G.G.G.G.G.G.G.G.G.G.G.G.G.G.G.G.G.G.G.G.G.G.G.G.G.G.G.G.G.G.G.G.G.G.G.G.G.",
"G.G.G.G.G.G.G.G.G.G.G.G.G.G.G.G.G.G.G.G.G.G.G.G.G.G.G.G.G.G.G.G.G.G.G.G.G.G.G.G.G.G.G.G.G.G.G.G.",
"G.G.G.G.G.G.G.G.G.G.G.G.G.G.G.G.G.G.G.G.G.G.G.G.G.G.G.G.G.G.G.G.G.G.G.G.G.G.G.G.G.G.G.G.G.G.G.G.",
"G.G.G.G.G.G.G.G.G.G.G.G.G.G.G.G.G.G.G.G.G.G.G.G.G.G.G.G.G.G.G.G.G.G.G.G.G.G.G.G.G.G.G.G.G.G.G.G.",
"G.G.G.G.G.G.G.G.G.G.G.G.G.G.G.G.G.G.G.G.G.G.G.G.G.G.G.G.G.G.G.G.G.G.G.G.G.G.G.G.G.G.G.G.G.G.G.G.",
"G.G.G.G.G.G.G.G.G.G.G.G.G.G.G.G.G.G.G.G.G.G.G.G.G.G.G.G.G.G.G.G.G.G.G.G.G.G.G.G.G.G.G.G.G.G.G.G.",
"G.G.G.G.G.G.G.G.G.G.          G.G.G.G.G.G.G.G.G.G.G.G.G.G.G.G.G.G.G.G.G.G.G.G.G.G.G.G.G.G.G.G.G.",
"G.G.G.G.G.G.G.G.G.  # 5 5 4 # . G.G.G.G.G.G.G.G.G.G.G.G.G.G.G.G.G.G.G.G.G.G.G.G.G.G.G.G.G.G.G.G.",
"G.G.G.G.G.G.G.G.G.. j ( / P c #   G.G.G.G.G.G.G.G.G.G.G.G.G.G.G.G.G.G.G.G.G.G.G.G.G.G.G.G.G.G.G.",
"G.G.G.G.G.G.G.G.G.. D y.*./ v 2   G.G.G.G.G.G.G.G.G.G.G.G.G.G.G.G.G.G.G.G.G.G.G.G.G.G.G.G.G.G.G.",
"G.G.G.G.G.G.G.G.G.. _ j.h.%.v 2   G.G.G.G.G.G.G.G.G.G.G.G.G.G.G.G.G.G.G.G.G.G.G.G.G.G.G.G.G.G.G.",
"G.G.G.G.G.G.G.G.G.  l a.D.s.o.&   G.G.G.G.G.      G.G.G.G.G.G.G.G.G.G.G.G.G.G.G.G.G.G.G.G.G.G.G.",
"G.G.G.G.G.G.G.G.G.G.@ V $.@.h . G.G.G.G.  % a V l >   G.G.G.G.G.G.G.G.G.G.G.G.G.G.G.G.G.G.G.G.G.",
"G.  . . G.G.G.G.G.G.G.  . .   G.G.G.X 7 - a t.h.f.9.w . G.G.G.G.G.G.G.G.G.G.G.G.G.G.G.G.G.G.G.G.",
"G.# F S %   G.G.G.G.G.G.G.G.G.G.G.  N 6.) > V x _ i.t.Z #   G.G.G.G.G.G.G.G.G.G.G.G.G.G.G.G.G.G.",
"G.@ #.f.#.>   G.G.G.G.G.G.G.G.G.G.X =.m.W +     . l r.a._ 3   G.G.G.G.G.G.G.G.G.G.G.G.G.G.G.G.G.",
"G.  3 #.f.9.0   G.G.  $ 8 $   G.G.$ 1.5.7   G.G.G.  0 &.f.8.3   G.G.      G.G.G.G.G.G.G.G.G.G.G.",
"G.G.  % G f.w.z # % + T l.-.8 + - T v.5.7 G.G.G.G.G.  & _ w.z   G.G.G.G.G.G.G.G.G.G.G.G.G.G.G.G.",
"G.G.G.G.# S i.p.q.q.k b ;.3.4.:.) :.W 5.Y   G.G.G.G.G.G.@ 3 # G.G.G.G.          G.G.G.G.  G.G.G.",
"G.G.G.G.G.. k +.0.#.q . + $ E l.R 1.M :.2.6   G.G.G.G.G.G.G.G.G.G.G.              G.G.G.    G.G.",
"G.G.G.G.G.G.  o * %   G.G.G.- ,.=.>.6.7.x.Y X G.G.G.G.G.G.G.G.G.G.G.G.G.G.G.G.G.G.G.G.G.G.G.G.G.",
"G.G.G.G.G.G.G.G.G.G.G.G.G.G.  m 7.l.l.b.M.5.6   G.G.                                          G.",
"G.G.G.G.G.G.G.G.G.G.G.G.G.G.G.$ -.b.B.B.B.n.R X G.G.                                          G.",
"G.G.G.G.G.G.G.G.G.G.G.G.G.G.G.  n b.B.M.c.v.<.:   G.G.G.G.G.G.G.G.G.G.G.G.G.G.G.G.G.G.G.G.G.G.G.",
"G.G.G.G.G.G.G.G.G.G.G.G.G.G.G.G.$ ) 5.T y ^ } i   G.G.G.                          G.G.G.G.G.G.G.",
"G.G.G.G.G.G.G.G.G.G.G.G.G.G.G.G.  + - r g ! ' K =   G.G.G.G.G.G.G.G.G.G.G.G.G.G.G.G.G.G.G.G.G.G.",
"G.G.G.G.G.G.G.G.G.G.G.G.G.G.  O < s U ' [ ] [ ! i   G.G.G.G.G.G.G.G.G.G.G.G.G.G.G.G.G.G.G.G.G.G.",
"G.G.G.G.G.G.G.G.G.G.G.G.. % @ i ! [ ' Q L i L ' K ;   G.G.G.G.G.G.G.  + ; . G.G.G.G.G.G.G.G.G.G.",
"G.G.G.G.G.G.G.G.G.G.G.. C w.V < Q K i = .   , Q U ,   G.G.G.    @ & . ` V.s   G.G.G.G.G.G.G.G.G.",
"G.G.G.G.G.G.G.G.G.G.  e u.h.F . ; O   G.G.G.. , 1 3 &   . % q D 8.&.q ` F.|   G.G.G.G.G.G.G.G.G.",
"G.G.G.G.G.G.G.G.G.G.  _ h._ *     G.G.G.G.G.    C r.9.S G q.i.p.t.+.9 u A.Z.1 G.G.G.G.G.G.G.G.G.",
"G.G.G.G.G.G.G.G.G.G.> w.u.3   G.G.G.G.G.G.G.G.  k r.h.h.a.q.H z 3 X     f ~ ;   G.G.G.G.G.G.G.G.",
"G.G.G.G.G.G.G.G.G.  k f.#.o G.G.G.G.G.G.G.G.G.G.. 3 B V q & .   G.G.G.G.      G.G.G.G.G.G.G.G.G.",
"G.G.G.G.G.G.G.G.G.. _ f.V   G.G.G.G.G.G.G.G.G.G.G.G.    G.G.G.G.G.G.G.G.G.G.G.G.G.G.G.G.G.G.G.G.",
"G.G.G.G.G.G.G.G.G.& e.w.9 G.G.G.G.G.G.G.G.G.G.G.G.G.G.G.G.G.G.G.G.G.G.G.G.G.G.G.G.G.G.G.G.G.G.G.",
"G.G.G.G.G.G.G.G.  x d.+.. G.G.G.G.G.G.G.G.G.G.G.G.G.G.G.G.G.G.G.G.G.G.G.G.G.G.G.G.G.G.G.G.G.G.G.",
"G.G.G.G.G.G.G.G.. _ d.B   G.G.G.G.G.G.G.G.G.G.G.G.G.G.G.G.G.G.G.G.G.G.G.G.G.G.G.G.G.G.G.G.G.G.G.",
"G.G.G.G.G.G.G.  . S J % G.G.G.G.G.G.G.G.G.G.G.G.G.G.G.G.G.G.G.G.G.G.G.G.G.G.G.G.G.G.G.G.G.G.G.G.",
"G.G.G.G.G.G.  < p f u . G.G.G.G.G.G.G.G.G.G.G.G.G.G.G.G.G.G.G.G.G.G.G.G.G.G.G.G.G.G.G.G.G.G.G.G.",
"G.G.G.G.G.  f C.S.A.| O G.G.G.G.G.G.G.G.G.G.G.G.G.G.G.G.G.G.G.G.G.G.G.G.G.G.G.G.G.G.G.G.G.G.G.G.",
"G.G.G.G.G.  g  .X...I . G.G.G.G.G.G.G.G.G.G.G.G.G.G.G.G.G.G.G.G.G.G.G.G.G.G.G.G.G.G.G.G.G.G.G.G.",
"G.G.G.G.G.              G.G.G.G.G.G.G.G.G.G.G.G.G.G.G.G.G.G.G.G.G.G.G.G.G.G.G.G.G.G.G.G.G.G.G.G.",
"G.G.G.G.G.G.G.G.G.G.G.G.G.G.G.G.G.G.G.G.G.G.G.G.G.G.G.G.G.G.G.G.G.G.G.G.G.G.G.G.G.G.G.G.G.G.G.G.",
"G.G.G.G.G.G.G.G.G.G.G.G.G.G.G.G.G.G.G.G.G.G.G.G.G.G.G.G.G.G.G.G.G.G.G.G.G.G.G.G.G.G.G.G.G.G.G.G.",
"G.G.G.G.G.G.G.G.G.G.G.G.G.G.G.G.G.G.G.G.G.G.G.G.G.G.G.G.G.G.G.G.G.G.G.G.G.G.G.G.G.G.G.G.G.G.G.G.",
"G.G.G.G.G.G.G.G.G.G.G.G.G.G.G.G.G.G.G.G.G.G.G.G.G.G.G.G.G.G.G.G.G.G.G.G.G.G.G.G.G.G.G.G.G.G.G.G.",
"G.G.G.G.G.G.G.G.G.G.G.G.G.G.G.G.G.G.G.G.G.G.G.G.G.G.G.G.G.G.G.G.G.G.G.G.G.G.G.G.G.G.G.G.G.G.G.G.",
"G.G.G.G.G.G.G.G.G.G.G.G.G.G.G.G.G.G.G.G.G.G.G.G.G.G.G.G.G.G.G.G.G.G.G.G.G.G.G.G.G.G.G.G.G.G.G.G."
};
