/* XPM */
static char *result[] = {
/* columns rows colors chars-per-pixel */
"48 48 150 2 ",
"   c #010201",
".  c #090604",
"X  c #050906",
"o  c #0C0A06",
"O  c #060608",
"+  c #070D09",
"@  c #090A0B",
"#  c #110D08",
"$  c #09130C",
"%  c #19120C",
"&  c #1D180F",
"*  c #0D0E10",
"=  c #0D1511",
"-  c #0D1B13",
";  c #16161A",
":  c #18181C",
">  c #241D13",
",  c #291D14",
"<  c #0F2018",
"1  c #112116",
"2  c #13251A",
"3  c #15291C",
"4  c #2C2217",
"5  c #352619",
"6  c #30281A",
"7  c #392D1E",
"8  c #1D1D23",
"9  c #1A3423",
"0  c #1E3B28",
"q  c #202127",
"w  c #212228",
"e  c #203E2B",
"r  c #2A2B33",
"t  c #303139",
"y  c #453824",
"u  c #4D3F29",
"i  c #433724",
"p  c #1F4432",
"a  c #23442E",
"s  c #254B35",
"d  c #275139",
"f  c #2C563A",
"g  c #2E5A3D",
"h  c #5C4B31",
"j  c #555034",
"k  c #65492F",
"l  c #624C31",
"z  c #695638",
"x  c #665E3E",
"c  c #795739",
"v  c #353640",
"b  c #393A45",
"n  c #3C3E49",
"m  c #2E6347",
"M  c #2E6549",
"N  c #356947",
"B  c #376C48",
"V  c #396F4B",
"C  c #336444",
"Z  c #3B734D",
"A  c #347353",
"S  c #3D7D58",
"D  c #41424E",
"F  c #464855",
"G  c #4B4D5B",
"H  c #454754",
"J  c #4F515F",
"K  c #407E55",
"L  c #7D6441",
"P  c #535564",
"I  c #595B6C",
"U  c #5D5F70",
"Y  c #825D3D",
"T  c #886F48",
"R  c #996E47",
"E  c #8A714A",
"W  c #A2754D",
"Q  c #3B805C",
"!  c #3E8761",
"~  c #3F8963",
"^  c #428157",
"/  c #428359",
"(  c #478B5E",
")  c #488D5F",
"_  c #72855D",
"`  c #438B61",
"'  c #498F60",
"]  c #4B9263",
"[  c #4F9A67",
"{  c #4F9B69",
"}  c #43916A",
"|  c #519D6A",
" . c #479B70",
".. c #52A06C",
"X. c #56A972",
"o. c #58AE75",
"O. c #51AC79",
"+. c #5DB57B",
"@. c #5EB97C",
"#. c #60BC7F",
"$. c #AC8C5B",
"%. c #B48256",
"&. c #B69460",
"*. c #94A16B",
"=. c #CE9D66",
"-. c #C39662",
";. c #C6A169",
":. c #CFAA6E",
">. c #D5AC70",
",. c #DFBB7C",
"<. c #DEB374",
"1. c #E5A76E",
"2. c #EBB777",
"3. c #F4B375",
"4. c #ECC17D",
"5. c #F6C47F",
"6. c #5BC18A",
"7. c #5ECC93",
"8. c #64C484",
"9. c #67CA88",
"0. c #69CE8B",
"q. c #6BD18D",
"w. c #63CE90",
"e. c #61D196",
"r. c #6ED690",
"t. c #6ED994",
"y. c #63D79B",
"u. c #69DD9C",
"i. c #66D99B",
"p. c #71DE95",
"a. c #73DE9C",
"s. c #6FE29C",
"d. c #72E097",
"f. c #73E49B",
"g. c #77EA9E",
"h. c #78EC9F",
"j. c #69E1A1",
"k. c #75ECA2",
"l. c #7AEEA0",
"z. c #77F1A6",
"x. c #7CF4A4",
"c. c #7FF8A7",
"v. c #7FF9A8",
"b. c #91C986",
"n. c #97CF8B",
"m. c #84EEA0",
"M. c #ECCB85",
"N. c #F5C580",
"B. c #F6C982",
"V. c None",
/* pixels */
"V.V.V.V.V.V.V.V.V.V.V.V.V.V.V.V.V.V.V.V.V.V.V.V.V.V.V.V.V.V.V.V.V.V.V.V.V.V.V.V.V.V.V.V.V.V.V.V.",
"V.V.V.V.V.V.V.V.V.V.V.V.V.V.V.V.V.V.V.V.V.V.V.V.V.V.V.V.V.V.V.V.V.V.V.V.V.V.V.V.V.V.V.V.V.V.V.V.",
"V.V.V.V.V.V.V.V.V.V.V.V.V.V.V.V.V.V.V.V.V.V.V.V.V.V.V.V.V.V.V.V.V.V.V.V.V.V.V.V.V.V.V.V.V.V.V.V.",
"V.V.V.V.V.V.V.V.V.V.V.V.V.V.V.V.V.V.V.V.V.          V.V.V.V.V.V.V.V.V.V.V.V.V.V.V.V.V.V.V.V.V.V.",
"V.V.V.V.V.V.V.V.V.V.V.V.V.V.V.V.V.V.V.V.X 6 z L l ,   V.V.V.V.V.V.V.V.V.V.V.V.V.V.V.V.V.V.V.V.V.",
"V.V.V.V.V.V.V.V.V.V.V.V.V.V.V.V.V.V.V.. u =.2.M.2.%.5   V.V.V.V.V.V.V.V.V.V.V.V.V.V.V.V.V.V.V.V.",
"V.V.V.V.V.V.V.V.V.V.V.V.V.V.V.V.V.V.  % $.N.B.B.5.3.Y # V.V.V.V.V.V.V.V.V.V.V.V.V.V.V.V.V.V.V.V.",
"V.V.V.V.V.V.V.V.V.V.V.V.V.V.V.V.V.V.  & ;.B.B.B.N.3.R % V.V.V.V.V.V.V.V.V.V.V.V.V.V.V.V.V.V.V.V.",
"V.V.V.V.V.V.V.V.V.V.V.V.V.V.V.V.V.V.V.# E 4.B.B.N.1.k . V.V.V.V.V.V.V.V.V.V.V.V.V.V.V.V.V.V.V.V.",
"V.V.V.V.V.V.V.V.V.V.V.V.V.V.V.V.V.V.V.  > E ;.>.-.c %   V.V.V.V.V.V.V.V.V.V.V.V.V.V.V.V.V.V.V.V.",
"V.V.V.V.V.V.V.V.V.V.V.V.V.V.V.V.V.V.V.V.  o 4 7 , .   V.V.V.V.V.V.V.V.V.V.V.V.V.V.V.V.V.V.V.V.V.",
"V.V.V.V.V.V.V.V.V.V.V.V.V.V.V.V.V.V.V.V.V.V.V.  V.V.V.V.V.V.V.V.V.V.V.V.V.V.V.V.V.V.V.V.V.V.V.V.",
"V.V.V.V.V.V.V.V.V.V.V.V.V.V.V.V.          V.V.V.V.V.          V.V.V.V.V.V.V.V.V.V.V.V.V.V.V.V.V.",
"V.V.V.V.V.V.V.V.V.V.V.V.V.V.  + e f f d 9   V.V.V.X 0 f f d 9 X   V.V.V.V.V.V.V.V.V.V.V.V.V.V.V.",
"V.V.V.V.V.V.V.V.V.V.V.V.V.  - K r.x.x.x.+.9   V.  a 9.x.x.k.6.m =   V.V.V.V.V.V.V.V.V.V.V.V.V.V.",
"V.V.V.V.V.V.V.V.V.V.V.  X e X.h.x.h.x.x.x.{ $   2 X.x.x.x.h.x.i.` 3   V.V.V.V.V.V.V.V.V.V.V.V.V.",
"V.V.V.V.V.V.V.V.V.V.  $ C 8.x.p.) Z 9.c.x.f.Z 2 ^ h.x.x.@.B [ d.k.O.p +   V.V.V.V.V.V.V.V.V.V.V.",
"V.V.V.V.V.V.V.V.V.  3 ] f.x.8.g + $ | x.c.x.q.+.q.x.x.f.Q X $ Z q.l.w.A -   V.V.V.V.V.V.V.V.V.V.",
"V.V.V.V.V.V.V.V.X s @.x.f.[ 9     + [ m.c.r.B ..Z 0.x.i.A     X a X.k.s. .9   V.V.V.V.V.V.V.V.V.",
"V.V.V.V.V.V.V.  3 @.m.h.) -   V.V.$ { v.c.@.f ..B 0.z.y.A X V.V.  2 X.x.j.! =   V.V.V.V.V.V.V.V.",
"V.V.V.V.V.V.V.  = ) h.h.) $   V.V.$ | h.q.q.@.o...t.s.7.A   V.V.  1 X.k.e.M X V.V.V.V.V.V.V.V.V.",
"V.V.V.V.V.V.V.V.  2 | h.d.Z $     + { g.' [ ] [ ] ..{ ! A X V.  - ` f.u.S $   V.V.V.V.V.V.V.V.V.",
"V.V.V.V.V.V.V.V.V.  3 X.x.p.B +   + { c.x.l.l.h.l.l.f.6.A X   = / f.u.! -   V.V.V.V.V.V.V.V.V.V.",
"V.V.V.V.V.V.V.V.V.V.  9 o.x.t.N + X g ] ' ] ] ] ] ] ) Q p   $ Q f.u.~ <   V.V.V.V.V.V.V.V.V.V.V.",
"V.V.V.V.V.V.V.V.V.V.V.  9 +.m.b.j o                       # x n.a.} 2   V.V.V.V.V.V.V.V.V.V.V.V.",
"V.V.V.V.V.V.V.V.V.V.V.V.  9 *.M.:.y   V.V.V.V.V.V.V.V.V.  h <.,._ 2   V.V.V.V.V.V.V.V.V.V.V.V.V.",
"V.V.V.V.V.V.V.V.V.V.V.V.V.  y &.;.u                     . l =.W 4   V.V.V.V.V.V.V.V.V.V.V.V.V.V.",
"V.V.V.V.V.V.V.V.V.V.V.V.V.V.. & 4 o @ ; ; ; ; ; ; ; ; ; @ o , %   V.V.V.V.V.V.V.V.V.V.V.V.V.V.V.",
"V.V.V.V.V.V.V.V.V.V.V.V.V.V.V.V.    t P P G J J J P G G r     V.V.V.V.V.V.V.V.V.V.V.V.V.V.V.V.V.",
"V.V.V.V.V.V.V.V.V.V.V.V.V.V.V.V.V.X b U U I P P P I I I t   V.V.V.V.V.V.V.V.V.V.V.V.V.V.V.V.V.V.",
"V.V.V.V.V.V.V.V.V.V.V.V.V.V.V.V.V.O b U I D 8 ; w F I I t X V.V.V.V.V.V.V.V.V.V.V.V.V.V.V.V.V.V.",
"V.V.V.V.V.V.V.V.V.V.V.V.V.V.V.V.V.  b U G ;       w P I t   V.V.V.V.V.V.V.V.V.V.V.V.V.V.V.V.V.V.",
"V.V.V.V.V.V.V.V.V.V.V.V.V.V.V.V.V.O b U F @   V.  ; G I t   V.V.V.V.V.V.V.V.V.V.V.V.V.V.V.V.V.V.",
"V.V.V.V.V.V.V.V.V.V.V.V.V.V.V.V.V.O b U F @   V.  ; G I t   V.V.V.V.V.V.V.V.V.V.V.V.V.V.V.V.V.V.",
"V.V.V.V.V.V.V.V.V.V.V.V.V.V.V.V.V.O b U F @   V.  ; G P t X V.V.V.V.V.V.V.V.V.V.V.V.V.V.V.V.V.V.",
"V.V.V.V.V.V.V.V.V.V.V.V.V.V.V.V.V.. b U F @   V.  ; G I t   V.V.V.V.V.V.V.V.V.V.V.V.V.V.V.V.V.V.",
"V.V.V.V.V.V.V.V.V.V.V.V.V.V.V.V.V.X b U F @   V.  ; G I t   V.V.V.V.V.V.V.V.V.V.V.V.V.V.V.V.V.V.",
"V.V.V.V.V.V.V.V.V.V.V.V.V.V.V.V.V.O b U F @   V.  ; G P t   V.V.V.V.V.V.V.V.V.V.V.V.V.V.V.V.V.V.",
"V.V.V.V.V.V.V.V.V.V.V.V.V.V.V.V.V.X b U H @   V.  ; G I t   V.V.V.V.V.V.V.V.V.V.V.V.V.V.V.V.V.V.",
"V.V.V.V.V.V.V.V.V.V.V.V.V.V.V.V.V.O b I F @   V.  ; G I t . V.V.V.V.V.V.V.V.V.V.V.V.V.V.V.V.V.V.",
"V.V.V.V.V.V.V.V.V.V.V.V.V.V.V.V.V.O b U F @   V.  ; G I t X V.V.V.V.V.V.V.V.V.V.V.V.V.V.V.V.V.V.",
"V.V.V.V.V.V.V.V.V.V.V.V.V.V.V.V.V.O b U F @   V.  ; G I t   V.V.V.V.V.V.V.V.V.V.V.V.V.V.V.V.V.V.",
"V.V.V.V.V.V.V.V.V.V.V.V.V.V.V.V.V.O b U F O   V.  ; G I t   V.V.V.V.V.V.V.V.V.V.V.V.V.V.V.V.V.V.",
"V.V.V.V.V.V.V.V.V.V.V.V.V.V.V.V.V.. r G v . V.V.  @ n G w   V.V.V.V.V.V.V.V.V.V.V.V.V.V.V.V.V.V.",
"V.V.V.V.V.V.V.V.V.V.V.V.V.V.V.V.V.  @ ; @   V.V.V.  = ; O   V.V.V.V.V.V.V.V.V.V.V.V.V.V.V.V.V.V.",
"V.V.V.V.V.V.V.V.V.V.V.V.V.V.V.V.V.V.V.  V.V.V.V.V.V.    V.V.V.V.V.V.V.V.V.V.V.V.V.V.V.V.V.V.V.V.",
"V.V.V.V.V.V.V.V.V.V.V.V.V.V.V.V.V.V.V.V.V.V.V.V.V.V.V.V.V.V.V.V.V.V.V.V.V.V.V.V.V.V.V.V.V.V.V.V.",
"V.V.V.V.V.V.V.V.V.V.V.V.V.V.V.V.V.V.V.V.V.V.V.V.V.V.V.V.V.V.V.V.V.V.V.V.V.V.V.V.V.V.V.V.V.V.V.V."
};
